{
.appVersion = "3149";
.formatVersion = 3;
DisplayStrings = (
"amatricianas
clementine
californication
affixed
assasinate
accolade
aquacity
accecssibility
cold
credit
loupe
axiomatic
axis
vehixcular

",
"morningdew
adjuncted
anxious
acknowledged
nexus
TERRIBLE

Fickle jinx bog dwarves spy math quiz. 

Five quacking zephyrs jolt my wax bed.

G.B. fjords vex quick waltz nymph.
",
"Adjunctious
Acknowledgement
Bedazzled
Triumphant
Prefixed
Rubicon
Klaustrophobic

",
"osaka
osmosis
assasination",
"9999",
"",
n,
s,
e,
e
);
axes = (
{
name = Weight;
tag = wght;
}
);
customParameters = (
{
name = Axes;
value = "New Value";
},
{
name = Axes;
value = (
{
Name = Weight;
Tag = wght;
}
);
}
);
date = "2018-03-21 11:27:33 +0000";
familyName = Alphorn;
featurePrefixes = (
{
automatic = 1;
code = "languagesystem DFLT dflt;
";
name = Languagesystems;
}
);
fontMaster = (
{
axesValues = (
196
);
customParameters = (
{
name = "Alignment Zones";
value = (
{
pos = "-16";
size = 16;
},
{
pos = "-196";
size = 16;
}
);
}
);
iconName = Bold;
id = "FBD32BA2-3DE3-41DC-83E1-8A694E18FAAC";
metricValues = (
{
pos = 720;
},
{
over = 16;
pos = 670;
},
{
over = 16;
pos = 500;
},
{
},
{
pos = -270;
},
{
}
);
name = Bold;
stemValues = (
156,
196
);
userData = {
GSCornerRadius = 52;
};
visible = 1;
},
{
axesValues = (
40
);
customParameters = (
{
name = "Alignment Zones";
value = (
{
pos = "-8";
size = 8;
},
{
pos = "-168";
size = 8;
}
);
}
);
iconName = Light;
id = "061FC23D-6DC8-4BE4-BEC8-2F5AB93B127B";
metricValues = (
{
pos = 750;
},
{
over = 8;
pos = 670;
},
{
over = 8;
pos = 500;
},
{
},
{
pos = -160;
},
{
}
);
name = Thin;
stemValues = (
38,
40
);
userData = {
GSCornerRadius = 52;
};
visible = 1;
}
);
glyphs = (
{
glyphname = A;
kernLeft = A;
kernRight = A;
lastChange = "2019-07-06 20:19:21 +0000";
layers = (
{
anchors = (
{
name = top;
pos = (363,686);
}
);
layerId = "FBD32BA2-3DE3-41DC-83E1-8A694E18FAAC";
shapes = (
{
closed = 1;
nodes = (
(212,0,l),
(294,214,l),
(178,127,l),
(545,127,l),
(429,214,l),
(510,0,l),
(725,0,l),
(464,670,l),
(257,670,l),
(-4,0,l)
);
},
{
closed = 1;
nodes = (
(363,475,l),
(458,182,l),
(500,266,l),
(224,266,l),
(265,183,l)
);
}
);
width = 721;
},
{
associatedMasterId = "FBD32BA2-3DE3-41DC-83E1-8A694E18FAAC";
layerId = "CE5ED305-9415-4489-8A52-5C74424FA20F";
name = "Mar 23 18, 14:10";
shapes = (
{
closed = 1;
nodes = (
(172,0,l),
(287,438,l),
(400,0,l),
(577,0,l),
(370,670,l),
(203,670,l),
(-4,0,l)
);
},
{
closed = 1;
nodes = (
(449,135,l),
(449,223,l),
(135,223,l),
(135,135,l)
);
}
);
width = 573;
},
{
associatedMasterId = "FBD32BA2-3DE3-41DC-83E1-8A694E18FAAC";
layerId = "555BD9F4-FBE7-4570-9FF3-A29E9E62C8A1";
name = "Sep 1 18, 21:34";
shapes = (
{
closed = 1;
nodes = (
(199,0,l),
(297,446,l),
(394,0,l),
(597,0,l),
(400,670,l),
(193,670,l),
(-4,0,l)
);
},
{
closed = 1;
nodes = (
(463,91,l),
(463,227,l),
(141,227,l),
(141,91,l)
);
}
);
width = 593;
},
{
associatedMasterId = "FBD32BA2-3DE3-41DC-83E1-8A694E18FAAC";
layerId = "617B03C2-BE1E-4CFD-9B05-7BAC8CB01767";
name = "Nov 10 18, 00:49";
shapes = (
{
closed = 1;
nodes = (
(209,0,l),
(307,446,l),
(310,434,l),
(404,0,l),
(607,0,l),
(410,670,l),
(203,670,l),
(6,0,l)
);
},
{
closed = 1;
nodes = (
(473,91,l),
(473,227,l),
(151,227,l),
(151,91,l)
);
}
);
width = 613;
},
{
associatedMasterId = "FBD32BA2-3DE3-41DC-83E1-8A694E18FAAC";
layerId = "6392AF3F-932C-4095-A09B-C55E97787D43";
name = "Dec 4 18, 00:23";
shapes = (
{
closed = 1;
nodes = (
(209,0,l),
(347,446,l),
(484,0,l),
(687,0,l),
(450,670,l),
(243,670,l),
(6,0,l)
);
},
{
closed = 1;
nodes = (
(513,91,l),
(513,227,l),
(191,227,l),
(191,91,l)
);
}
);
width = 693;
},
{
anchors = (
{
name = top;
pos = (336,686);
}
);
layerId = "061FC23D-6DC8-4BE4-BEC8-2F5AB93B127B";
shapes = (
{
closed = 1;
nodes = (
(46,0,l),
(158,253,l),
(141,239,l),
(531,239,l),
(514,253,l),
(626,0,l),
(672,0,l),
(360,670,l),
(312,670,l),
(0,0,l)
);
},
{
closed = 1;
nodes = (
(336,635,l),
(510,261,l),
(512,277,l),
(160,277,l),
(162,261,l)
);
}
);
width = 672;
},
{
associatedMasterId = "061FC23D-6DC8-4BE4-BEC8-2F5AB93B127B";
layerId = "D702161F-5175-4585-B56B-ECDD9F1A8952";
name = "Mar 23 18, 14:10";
shapes = (
{
closed = 1;
nodes = (
(172,0,l),
(287,438,l),
(400,0,l),
(577,0,l),
(370,670,l),
(203,670,l),
(-4,0,l)
);
},
{
closed = 1;
nodes = (
(449,135,l),
(449,223,l),
(135,223,l),
(135,135,l)
);
}
);
width = 573;
},
{
associatedMasterId = "061FC23D-6DC8-4BE4-BEC8-2F5AB93B127B";
layerId = "281E33DA-2521-4F8F-95BC-C93A70355B46";
name = "Sep 1 18, 21:34";
shapes = (
{
closed = 1;
nodes = (
(199,0,l),
(297,446,l),
(394,0,l),
(597,0,l),
(400,670,l),
(193,670,l),
(-4,0,l)
);
},
{
closed = 1;
nodes = (
(463,91,l),
(463,227,l),
(141,227,l),
(141,91,l)
);
}
);
width = 593;
},
{
associatedMasterId = "061FC23D-6DC8-4BE4-BEC8-2F5AB93B127B";
layerId = "3FE05412-4851-4741-BA41-F5C3F7A4CCA1";
name = "Nov 10 18, 00:49";
shapes = (
{
closed = 1;
nodes = (
(209,0,l),
(307,446,l),
(310,434,l),
(404,0,l),
(607,0,l),
(410,670,l),
(203,670,l),
(6,0,l)
);
},
{
closed = 1;
nodes = (
(473,91,l),
(473,227,l),
(151,227,l),
(151,91,l)
);
}
);
width = 613;
},
{
associatedMasterId = "061FC23D-6DC8-4BE4-BEC8-2F5AB93B127B";
layerId = "37D03ACA-03C7-4ADE-9489-278CB3579E3B";
name = "Dec 4 18, 00:23";
shapes = (
{
closed = 1;
nodes = (
(209,0,l),
(347,446,l),
(484,0,l),
(687,0,l),
(450,670,l),
(243,670,l),
(6,0,l)
);
},
{
closed = 1;
nodes = (
(513,91,l),
(513,227,l),
(191,227,l),
(191,91,l)
);
}
);
width = 693;
}
);
metricLeft = V;
metricRight = V;
unicode = 65;
},
{
color = 2;
glyphname = B;
lastChange = "2019-06-27 11:28:37 +0000";
layers = (
{
layerId = "FBD32BA2-3DE3-41DC-83E1-8A694E18FAAC";
shapes = (
{
closed = 1;
nodes = (
(326,0,ls),
(525,0,o),
(597,95,o),
(597,183,cs),
(597,264,o),
(537,343,o),
(396,343,cs),
(175,343,l),
(175,0,l)
);
},
{
closed = 1;
nodes = (
(244,0,l),
(244,670,l),
(48,670,l),
(48,0,l)
);
},
{
closed = 1;
nodes = (
(244,532,l),
(280,532,ls),
(349,532,o),
(375,506,o),
(375,464,cs),
(375,424,o),
(351,394,o),
(282,394,cs),
(244,394,l)
);
},
{
closed = 1;
nodes = (
(361,322,l),
(502,322,o),
(565,409,o),
(565,490,cs),
(565,585,o),
(479,670,o),
(338,670,cs),
(175,670,l),
(175,322,l)
);
},
{
closed = 1;
nodes = (
(244,281,l),
(306,281,ls),
(366,281,o),
(396,255,o),
(396,213,cs),
(396,173,o),
(368,143,o),
(308,143,cs),
(244,143,l)
);
}
);
width = 607;
},
{
associatedMasterId = "FBD32BA2-3DE3-41DC-83E1-8A694E18FAAC";
layerId = "CADF22C1-BEF1-49D6-8ADB-760B20589203";
name = "Nov 6 18, 22:44";
shapes = (
{
closed = 1;
nodes = (
(326,0,ls),
(525,0,o),
(587,88,o),
(587,177,cs),
(587,257,o),
(537,343,o),
(396,343,cs),
(175,343,l),
(175,0,l)
);
},
{
closed = 1;
nodes = (
(244,0,l),
(244,670,l),
(48,670,l),
(48,0,l)
);
},
{
closed = 1;
nodes = (
(244,279,l),
(313,279,ls),
(383,279,o),
(406,251,o),
(406,212,cs),
(406,177,o),
(386,144,o),
(306,144,cs),
(244,144,l)
);
},
{
closed = 1;
nodes = (
(244,526,l),
(280,526,ls),
(349,526,o),
(375,498,o),
(375,454,cs),
(375,411,o),
(351,379,o),
(282,379,cs),
(244,379,l)
);
},
{
closed = 1;
nodes = (
(361,322,l),
(502,322,o),
(555,409,o),
(555,489,cs),
(555,585,o),
(479,670,o),
(338,670,cs),
(175,670,l),
(175,322,l)
);
}
);
width = 607;
},
{
layerId = "061FC23D-6DC8-4BE4-BEC8-2F5AB93B127B";
shapes = (
{
closed = 1;
nodes = (
(330,0,ls),
(479,0,o),
(555,85,o),
(555,174,cs),
(555,263,o),
(477,343,o),
(318,343,cs),
(63,343,l),
(63,0,l)
);
},
{
closed = 1;
nodes = (
(88,0,l),
(88,670,l),
(46,670,l),
(46,0,l)
);
},
{
closed = 1;
nodes = (
(82,632,l),
(308,632,ls),
(406,632,o),
(478,583,o),
(478,491,cs),
(478,420,o),
(436,352,o),
(318,352,cs),
(82,352,l)
);
},
{
closed = 1;
nodes = (
(318,322,l),
(477,322,o),
(520,414,o),
(520,491,cs),
(520,590,o),
(450,670,o),
(309,670,cs),
(63,670,l),
(63,322,l)
);
},
{
closed = 1;
nodes = (
(82,314,l),
(318,314,ls),
(436,314,o),
(513,255,o),
(513,174,cs),
(513,99,o),
(446,38,o),
(328,38,cs),
(82,38,l)
);
}
);
width = 565;
},
{
associatedMasterId = "061FC23D-6DC8-4BE4-BEC8-2F5AB93B127B";
layerId = "1A916FC2-908C-4A8A-8939-5A37F0058BCD";
name = "Nov 6 18, 22:44";
shapes = (
{
closed = 1;
nodes = (
(326,0,ls),
(525,0,o),
(587,88,o),
(587,177,cs),
(587,257,o),
(537,343,o),
(396,343,cs),
(175,343,l),
(175,0,l)
);
},
{
closed = 1;
nodes = (
(244,0,l),
(244,670,l),
(48,670,l),
(48,0,l)
);
},
{
closed = 1;
nodes = (
(244,279,l),
(313,279,ls),
(383,279,o),
(406,251,o),
(406,212,cs),
(406,177,o),
(386,144,o),
(306,144,cs),
(244,144,l)
);
},
{
closed = 1;
nodes = (
(244,526,l),
(280,526,ls),
(349,526,o),
(375,498,o),
(375,454,cs),
(375,411,o),
(351,379,o),
(282,379,cs),
(244,379,l)
);
},
{
closed = 1;
nodes = (
(361,322,l),
(502,322,o),
(555,409,o),
(555,489,cs),
(555,585,o),
(479,670,o),
(338,670,cs),
(175,670,l),
(175,322,l)
);
}
);
width = 607;
}
);
metricLeft = H;
unicode = 66;
},
{
color = 1;
glyphname = C;
kernLeft = upRounded;
kernRight = upRounded;
lastChange = "2019-07-03 22:39:14 +0000";
layers = (
{
layerId = "FBD32BA2-3DE3-41DC-83E1-8A694E18FAAC";
shapes = (
{
closed = 1;
nodes = (
(549,274,l),
(527,198,o),
(466,150,o),
(386,150,cs),
(286,150,o),
(216,225,o),
(216,336,cs),
(216,445,o),
(286,518,o),
(386,518,cs),
(470,518,o),
(533,466,o),
(551,386,c),
(742,386,l),
(720,564,o),
(579,686,o),
(386,686,c),
(175,686,o),
(20,541,o),
(20,336,cs),
(20,129,o),
(175,-16,o),
(386,-16,cs),
(575,-16,o),
(714,101,o),
(740,274,c)
);
}
);
width = 762;
},
{
associatedMasterId = "FBD32BA2-3DE3-41DC-83E1-8A694E18FAAC";
layerId = "EF7FA5A8-2FB4-40E1-8B9D-C1C4591C58CF";
name = "Aug 5 18, 12:47";
shapes = (
{
closed = 1;
nodes = (
(463,-16,o),
(613,71,o),
(613,306,c),
(417,306,l),
(417,261,ls),
(417,181,o),
(380,140,o),
(320,140,cs),
(259,140,o),
(222,181,o),
(222,261,cs),
(222,409,ls),
(222,489,o),
(259,530,o),
(320,530,cs),
(378,530,o),
(417,492,o),
(417,409,cs),
(417,376,l),
(613,376,l),
(613,603,o),
(462,686,o),
(320,686,cs),
(174,686,o),
(26,599,o),
(26,362,cs),
(26,310,ls),
(26,73,o),
(174,-16,o),
(320,-16,cs)
);
}
);
width = 639;
},
{
layerId = "061FC23D-6DC8-4BE4-BEC8-2F5AB93B127B";
shapes = (
{
closed = 1;
nodes = (
(690,235,l),
(659,104,o),
(537,24,o),
(390,24,cs),
(208,24,o),
(66,147,o),
(66,336,cs),
(66,525,o),
(208,648,o),
(389,648,cs),
(535,648,o),
(656,568,o),
(689,439,c),
(733,439,l),
(700,589,o),
(564,686,o),
(390,686,cs),
(179,686,o),
(24,542,o),
(24,336,cs),
(24,130,o),
(179,-16,o),
(390,-16,cs),
(565,-16,o),
(702,84,o),
(734,235,c)
);
}
);
width = 758;
},
{
associatedMasterId = "061FC23D-6DC8-4BE4-BEC8-2F5AB93B127B";
layerId = "F7D0BC8B-151B-457A-A32C-B947F9FE0ACB";
name = "Aug 5 18, 12:47";
shapes = (
{
closed = 1;
nodes = (
(463,-16,o),
(613,71,o),
(613,306,c),
(417,306,l),
(417,261,ls),
(417,181,o),
(380,140,o),
(320,140,cs),
(259,140,o),
(222,181,o),
(222,261,cs),
(222,409,ls),
(222,489,o),
(259,530,o),
(320,530,cs),
(378,530,o),
(417,492,o),
(417,409,cs),
(417,376,l),
(613,376,l),
(613,603,o),
(462,686,o),
(320,686,cs),
(174,686,o),
(26,599,o),
(26,362,cs),
(26,310,ls),
(26,73,o),
(174,-16,o),
(320,-16,cs)
);
}
);
width = 639;
},
{
associatedMasterId = "061FC23D-6DC8-4BE4-BEC8-2F5AB93B127B";
layerId = "35092873-C384-4142-8297-6033EFC83D49";
name = "Jan 29 19, 10:17";
shapes = (
{
closed = 1;
nodes = (
(549,274,l),
(527,198,o),
(466,150,o),
(386,150,cs),
(286,150,o),
(216,225,o),
(216,336,cs),
(216,445,o),
(286,518,o),
(386,518,cs),
(470,518,o),
(533,466,o),
(551,386,c),
(742,386,l),
(720,564,o),
(579,686,o),
(386,686,c),
(175,686,o),
(20,541,o),
(20,336,cs),
(20,129,o),
(175,-16,o),
(386,-16,cs),
(575,-16,o),
(714,101,o),
(740,274,c)
);
}
);
width = 762;
}
);
metricLeft = O;
metricRight = O;
unicode = 67;
},
{
glyphname = D;
kernRight = upRounded;
lastChange = "2019-07-03 22:39:14 +0000";
layers = (
{
layerId = "FBD32BA2-3DE3-41DC-83E1-8A694E18FAAC";
shapes = (
{
closed = 1;
nodes = (
(244,0,l),
(244,670,l),
(48,670,l),
(48,0,l)
);
},
{
closed = 1;
nodes = (
(234,514,l),
(278,514,ls),
(407,514,o),
(458,443,o),
(458,337,cs),
(458,203,o),
(374,156,o),
(278,156,cs),
(234,156,l),
(234,0,l),
(295,0,ls),
(516,0,o),
(654,130,o),
(654,338,cs),
(654,537,o),
(516,670,o),
(295,670,cs),
(234,670,l)
);
}
);
width = 674;
},
{
layerId = "061FC23D-6DC8-4BE4-BEC8-2F5AB93B127B";
shapes = (
{
closed = 1;
nodes = (
(88,0,l),
(88,670,l),
(46,670,l),
(46,0,l)
);
},
{
closed = 1;
nodes = (
(78,630,l),
(226,630,ls),
(512,630,o),
(543,449,o),
(543,329,cs),
(543,209,o),
(512,40,o),
(226,40,cs),
(78,40,l),
(78,0,l),
(226,0,ls),
(534,0,o),
(585,180,o),
(585,329,cs),
(585,478,o),
(534,670,o),
(226,670,cs),
(78,670,l)
);
}
);
width = 609;
}
);
metricLeft = H;
metricRight = O;
unicode = 68;
},
{
color = 2;
glyphname = E;
lastChange = "2019-07-06 20:10:25 +0000";
layers = (
{
anchors = (
{
name = top;
pos = (299,686);
}
);
layerId = "FBD32BA2-3DE3-41DC-83E1-8A694E18FAAC";
shapes = (
{
closed = 1;
nodes = (
(244,0,l),
(244,670,l),
(48,670,l),
(48,0,l)
);
},
{
closed = 1;
nodes = (
(549,0,l),
(549,156,l),
(155,156,l),
(155,0,l)
);
},
{
closed = 1;
nodes = (
(526,270,l),
(526,414,l),
(155,414,l),
(155,270,l)
);
},
{
closed = 1;
nodes = (
(549,514,l),
(549,670,l),
(155,670,l),
(155,514,l)
);
}
);
width = 597;
},
{
anchors = (
{
name = top;
pos = (258,686);
}
);
layerId = "061FC23D-6DC8-4BE4-BEC8-2F5AB93B127B";
shapes = (
{
closed = 1;
nodes = (
(88,0,l),
(88,670,l),
(46,670,l),
(46,0,l)
);
},
{
closed = 1;
nodes = (
(557,0,l),
(557,40,l),
(83,40,l),
(83,0,l)
);
},
{
closed = 1;
nodes = (
(534,322,l),
(534,362,l),
(83,362,l),
(83,322,l)
);
},
{
closed = 1;
nodes = (
(557,630,l),
(557,670,l),
(83,670,l),
(83,630,l)
);
}
);
width = 603;
},
{
anchors = (
{
name = top;
pos = (249,686);
}
);
associatedMasterId = "FBD32BA2-3DE3-41DC-83E1-8A694E18FAAC";
layerId = "089159EE-04F3-4ACD-9203-97FE56EFA298";
name = "Jul 3 19, 00:31";
shapes = (
{
closed = 1;
nodes = (
(244,0,l),
(244,670,l),
(48,670,l),
(48,0,l)
);
},
{
closed = 1;
nodes = (
(469,0,l),
(469,156,l),
(155,156,l),
(155,0,l)
);
},
{
closed = 1;
nodes = (
(456,270,l),
(456,414,l),
(155,414,l),
(155,270,l)
);
},
{
closed = 1;
nodes = (
(469,514,l),
(469,670,l),
(155,670,l),
(155,514,l)
);
}
);
width = 517;
}
);
metricLeft = H;
metricRight = "=H";
unicode = 69;
},
{
color = 2;
glyphname = F;
lastChange = "2019-07-03 22:08:22 +0000";
layers = (
{
layerId = "FBD32BA2-3DE3-41DC-83E1-8A694E18FAAC";
shapes = (
{
closed = 1;
nodes = (
(244,0,l),
(244,670,l),
(48,670,l),
(48,0,l)
);
},
{
closed = 1;
nodes = (
(549,256,l),
(549,400,l),
(160,400,l),
(160,256,l)
);
},
{
closed = 1;
nodes = (
(559,514,l),
(559,670,l),
(155,670,l),
(155,514,l)
);
}
);
width = 587;
},
{
layerId = "061FC23D-6DC8-4BE4-BEC8-2F5AB93B127B";
shapes = (
{
closed = 1;
nodes = (
(86,0,l),
(86,670,l),
(46,670,l),
(46,0,l)
);
},
{
closed = 1;
nodes = (
(567,322,l),
(567,362,l),
(78,362,l),
(78,322,l)
);
},
{
closed = 1;
nodes = (
(577,630,l),
(577,670,l),
(73,670,l),
(73,630,l)
);
}
);
width = 603;
}
);
metricLeft = H;
metricRight = "=H-20";
unicode = 70;
},
{
color = 1;
glyphname = G;
kernLeft = upRounded;
kernRight = upRounded;
lastChange = "2019-07-03 22:39:14 +0000";
layers = (
{
background = {
shapes = (
{
closed = 0;
nodes = (
(741,274,ls)
);
},
{
closed = 0;
nodes = (
(419,258,l)
);
}
);
};
layerId = "FBD32BA2-3DE3-41DC-83E1-8A694E18FAAC";
shapes = (
{
closed = 1;
nodes = (
(572,-16,o),
(733,103,o),
(733,339,cs),
(733,353,o),
(732,367,o),
(730,382,c),
(336,382,l),
(336,222,l),
(298,258,l),
(613,258,l),
(530,258,l),
(520,201,o),
(475,154,o),
(390,154,cs),
(283,154,o),
(217,229,o),
(217,337,cs),
(217,449,o),
(288,518,o),
(386,518,cs),
(443,518,o),
(495,495,o),
(514,442,c),
(723,442,l),
(699,592,o),
(552,686,o),
(381,686,cs),
(169,686,o),
(20,541,o),
(20,336,cs),
(20,129,o),
(181,-16,o),
(386,-16,cs)
);
}
);
width = 753;
},
{
associatedMasterId = "FBD32BA2-3DE3-41DC-83E1-8A694E18FAAC";
layerId = "9B7D96F4-3583-4B19-9058-4C3DBD230214";
name = "Aug 5 18, 12:52";
shapes = (
{
closed = 1;
nodes = (
(465,-16,o),
(600,74,o),
(600,320,cs),
(600,371,l),
(313,371,l),
(313,258,l),
(406,258,l),
(406,182,o),
(374,140,o),
(313,140,cs),
(253,140,o),
(212,181,o),
(212,261,cs),
(212,409,ls),
(212,489,o),
(256,529,o),
(312,529,cs),
(367,529,o),
(401,489,o),
(401,427,c),
(588,427,l),
(588,595,o),
(455,686,o),
(311,686,cs),
(164,686,o),
(16,600,o),
(16,362,cs),
(16,310,ls),
(16,73,o),
(166,-16,o),
(312,-16,cs)
);
}
);
width = 612;
},
{
background = {
shapes = (
{
closed = 0;
nodes = (
(744,274,ls)
);
},
{
closed = 0;
nodes = (
(422,258,l)
);
}
);
};
layerId = "061FC23D-6DC8-4BE4-BEC8-2F5AB93B127B";
shapes = (
{
closed = 1;
nodes = (
(591,-16,o),
(732,118,o),
(732,336,cs),
(732,338,o),
(732,341,o),
(732,343,c),
(330,343,l),
(330,253,l),
(312,305,l),
(707,305,l),
(689,314,l),
(689,129,o),
(555,24,o),
(390,24,cs),
(208,24,o),
(66,147,o),
(66,336,cs),
(66,525,o),
(208,648,o),
(389,648,cs),
(527,648,o),
(643,576,o),
(681,460,c),
(726,460,l),
(687,597,o),
(556,686,o),
(390,686,cs),
(179,686,o),
(24,542,o),
(24,336,cs),
(24,130,o),
(179,-16,o),
(390,-16,cs)
);
}
);
width = 756;
},
{
associatedMasterId = "061FC23D-6DC8-4BE4-BEC8-2F5AB93B127B";
layerId = "59835483-7ECB-4824-8A2B-29440C61FFE1";
name = "Aug 5 18, 12:52";
shapes = (
{
closed = 1;
nodes = (
(465,-16,o),
(600,74,o),
(600,320,cs),
(600,371,l),
(313,371,l),
(313,258,l),
(406,258,l),
(406,182,o),
(374,140,o),
(313,140,cs),
(253,140,o),
(212,181,o),
(212,261,cs),
(212,409,ls),
(212,489,o),
(256,529,o),
(312,529,cs),
(367,529,o),
(401,489,o),
(401,427,c),
(588,427,l),
(588,595,o),
(455,686,o),
(311,686,cs),
(164,686,o),
(16,600,o),
(16,362,cs),
(16,310,ls),
(16,73,o),
(166,-16,o),
(312,-16,cs)
);
}
);
width = 612;
},
{
associatedMasterId = "FBD32BA2-3DE3-41DC-83E1-8A694E18FAAC";
background = {
shapes = (
{
closed = 0;
nodes = (
(740,274,ls)
);
},
{
closed = 0;
nodes = (
(418,258,l)
);
}
);
};
layerId = "9B613798-2350-4781-9675-CD1DD8B3E1BA";
name = "Jul 4 19, 00:10";
shapes = (
{
closed = 1;
nodes = (
(575,-16,o),
(720,129,o),
(720,314,cs),
(720,372,l),
(365,372,l),
(365,170,l),
(297,238,l),
(622,238,l),
(529,276,l),
(545,273,o),
(528,150,o),
(389,150,cs),
(282,150,o),
(216,225,o),
(216,336,cs),
(216,445,o),
(276,518,o),
(376,518,cs),
(439,518,o),
(500,489,o),
(517,422,c),
(716,422,l),
(688,592,o),
(548,686,o),
(376,686,cs),
(165,686,o),
(20,541,o),
(20,336,cs),
(20,129,o),
(175,-16,o),
(376,-16,cs)
);
}
);
width = 740;
},
{
associatedMasterId = "061FC23D-6DC8-4BE4-BEC8-2F5AB93B127B";
background = {
shapes = (
{
closed = 0;
nodes = (
(740,274,ls)
);
},
{
closed = 0;
nodes = (
(418,258,l)
);
}
);
};
layerId = "B54DEB07-8704-445F-8A53-AAD8D5C65939";
name = "Jul 4 19, 00:28";
shapes = (
{
closed = 1;
nodes = (
(564,-16,o),
(728,88,o),
(728,306,cs),
(728,308,o),
(728,311,o),
(728,313,c),
(386,313,l),
(386,253,l),
(368,275,l),
(703,275,l),
(685,284,l),
(685,99,o),
(528,24,o),
(386,24,cs),
(204,24,o),
(62,147,o),
(62,336,cs),
(62,525,o),
(204,648,o),
(385,648,cs),
(523,648,o),
(639,576,o),
(677,460,c),
(722,460,l),
(683,597,o),
(552,686,o),
(386,686,cs),
(175,686,o),
(20,542,o),
(20,336,cs),
(20,130,o),
(175,-16,o),
(386,-16,cs)
);
}
);
width = 748;
}
);
metricLeft = O;
metricRight = "=O";
unicode = 71;
},
{
color = 2;
glyphname = H;
lastChange = "2019-07-03 22:03:35 +0000";
layers = (
{
layerId = "FBD32BA2-3DE3-41DC-83E1-8A694E18FAAC";
shapes = (
{
closed = 1;
nodes = (
(644,0,l),
(644,670,l),
(448,670,l),
(448,0,l)
);
},
{
closed = 1;
nodes = (
(244,0,l),
(244,670,l),
(48,670,l),
(48,0,l)
);
},
{
closed = 1;
nodes = (
(489,248,l),
(489,404,l),
(175,404,l),
(175,248,l)
);
}
);
width = 692;
},
{
layerId = "061FC23D-6DC8-4BE4-BEC8-2F5AB93B127B";
shapes = (
{
closed = 1;
nodes = (
(600,0,l),
(600,670,l),
(556,670,l),
(556,0,l)
);
},
{
closed = 1;
nodes = (
(90,0,l),
(90,670,l),
(46,670,l),
(46,0,l)
);
},
{
closed = 1;
nodes = (
(564,322,l),
(564,362,l),
(74,362,l),
(74,322,l)
);
}
);
width = 646;
}
);
unicode = 72;
},
{
color = 2;
glyphname = I;
lastChange = "2019-06-05 22:55:48 +0000";
layers = (
{
anchors = (
{
name = top;
pos = (148,686);
}
);
layerId = "FBD32BA2-3DE3-41DC-83E1-8A694E18FAAC";
shapes = (
{
closed = 1;
nodes = (
(244,0,l),
(244,670,l),
(48,670,l),
(48,0,l)
);
}
);
width = 292;
},
{
anchors = (
{
name = top;
pos = (64,686);
}
);
layerId = "061FC23D-6DC8-4BE4-BEC8-2F5AB93B127B";
shapes = (
{
closed = 1;
nodes = (
(86,0,l),
(86,670,l),
(46,670,l),
(46,0,l)
);
}
);
width = 132;
}
);
metricLeft = H;
metricRight = H;
unicode = 73;
},
{
glyphname = J;
lastChange = "2019-07-03 22:35:40 +0000";
layers = (
{
layerId = "FBD32BA2-3DE3-41DC-83E1-8A694E18FAAC";
shapes = (
{
closed = 1;
nodes = (
(-4,0,l),
(62,0,o),
(97,0,o),
(102,0,cs),
(212,0,o),
(323,68,o),
(323,212,cs),
(323,670,l),
(127,670,l),
(127,204,ls),
(127,168,o),
(112,156,o),
(73,156,cs),
(-4,156,l)
);
}
);
width = 371;
},
{
associatedMasterId = "FBD32BA2-3DE3-41DC-83E1-8A694E18FAAC";
layerId = "ADFBFDAB-FB2F-41F2-9E47-8ACB62430F69";
name = "Jul 31 18, 00:10";
shapes = (
{
closed = 1;
nodes = (
(327,-16,o),
(438,52,o),
(438,196,cs),
(438,670,l),
(93,670,l),
(93,514,l),
(242,514,l),
(242,171,ls),
(242,155,o),
(236,141,o),
(217,141,cs),
(199,141,o),
(192,155,o),
(192,171,cs),
(192,264,l),
(-4,264,l),
(-4,208,ls),
(-4,52,o),
(107,-16,o),
(217,-16,cs)
);
}
);
width = 486;
},
{
layerId = "061FC23D-6DC8-4BE4-BEC8-2F5AB93B127B";
shapes = (
{
closed = 1;
nodes = (
(0,0,l),
(16,0,o),
(23,0,o),
(28,0,cs),
(168,0,o),
(277,48,o),
(277,212,cs),
(277,670,l),
(235,670,l),
(235,212,ls),
(235,69,o),
(146,40,o),
(27,40,cs),
(0,40,l)
);
}
);
width = 323;
},
{
associatedMasterId = "061FC23D-6DC8-4BE4-BEC8-2F5AB93B127B";
layerId = "7FB0A61F-F0B3-474A-BC16-07BBB1BAEA3E";
name = "Jul 31 18, 00:10";
shapes = (
{
closed = 1;
nodes = (
(327,-16,o),
(438,52,o),
(438,196,cs),
(438,670,l),
(93,670,l),
(93,514,l),
(242,514,l),
(242,171,ls),
(242,155,o),
(236,141,o),
(217,141,cs),
(199,141,o),
(192,155,o),
(192,171,cs),
(192,264,l),
(-4,264,l),
(-4,208,ls),
(-4,52,o),
(107,-16,o),
(217,-16,cs)
);
}
);
width = 486;
}
);
metricLeft = V;
metricRight = H;
unicode = 74;
},
{
color = 2;
glyphname = K;
lastChange = "2019-10-25 11:33:11 +0000";
layers = (
{
layerId = "FBD32BA2-3DE3-41DC-83E1-8A694E18FAAC";
shapes = (
{
closed = 1;
nodes = (
(641,-1,l),
(599,164,ls),
(573,267,o),
(481,335,o),
(366,336,c),
(366,342,l),
(480,342,o),
(573,401,o),
(599,505,cs),
(641,670,l),
(473,670,ls),
(435,670,o),
(414,653,o),
(407,616,cs),
(397,561,ls),
(377,449,o),
(347,408,o),
(229,408,c),
(229,261,l),
(347,261,o),
(377,220,o),
(397,108,cs),
(407,53,ls),
(414,16,o),
(435,-1,o),
(473,-1,cs)
);
},
{
closed = 1;
nodes = (
(244,0,l),
(244,670,l),
(48,670,l),
(48,0,l)
);
}
);
width = 637;
},
{
associatedMasterId = "FBD32BA2-3DE3-41DC-83E1-8A694E18FAAC";
backgroundImage = {
imagePath = "../../../Screen Shot 2018-09-03 at 22.19.29.png";
pos = (17,-178.752);
scale = (3.3633,3.3633);
};
layerId = "CF1C6A33-DEBB-4873-B910-14AA4EC27711";
name = "Sep 3 18, 22:19";
shapes = (
{
closed = 1;
nodes = (
(646,0,l),
(427,364,l),
(624,670,l),
(422,670,l),
(205,314,l),
(246,314,l),
(425,0,l)
);
},
{
closed = 1;
nodes = (
(244,0,l),
(244,670,l),
(48,670,l),
(48,0,l)
);
}
);
width = 642;
},
{
associatedMasterId = "FBD32BA2-3DE3-41DC-83E1-8A694E18FAAC";
backgroundImage = {
imagePath = "../../../Screen Shot 2018-09-03 at 22.19.29.png";
locked = 1;
pos = (17,-178.752);
scale = (3.3633,3.3633);
};
layerId = "3DFB5C43-27C5-4DEB-96D5-C10B4DC5DE7A";
name = "Sep 3 18, 22:28";
shapes = (
{
closed = 1;
nodes = (
(244,0,l),
(244,670,l),
(48,670,l),
(48,0,l)
);
},
{
closed = 1;
nodes = (
(318,670,o),
(348,517,o),
(327,443,cs),
(320,418,o),
(303,408,o),
(280,408,cs),
(226,408,l),
(226,285,l),
(302,285,o),
(327,272,o),
(330,176,cs),
(332,95,o),
(330,16,o),
(363,0,c),
(611,0,l),
(612,20,l),
(577,36,o),
(561,89,o),
(564,165,cs),
(567,240,o),
(549,352,o),
(326,352,c),
(326,360,l),
(490,359,o),
(547,399,o),
(554,466,cs),
(561,524,o),
(547,625,o),
(603,647,c),
(603,670,l),
(520,670,o),
(437,670,o),
(381,670,cs)
);
}
);
width = 608;
},
{
associatedMasterId = "FBD32BA2-3DE3-41DC-83E1-8A694E18FAAC";
backgroundImage = {
imagePath = "../../../Screen Shot 2018-09-03 at 22.19.29.png";
locked = 1;
pos = (17,-178.752);
scale = (3.3633,3.3633);
};
layerId = "DBE409F3-FD82-4D20-9C02-84A5FCB7F735";
name = "Sep 3 18, 22:46";
shapes = (
{
closed = 1;
nodes = (
(244,0,l),
(244,670,l),
(48,670,l),
(48,0,l)
);
},
{
closed = 1;
nodes = (
(318,670,o),
(348,517,o),
(327,443,cs),
(320,418,o),
(303,408,o),
(280,408,cs),
(226,408,l),
(226,285,l),
(302,285,o),
(327,272,o),
(330,176,cs),
(332,95,o),
(330,16,o),
(363,0,c),
(591,0,l),
(592,20,l),
(557,36,o),
(541,89,o),
(544,165,cs),
(547,240,o),
(529,352,o),
(326,352,c),
(326,360,l),
(470,359,o),
(527,399,o),
(534,466,cs),
(540,524,o),
(527,625,o),
(583,647,c),
(583,670,l),
(500,670,o),
(437,670,o),
(381,670,cs)
);
}
);
width = 588;
},
{
associatedMasterId = "FBD32BA2-3DE3-41DC-83E1-8A694E18FAAC";
backgroundImage = {
imagePath = "../../../Screen Shot 2018-09-03 at 22.19.29.png";
locked = 1;
pos = (17,-178.752);
scale = (3.3633,3.3633);
};
layerId = "7EA1D9A6-AE90-4EC1-82EF-4D4F5C4CD625";
name = "Sep 3 18, 22:52";
shapes = (
{
closed = 1;
nodes = (
(244,0,l),
(244,670,l),
(48,670,l),
(48,0,l)
);
},
{
closed = 1;
nodes = (
(347,561,ls),
(327,449,o),
(297,408,o),
(226,408,c),
(226,285,l),
(272,285,o),
(304,268,o),
(329,177,cs),
(346,114,ls),
(370,24,o),
(428,0,o),
(472,0,cs),
(591,0,l),
(534,156,ls),
(505,235,o),
(449,342,o),
(366,342,c),
(366,350,l),
(430,349,o),
(513,401,o),
(539,505,cs),
(581,670,l),
(423,670,ls),
(385,670,o),
(363,653,o),
(357,616,cs)
);
}
);
width = 587;
},
{
layerId = "061FC23D-6DC8-4BE4-BEC8-2F5AB93B127B";
shapes = (
{
closed = 1;
nodes = (
(574,-1,l),
(409,255,ls),
(362,327,o),
(302,355,o),
(167,361,c),
(167,366,l),
(302,370,o),
(357,409,o),
(392,460,cs),
(539,670,l),
(538,670,ls),
(504,670,o),
(480,658,o),
(457,626,cs),
(356,484,ls),
(303,410,o),
(236,388,o),
(68,388,c),
(68,337,l),
(239,337,o),
(312,323,o),
(366,237,cs),
(485,47,ls),
(508,10,o),
(542,-1,o),
(567,-1,cs)
);
},
{
closed = 1;
nodes = (
(88,0,l),
(88,670,l),
(46,670,l),
(46,0,l)
);
}
);
width = 574;
},
{
associatedMasterId = "061FC23D-6DC8-4BE4-BEC8-2F5AB93B127B";
attr = {
coordinates = (
100
);
};
layerId = "0236DF97-0192-49F2-9ED6-6973859526C4";
name = "{100}";
shapes = (
{
closed = 1;
nodes = (
(560,-1,l),
(442,220,ls),
(398,302,o),
(331,347,o),
(204,351,c),
(204,357,l),
(331,359,o),
(394,408,o),
(432,477,cs),
(538,670,l),
(473,670,ls),
(438,670,o),
(417,654,o),
(398,622,cs),
(335,514,ls),
(285,429,o),
(239,396,o),
(130,396,c),
(130,308,l),
(241,308,o),
(292,279,o),
(341,187,cs),
(415,49,ls),
(434,13,o),
(461,-1,o),
(491,-1,cs)
);
},
{
closed = 1;
nodes = (
(148,0,l),
(148,670,l),
(47,670,l),
(47,0,l)
);
}
);
width = 559;
}
);
metricLeft = H;
metricRight = V;
unicode = 75;
},
{
color = 2;
glyphname = L;
lastChange = "2019-07-06 20:10:24 +0000";
layers = (
{
layerId = "FBD32BA2-3DE3-41DC-83E1-8A694E18FAAC";
shapes = (
{
closed = 1;
nodes = (
(244,0,l),
(244,670,l),
(48,670,l),
(48,0,l)
);
},
{
closed = 1;
nodes = (
(579,0,l),
(579,156,l),
(135,156,l),
(135,0,l)
);
}
);
width = 584;
},
{
layerId = "061FC23D-6DC8-4BE4-BEC8-2F5AB93B127B";
shapes = (
{
closed = 1;
nodes = (
(86,0,l),
(86,670,l),
(46,670,l),
(46,0,l)
);
},
{
closed = 1;
nodes = (
(567,0,l),
(567,40,l),
(64,40,l),
(64,0,l)
);
}
);
width = 576;
}
);
metricLeft = H;
metricRight = "=V+9";
unicode = 76;
},
{
color = 2;
glyphname = M;
lastChange = "2019-07-03 22:44:57 +0000";
layers = (
{
layerId = "FBD32BA2-3DE3-41DC-83E1-8A694E18FAAC";
shapes = (
{
closed = 1;
nodes = (
(220,0,l),
(220,370,l),
(365,0,l),
(481,0,l),
(626,360,l),
(626,0,l),
(798,0,l),
(798,670,l),
(591,670,l),
(425,220,l),
(275,670,l),
(48,670,l),
(48,0,l)
);
}
);
width = 846;
},
{
layerId = "061FC23D-6DC8-4BE4-BEC8-2F5AB93B127B";
shapes = (
{
closed = 1;
nodes = (
(90,0,l),
(90,593,l),
(403,0,l),
(428,0,l),
(741,593,l),
(741,0,l),
(785,0,l),
(785,670,l),
(735,670,l),
(416,63,l),
(96,670,l),
(46,670,l),
(46,0,l)
);
}
);
width = 831;
}
);
metricLeft = H;
metricRight = H;
unicode = 77;
},
{
glyphname = N;
lastChange = "2019-06-05 22:55:48 +0000";
layers = (
{
layerId = "FBD32BA2-3DE3-41DC-83E1-8A694E18FAAC";
shapes = (
{
closed = 1;
nodes = (
(239,670,l),
(48,670,l),
(48,0,l),
(229,0,l),
(229,357,l),
(452,0,l),
(643,0,l),
(643,670,l),
(462,670,l),
(462,278,l)
);
}
);
width = 691;
},
{
associatedMasterId = "FBD32BA2-3DE3-41DC-83E1-8A694E18FAAC";
layerId = "299A0FFA-D631-4A80-A463-AB7A38B6E55C";
name = "Apr 12 18, 15:42";
shapes = (
{
closed = 1;
nodes = (
(643,670,l),
(447,670,l),
(447,303,l),
(241,670,l),
(48,669,l),
(48,-1,l),
(244,0,l),
(244,345,l),
(441,0,l),
(643,0,l)
);
}
);
width = 691;
},
{
associatedMasterId = "FBD32BA2-3DE3-41DC-83E1-8A694E18FAAC";
layerId = "6C696198-37E2-4FF9-B36D-8F3D38710D36";
name = "Aug 5 18, 15:31";
shapes = (
{
closed = 1;
nodes = (
(224,0,l),
(224,415,l),
(411,0,l),
(643,0,l),
(643,670,l),
(467,670,l),
(467,233,l),
(271,670,l),
(48,670,l),
(48,0,l)
);
}
);
width = 691;
},
{
associatedMasterId = "FBD32BA2-3DE3-41DC-83E1-8A694E18FAAC";
layerId = "E93B893D-A6C4-40DF-A019-55E05C7CB802";
name = "Sep 1 18, 21:36";
shapes = (
{
closed = 1;
nodes = (
(224,0,l),
(224,415,l),
(411,0,l),
(643,0,l),
(643,670,l),
(467,670,l),
(467,233,l),
(271,670,l),
(48,670,l),
(48,0,l)
);
}
);
width = 691;
},
{
layerId = "061FC23D-6DC8-4BE4-BEC8-2F5AB93B127B";
shapes = (
{
closed = 1;
nodes = (
(84,670,l),
(46,670,l),
(46,0,l),
(88,0,l),
(88,606,l),
(603,0,l),
(641,0,l),
(641,670,l),
(599,670,l),
(599,64,l)
);
}
);
width = 687;
},
{
associatedMasterId = "061FC23D-6DC8-4BE4-BEC8-2F5AB93B127B";
layerId = "E7B6A143-98E7-4225-BEEE-6A11DA06D2F5";
name = "Apr 12 18, 15:42";
shapes = (
{
closed = 1;
nodes = (
(643,670,l),
(447,670,l),
(447,303,l),
(241,670,l),
(48,669,l),
(48,-1,l),
(244,0,l),
(244,345,l),
(441,0,l),
(643,0,l)
);
}
);
width = 691;
},
{
associatedMasterId = "061FC23D-6DC8-4BE4-BEC8-2F5AB93B127B";
layerId = "9B59FCE6-2FE3-4DD0-AD49-BB2235799667";
name = "Aug 5 18, 15:31";
shapes = (
{
closed = 1;
nodes = (
(224,0,l),
(224,415,l),
(411,0,l),
(643,0,l),
(643,670,l),
(467,670,l),
(467,233,l),
(271,670,l),
(48,670,l),
(48,0,l)
);
}
);
width = 691;
},
{
associatedMasterId = "061FC23D-6DC8-4BE4-BEC8-2F5AB93B127B";
layerId = "221690F5-B956-4975-92E0-5E7F56CA476C";
name = "Sep 1 18, 21:36";
shapes = (
{
closed = 1;
nodes = (
(224,0,l),
(224,415,l),
(411,0,l),
(643,0,l),
(643,670,l),
(467,670,l),
(467,233,l),
(271,670,l),
(48,670,l),
(48,0,l)
);
}
);
width = 691;
},
{
associatedMasterId = "FBD32BA2-3DE3-41DC-83E1-8A694E18FAAC";
layerId = "3CA27F41-E3D5-4350-9F30-3381F56209C0";
name = "May 8 19, 15:22";
shapes = (
{
closed = 1;
nodes = (
(239,670,l),
(48,670,l),
(48,0,l),
(239,0,l),
(239,357,l),
(452,0,l),
(643,0,l),
(643,670,l),
(452,670,l),
(452,278,l)
);
}
);
width = 691;
}
);
metricLeft = H;
metricRight = H;
unicode = 78;
},
{
color = 1;
glyphname = O;
kernLeft = upRounded;
kernRight = upRounded;
lastChange = "2019-07-03 22:39:08 +0000";
layers = (
{
anchors = (
{
name = top;
pos = (386,686);
}
);
layerId = "FBD32BA2-3DE3-41DC-83E1-8A694E18FAAC";
shapes = (
{
closed = 1;
nodes = (
(597,-16,o),
(753,129,o),
(753,336,cs),
(753,541,o),
(597,686,o),
(386,686,cs),
(175,686,o),
(20,541,o),
(20,336,cs),
(20,129,o),
(175,-16,o),
(386,-16,cs)
);
},
{
closed = 1;
nodes = (
(286,150,o),
(216,225,o),
(216,336,cs),
(216,445,o),
(286,518,o),
(386,518,cs),
(486,518,o),
(557,444,o),
(557,336,cs),
(557,225,o),
(486,150,o),
(386,150,cs)
);
}
);
width = 773;
},
{
associatedMasterId = "FBD32BA2-3DE3-41DC-83E1-8A694E18FAAC";
layerId = "4E792A1B-E7EB-4548-A914-84C83F06F3CB";
name = "Apr 27 18, 23:33";
shapes = (
{
closed = 1;
nodes = (
(465,-16,o),
(613,73,o),
(613,310,cs),
(613,362,ls),
(613,599,o),
(465,686,o),
(320,686,cs),
(174,686,o),
(26,599,o),
(26,362,cs),
(26,310,ls),
(26,73,o),
(174,-16,o),
(320,-16,cs)
);
},
{
closed = 1;
nodes = (
(269,140,o),
(222,171,o),
(222,261,cs),
(222,409,ls),
(222,499,o),
(269,530,o),
(320,530,cs),
(370,530,o),
(417,499,o),
(417,409,cs),
(417,261,ls),
(417,171,o),
(370,140,o),
(320,140,cs)
);
}
);
width = 639;
},
{
associatedMasterId = "FBD32BA2-3DE3-41DC-83E1-8A694E18FAAC";
layerId = "A6592EB4-D643-49C2-88F8-B3E3789B8749";
name = "Aug 5 18, 12:45";
shapes = (
{
closed = 1;
nodes = (
(465,-16,o),
(613,73,o),
(613,310,cs),
(613,362,ls),
(613,599,o),
(465,686,o),
(320,686,cs),
(174,686,o),
(26,599,o),
(26,362,cs),
(26,310,ls),
(26,73,o),
(174,-16,o),
(320,-16,cs)
);
},
{
closed = 1;
nodes = (
(313,144,ls),
(260,144,o),
(222,181,o),
(222,261,cs),
(222,409,ls),
(222,499,o),
(269,526,o),
(313,526,cs),
(332,526,ls),
(381,526,o),
(417,488,o),
(417,409,cs),
(417,261,ls),
(417,171,o),
(370,144,o),
(329,144,cs)
);
}
);
width = 639;
},
{
anchors = (
{
name = top;
pos = (390,686);
}
);
layerId = "061FC23D-6DC8-4BE4-BEC8-2F5AB93B127B";
shapes = (
{
closed = 1;
nodes = (
(601,-16,o),
(757,130,o),
(757,336,cs),
(757,542,o),
(601,686,o),
(390,686,cs),
(179,686,o),
(24,542,o),
(24,336,cs),
(24,130,o),
(179,-16,o),
(390,-16,cs)
);
},
{
closed = 1;
nodes = (
(208,24,o),
(66,147,o),
(66,336,cs),
(66,525,o),
(208,648,o),
(389,648,cs),
(571,648,o),
(715,523,o),
(715,335,cs),
(715,146,o),
(571,24,o),
(390,24,cs)
);
}
);
width = 781;
},
{
associatedMasterId = "061FC23D-6DC8-4BE4-BEC8-2F5AB93B127B";
layerId = "6F4E738C-0595-404C-95F4-86172A687B2F";
name = "Apr 27 18, 23:33";
shapes = (
{
closed = 1;
nodes = (
(465,-16,o),
(613,73,o),
(613,310,cs),
(613,362,ls),
(613,599,o),
(465,686,o),
(320,686,cs),
(174,686,o),
(26,599,o),
(26,362,cs),
(26,310,ls),
(26,73,o),
(174,-16,o),
(320,-16,cs)
);
},
{
closed = 1;
nodes = (
(269,140,o),
(222,171,o),
(222,261,cs),
(222,409,ls),
(222,499,o),
(269,530,o),
(320,530,cs),
(370,530,o),
(417,499,o),
(417,409,cs),
(417,261,ls),
(417,171,o),
(370,140,o),
(320,140,cs)
);
}
);
width = 639;
},
{
associatedMasterId = "061FC23D-6DC8-4BE4-BEC8-2F5AB93B127B";
layerId = "74DC61E4-F4C9-4F62-AAAE-9C408C4D8703";
name = "Aug 5 18, 12:45";
shapes = (
{
closed = 1;
nodes = (
(465,-16,o),
(613,73,o),
(613,310,cs),
(613,362,ls),
(613,599,o),
(465,686,o),
(320,686,cs),
(174,686,o),
(26,599,o),
(26,362,cs),
(26,310,ls),
(26,73,o),
(174,-16,o),
(320,-16,cs)
);
},
{
closed = 1;
nodes = (
(313,144,ls),
(260,144,o),
(222,181,o),
(222,261,cs),
(222,409,ls),
(222,499,o),
(269,526,o),
(313,526,cs),
(332,526,ls),
(381,526,o),
(417,488,o),
(417,409,cs),
(417,261,ls),
(417,171,o),
(370,144,o),
(329,144,cs)
);
}
);
width = 639;
}
);
unicode = 79;
},
{
color = 2;
glyphname = P;
kernRight = upRounded;
lastChange = "2019-07-03 22:39:14 +0000";
layers = (
{
layerId = "FBD32BA2-3DE3-41DC-83E1-8A694E18FAAC";
shapes = (
{
closed = 1;
nodes = (
(361,159,ls),
(572,159,o),
(647,291,o),
(647,414,cs),
(647,538,o),
(572,670,o),
(341,670,cs),
(137,670,l),
(137,159,l)
);
},
{
closed = 1;
nodes = (
(244,0,l),
(244,670,l),
(48,670,l),
(48,0,l)
);
},
{
closed = 1;
nodes = (
(180,514,l),
(344,514,ls),
(405,514,o),
(451,484,o),
(451,418,cs),
(451,353,o),
(405,315,o),
(344,315,cs),
(180,315,l)
);
}
);
width = 667;
},
{
associatedMasterId = "FBD32BA2-3DE3-41DC-83E1-8A694E18FAAC";
layerId = "5E036F24-C3A1-45D8-B041-479DD726DE53";
name = "Mar 22 18, 13:20";
shapes = (
{
closed = 1;
nodes = (
(337,261,l),
(478,262,o),
(528,363,o),
(528,476,cs),
(528,569,o),
(478,670,o),
(337,671,c),
(123,670,l),
(123,261,l)
);
},
{
closed = 1;
nodes = (
(220,0,l),
(220,670,l),
(44,670,l),
(44,0,l)
);
},
{
closed = 1;
nodes = (
(166,564,l),
(270,564,l),
(324,566,o),
(352,517,o),
(352,472,cs),
(352,418,o),
(327,370,o),
(270,370,c),
(166,370,l)
);
}
);
width = 544;
},
{
associatedMasterId = "FBD32BA2-3DE3-41DC-83E1-8A694E18FAAC";
layerId = "B3047C86-9415-4096-80A4-49858B142D13";
name = "Apr 10 18, 00:29";
shapes = (
{
closed = 1;
nodes = (
(329,203,ls),
(470,203,o),
(520,334,o),
(520,457,cs),
(520,559,o),
(470,670,o),
(329,670,cs),
(115,670,l),
(115,203,l)
);
},
{
closed = 1;
nodes = (
(212,0,l),
(212,670,l),
(36,670,l),
(36,0,l)
);
},
{
closed = 1;
nodes = (
(158,534,l),
(282,534,ls),
(346,534,o),
(349,481,o),
(349,421,cs),
(349,363,o),
(319,303,o),
(252,303,cs),
(158,303,l)
);
}
);
width = 528;
},
{
layerId = "061FC23D-6DC8-4BE4-BEC8-2F5AB93B127B";
shapes = (
{
closed = 1;
nodes = (
(255,219,ls),
(506,219,o),
(562,330,o),
(562,444,cs),
(562,577,o),
(486,670,o),
(255,670,cs),
(58,670,l),
(58,219,l)
);
},
{
closed = 1;
nodes = (
(86,0,l),
(86,670,l),
(46,670,l),
(46,0,l)
);
},
{
closed = 1;
nodes = (
(81,630,l),
(255,630,ls),
(416,630,o),
(518,592,o),
(518,444,cs),
(518,302,o),
(416,259,o),
(255,259,cs),
(81,259,l)
);
}
);
width = 586;
},
{
associatedMasterId = "061FC23D-6DC8-4BE4-BEC8-2F5AB93B127B";
layerId = "8A2B369B-A040-4FBB-8DB1-4C85454BC3C8";
name = "Mar 22 18, 13:20";
shapes = (
{
closed = 1;
nodes = (
(337,261,l),
(478,262,o),
(528,363,o),
(528,476,cs),
(528,569,o),
(478,670,o),
(337,671,c),
(123,670,l),
(123,261,l)
);
},
{
closed = 1;
nodes = (
(220,0,l),
(220,670,l),
(44,670,l),
(44,0,l)
);
},
{
closed = 1;
nodes = (
(166,564,l),
(270,564,l),
(324,566,o),
(352,517,o),
(352,472,cs),
(352,418,o),
(327,370,o),
(270,370,c),
(166,370,l)
);
}
);
width = 544;
},
{
associatedMasterId = "061FC23D-6DC8-4BE4-BEC8-2F5AB93B127B";
layerId = "2E7B5681-3BFA-458A-B442-A1870BF8CA85";
name = "Apr 10 18, 00:29";
shapes = (
{
closed = 1;
nodes = (
(329,203,ls),
(470,203,o),
(520,334,o),
(520,457,cs),
(520,559,o),
(470,670,o),
(329,670,cs),
(115,670,l),
(115,203,l)
);
},
{
closed = 1;
nodes = (
(212,0,l),
(212,670,l),
(36,670,l),
(36,0,l)
);
},
{
closed = 1;
nodes = (
(158,534,l),
(282,534,ls),
(346,534,o),
(349,481,o),
(349,421,cs),
(349,363,o),
(319,303,o),
(252,303,cs),
(158,303,l)
);
}
);
width = 528;
}
);
metricLeft = H;
metricRight = O;
unicode = 80;
},
{
color = 1;
glyphname = Q;
kernLeft = upRounded;
kernRight = upRounded;
lastChange = "2019-07-03 22:39:14 +0000";
layers = (
{
layerId = "FBD32BA2-3DE3-41DC-83E1-8A694E18FAAC";
shapes = (
{
closed = 1;
nodes = (
(589,-16,o),
(737,129,o),
(737,336,cs),
(737,541,o),
(589,686,o),
(378,686,c),
(167,686,o),
(20,541,o),
(20,336,cs),
(20,129,o),
(167,-16,o),
(378,-16,cs)
);
},
{
closed = 1;
nodes = (
(692,-26,l),
(583,141,l),
(433,54,l),
(538,-115,l)
);
},
{
closed = 1;
nodes = (
(278,150,o),
(208,225,o),
(208,336,cs),
(208,445,o),
(278,518,o),
(378,518,cs),
(478,518,o),
(549,444,o),
(549,336,cs),
(549,225,o),
(478,150,o),
(378,150,cs)
);
}
);
width = 757;
},
{
associatedMasterId = "FBD32BA2-3DE3-41DC-83E1-8A694E18FAAC";
layerId = "218E87CE-107C-4266-8BBA-2F50A2534F85";
name = "Aug 5 18, 12:48";
shapes = (
{
closed = 1;
nodes = (
(465,-16,o),
(613,73,o),
(613,310,cs),
(613,362,ls),
(613,599,o),
(465,686,o),
(320,686,cs),
(174,686,o),
(26,599,o),
(26,362,cs),
(26,310,ls),
(26,73,o),
(174,-16,o),
(320,-16,cs)
);
},
{
closed = 1;
nodes = (
(549,-42,l),
(371,258,l),
(280,258,l),
(375,112,l),
(364,97,l),
(448,-42,l)
);
},
{
closed = 1;
nodes = (
(259,140,o),
(222,181,o),
(222,261,cs),
(222,409,ls),
(222,489,o),
(259,530,o),
(320,530,cs),
(380,530,o),
(417,489,o),
(417,409,cs),
(417,261,ls),
(417,181,o),
(380,140,o),
(320,140,cs)
);
}
);
width = 639;
},
{
layerId = "061FC23D-6DC8-4BE4-BEC8-2F5AB93B127B";
shapes = (
{
closed = 1;
nodes = (
(601,-16,o),
(757,130,o),
(757,336,cs),
(757,542,o),
(601,686,o),
(390,686,cs),
(179,686,o),
(24,542,o),
(24,336,cs),
(24,130,o),
(179,-16,o),
(390,-16,cs)
);
},
{
closed = 1;
nodes = (
(721,-67,l),
(611,84,l),
(578,61,l),
(688,-91,l)
);
},
{
closed = 1;
nodes = (
(208,24,o),
(66,147,o),
(66,336,cs),
(66,525,o),
(208,648,o),
(389,648,cs),
(571,648,o),
(715,523,o),
(715,335,cs),
(715,146,o),
(571,24,o),
(390,24,cs)
);
}
);
width = 781;
},
{
associatedMasterId = "061FC23D-6DC8-4BE4-BEC8-2F5AB93B127B";
layerId = "53F17944-C11F-4559-BF34-E89C00DB57F7";
name = "Aug 5 18, 12:48";
shapes = (
{
closed = 1;
nodes = (
(465,-16,o),
(613,73,o),
(613,310,cs),
(613,362,ls),
(613,599,o),
(465,686,o),
(320,686,cs),
(174,686,o),
(26,599,o),
(26,362,cs),
(26,310,ls),
(26,73,o),
(174,-16,o),
(320,-16,cs)
);
},
{
closed = 1;
nodes = (
(549,-42,l),
(371,258,l),
(280,258,l),
(375,112,l),
(364,97,l),
(448,-42,l)
);
},
{
closed = 1;
nodes = (
(259,140,o),
(222,181,o),
(222,261,cs),
(222,409,ls),
(222,489,o),
(259,530,o),
(320,530,cs),
(380,530,o),
(417,489,o),
(417,409,cs),
(417,261,ls),
(417,181,o),
(380,140,o),
(320,140,cs)
);
}
);
width = 639;
}
);
metricLeft = O;
metricRight = O;
unicode = 81;
},
{
color = 2;
glyphname = R;
lastChange = "2019-07-06 20:42:15 +0000";
layers = (
{
annotations = (
{
pos = (419,74);
text = "Leg is short. Add more to right";
type = Text;
}
);
layerId = "FBD32BA2-3DE3-41DC-83E1-8A694E18FAAC";
shapes = (
{
closed = 1;
nodes = (
(244,0,l),
(244,268,l),
(351,262,o),
(406,206,o),
(424,103,cs),
(433,51,ls),
(439,16,o),
(460,0,o),
(497,0,cs),
(663,0,l),
(638,98,ls),
(610,206,o),
(580,265,o),
(419,303,c),
(419,308,l),
(592,309,o),
(642,408,o),
(642,489,cs),
(642,578,o),
(582,670,o),
(421,670,cs),
(48,670,l),
(48,0,l)
);
},
{
closed = 1;
nodes = (
(244,514,l),
(381,514,ls),
(425,514,o),
(447,479,o),
(447,449,cs),
(447,418,o),
(425,384,o),
(381,384,cs),
(244,384,l)
);
}
);
width = 683;
},
{
associatedMasterId = "FBD32BA2-3DE3-41DC-83E1-8A694E18FAAC";
layerId = "DDF745C1-FF60-4CEA-9E31-F37F84919818";
name = "Mar 22 18, 10:37";
shapes = (
{
closed = 1;
nodes = (
(585,0,l),
(379,354,l),
(193,317,l),
(234,317,l),
(399,0,l)
);
},
{
closed = 1;
nodes = (
(234,0,l),
(234,670,l),
(58,670,l),
(58,0,l)
);
},
{
closed = 1;
nodes = (
(180,559,l),
(284,559,l),
(340,559,o),
(366,527,o),
(366,497,cs),
(366,461,o),
(340,429,o),
(284,429,c),
(180,428,l)
);
},
{
closed = 1;
nodes = (
(351,317,l),
(492,318,o),
(542,405,o),
(542,503,cs),
(542,583,o),
(492,670,o),
(351,671,c),
(137,670,l),
(137,317,l)
);
}
);
width = 575;
},
{
associatedMasterId = "FBD32BA2-3DE3-41DC-83E1-8A694E18FAAC";
layerId = "532F121A-C006-493E-B1C5-78D014B66867";
name = "Apr 10 18, 00:33";
shapes = (
{
closed = 1;
nodes = (
(329,261,l),
(470,262,o),
(520,363,o),
(520,476,cs),
(520,569,o),
(470,670,o),
(329,670,cs),
(115,670,l),
(115,261,l)
);
},
{
closed = 1;
nodes = (
(212,0,l),
(212,670,l),
(36,670,l),
(36,0,l)
);
},
{
closed = 1;
nodes = (
(563,0,l),
(382,303,l),
(212,317,l),
(377,0,l)
);
},
{
closed = 1;
nodes = (
(158,534,l),
(269,534,ls),
(319,534,o),
(344,485,o),
(344,441,cs),
(344,387,o),
(332,341,o),
(282,341,cs),
(158,341,l)
);
}
);
width = 545;
},
{
associatedMasterId = "FBD32BA2-3DE3-41DC-83E1-8A694E18FAAC";
layerId = "5F875250-C036-4B3C-9F2E-17973F446701";
name = "Apr 10 18, 00:45";
shapes = (
{
closed = 1;
nodes = (
(329,261,l),
(470,262,o),
(520,363,o),
(520,476,cs),
(520,569,o),
(470,670,o),
(329,670,cs),
(115,670,l),
(115,261,l)
);
},
{
closed = 1;
nodes = (
(212,0,l),
(212,670,l),
(36,670,l),
(36,0,l)
);
},
{
closed = 1;
nodes = (
(538,0,l),
(357,303,l),
(187,317,l),
(352,0,l)
);
},
{
closed = 1;
nodes = (
(158,534,l),
(262,534,ls),
(322,534,o),
(344,500,o),
(344,444,cs),
(344,387,o),
(322,350,o),
(262,350,cs),
(158,350,l)
);
}
);
width = 545;
},
{
associatedMasterId = "FBD32BA2-3DE3-41DC-83E1-8A694E18FAAC";
layerId = "2C408EFB-6C15-40FE-9281-9972B04FE1C9";
name = "Sep 3 18, 22:29";
shapes = (
{
closed = 1;
nodes = (
(341,238,l),
(482,239,o),
(542,337,o),
(542,446,cs),
(542,554,o),
(482,670,o),
(321,670,cs),
(127,670,l),
(127,238,l)
);
},
{
closed = 1;
nodes = (
(234,0,l),
(234,670,l),
(48,670,l),
(48,0,l)
);
},
{
closed = 1;
nodes = (
(582,0,l),
(381,303,l),
(195,317,l),
(366,0,l)
);
},
{
closed = 1;
nodes = (
(170,534,l),
(274,534,ls),
(324,534,o),
(356,500,o),
(356,444,cs),
(356,387,o),
(324,350,o),
(274,350,cs),
(170,350,l)
);
}
);
width = 569;
},
{
associatedMasterId = "FBD32BA2-3DE3-41DC-83E1-8A694E18FAAC";
layerId = "407C6782-7938-41E5-B3C8-C36FF2416730";
name = "Sep 3 18, 22:30";
shapes = (
{
closed = 1;
nodes = (
(341,238,l),
(482,239,o),
(542,337,o),
(542,446,cs),
(542,554,o),
(482,670,o),
(321,670,cs),
(127,670,l),
(127,238,l)
);
},
{
closed = 1;
nodes = (
(234,0,l),
(234,670,l),
(48,670,l),
(48,0,l)
);
},
{
closed = 1;
nodes = (
(170,534,l),
(274,534,ls),
(324,534,o),
(356,500,o),
(356,444,cs),
(356,387,o),
(324,350,o),
(274,350,cs),
(170,350,l)
);
},
{
closed = 1;
nodes = (
(284,337,l),
(234,337,l),
(234,235,l),
(304,235,o),
(326,225,o),
(330,145,cs),
(333,78,o),
(330,13,o),
(360,0,c),
(570,0,l),
(571,17,l),
(539,30,o),
(524,74,o),
(527,136,cs),
(530,197,o),
(514,290,o),
(326,291,c),
(326,297,l)
);
}
);
width = 569;
},
{
associatedMasterId = "FBD32BA2-3DE3-41DC-83E1-8A694E18FAAC";
layerId = "28840C45-B6A7-4278-8E3A-5FCCB7A27702";
name = "Sep 3 18, 22:41";
shapes = (
{
closed = 1;
nodes = (
(234,0,l),
(234,235,l),
(305,235,o),
(326,224,o),
(330,145,cs),
(333,85,o),
(329,13,o),
(360,0,c),
(590,0,l),
(591,17,l),
(549,37,o),
(548,78,o),
(547,136,cs),
(546,185,o),
(505,283,o),
(385,292,c),
(385,297,l),
(505,304,o),
(542,381,o),
(542,458,cs),
(542,557,o),
(482,670,o),
(321,670,cs),
(48,670,l),
(48,0,l)
);
},
{
closed = 1;
nodes = (
(234,534,l),
(274,534,ls),
(324,534,o),
(356,500,o),
(356,444,cs),
(356,387,o),
(324,350,o),
(274,350,cs),
(234,350,l)
);
}
);
width = 587;
},
{
associatedMasterId = "FBD32BA2-3DE3-41DC-83E1-8A694E18FAAC";
layerId = "219D5CCA-AE16-4798-9FB1-66AE40167B11";
name = "Sep 3 18, 22:54";
shapes = (
{
closed = 1;
nodes = (
(234,0,l),
(234,284,l),
(266,284,ls),
(305,284,o),
(329,268,o),
(329,226,cs),
(329,0,l),
(535,0,l),
(536,17,l),
(522,30,o),
(516,64,o),
(516,146,cs),
(516,201,o),
(505,324,o),
(385,332,c),
(385,337,l),
(485,345,o),
(542,412,o),
(542,500,cs),
(542,590,o),
(482,670,o),
(321,670,cs),
(48,670,l),
(48,0,l)
);
},
{
closed = 1;
nodes = (
(234,534,l),
(274,534,ls),
(334,534,o),
(356,509,o),
(356,468,cs),
(356,427,o),
(334,399,o),
(274,399,cs),
(234,399,l)
);
}
);
width = 538;
},
{
associatedMasterId = "FBD32BA2-3DE3-41DC-83E1-8A694E18FAAC";
layerId = "CD6D3500-0FDC-4C78-B9C0-1D5717ED7AF9";
name = "Sep 3 18, 23:01";
shapes = (
{
closed = 1;
nodes = (
(294,279,o),
(324,210,o),
(344,103,cs),
(353,51,ls),
(359,16,o),
(380,0,o),
(417,0,cs),
(569,0,l),
(544,98,ls),
(504,255,o),
(423,310,o),
(362,309,c),
(226,279,l)
);
},
{
closed = 1;
nodes = (
(341,279,l),
(482,280,o),
(542,368,o),
(542,467,cs),
(542,565,o),
(482,670,o),
(321,670,cs),
(127,670,l),
(127,279,l)
);
},
{
closed = 1;
nodes = (
(234,0,l),
(234,670,l),
(48,670,l),
(48,0,l)
);
},
{
closed = 1;
nodes = (
(170,547,l),
(274,547,ls),
(324,547,o),
(356,516,o),
(356,465,cs),
(356,414,o),
(324,380,o),
(274,380,cs),
(170,380,l)
);
}
);
width = 565;
},
{
associatedMasterId = "FBD32BA2-3DE3-41DC-83E1-8A694E18FAAC";
layerId = "2F8C6C2B-613A-44AC-9545-B4F46E1E061D";
name = "Oct 21 18, 19:03";
shapes = (
{
closed = 1;
nodes = (
(234,0,l),
(234,279,l),
(326,273,o),
(356,206,o),
(374,103,cs),
(383,51,ls),
(389,16,o),
(410,0,o),
(447,0,cs),
(599,0,l),
(574,98,ls),
(546,206,o),
(520,285,o),
(379,323,c),
(379,328,l),
(522,329,o),
(572,410,o),
(572,491,cs),
(572,580,o),
(512,670,o),
(351,670,cs),
(48,670,l),
(48,0,l)
);
},
{
closed = 1;
nodes = (
(304,547,ls),
(354,547,o),
(386,516,o),
(386,465,cs),
(386,414,o),
(354,380,o),
(304,380,cs),
(234,380,l),
(234,547,l)
);
}
);
width = 595;
},
{
associatedMasterId = "FBD32BA2-3DE3-41DC-83E1-8A694E18FAAC";
layerId = "F5BB32EE-DEB1-4AD2-AC16-5D4CB8A9D509";
name = "Nov 6 18, 22:24";
shapes = (
{
closed = 1;
nodes = (
(234,0,l),
(234,279,l),
(326,273,o),
(356,206,o),
(374,103,cs),
(383,51,ls),
(389,16,o),
(410,0,o),
(447,0,cs),
(599,0,l),
(574,98,ls),
(546,206,o),
(520,285,o),
(379,323,c),
(379,328,l),
(522,329,o),
(572,410,o),
(572,491,cs),
(572,580,o),
(512,670,o),
(351,670,cs),
(48,670,l),
(48,0,l)
);
},
{
closed = 1;
nodes = (
(295,535,ls),
(339,535,o),
(367,511,o),
(367,474,cs),
(367,436,o),
(339,410,o),
(295,410,cs),
(234,410,l),
(234,535,l)
);
}
);
width = 603;
},
{
layerId = "061FC23D-6DC8-4BE4-BEC8-2F5AB93B127B";
shapes = (
{
closed = 1;
nodes = (
(88,0,l),
(88,288,l),
(325,288,o),
(398,193,o),
(443,123,cs),
(485,58,ls),
(507,24,o),
(521,0,o),
(564,0,cs),
(571,0,l),
(487,141,ls),
(448,207,o),
(376,286,o),
(235,306,c),
(235,310,l),
(430,306,o),
(560,340,o),
(560,490,cs),
(560,610,o),
(476,670,o),
(285,670,cs),
(46,670,l),
(46,0,l)
);
},
{
closed = 1;
nodes = (
(88,630,l),
(285,630,ls),
(422,630,o),
(520,604,o),
(520,490,cs),
(520,376,o),
(421,339,o),
(285,339,cs),
(88,339,l)
);
}
);
width = 595;
},
{
associatedMasterId = "061FC23D-6DC8-4BE4-BEC8-2F5AB93B127B";
layerId = "94834046-0FF1-4BC7-A97C-BC866B3F63C9";
name = "Mar 22 18, 10:37";
shapes = (
{
closed = 1;
nodes = (
(585,0,l),
(379,354,l),
(193,317,l),
(234,317,l),
(399,0,l)
);
},
{
closed = 1;
nodes = (
(234,0,l),
(234,670,l),
(58,670,l),
(58,0,l)
);
},
{
closed = 1;
nodes = (
(180,559,l),
(284,559,l),
(340,559,o),
(366,527,o),
(366,497,cs),
(366,461,o),
(340,429,o),
(284,429,c),
(180,428,l)
);
},
{
closed = 1;
nodes = (
(351,317,l),
(492,318,o),
(542,405,o),
(542,503,cs),
(542,583,o),
(492,670,o),
(351,671,c),
(137,670,l),
(137,317,l)
);
}
);
width = 575;
},
{
associatedMasterId = "061FC23D-6DC8-4BE4-BEC8-2F5AB93B127B";
layerId = "1B7DB759-5CBA-40CD-9E49-0C3A81E38B5C";
name = "Apr 10 18, 00:33";
shapes = (
{
closed = 1;
nodes = (
(329,261,l),
(470,262,o),
(520,363,o),
(520,476,cs),
(520,569,o),
(470,670,o),
(329,670,cs),
(115,670,l),
(115,261,l)
);
},
{
closed = 1;
nodes = (
(212,0,l),
(212,670,l),
(36,670,l),
(36,0,l)
);
},
{
closed = 1;
nodes = (
(563,0,l),
(382,303,l),
(212,317,l),
(377,0,l)
);
},
{
closed = 1;
nodes = (
(158,534,l),
(269,534,ls),
(319,534,o),
(344,485,o),
(344,441,cs),
(344,387,o),
(332,341,o),
(282,341,cs),
(158,341,l)
);
}
);
width = 545;
},
{
associatedMasterId = "061FC23D-6DC8-4BE4-BEC8-2F5AB93B127B";
layerId = "62F82220-3CF1-410E-8CDF-85265B7D1A1C";
name = "Apr 10 18, 00:45";
shapes = (
{
closed = 1;
nodes = (
(329,261,l),
(470,262,o),
(520,363,o),
(520,476,cs),
(520,569,o),
(470,670,o),
(329,670,cs),
(115,670,l),
(115,261,l)
);
},
{
closed = 1;
nodes = (
(212,0,l),
(212,670,l),
(36,670,l),
(36,0,l)
);
},
{
closed = 1;
nodes = (
(538,0,l),
(357,303,l),
(187,317,l),
(352,0,l)
);
},
{
closed = 1;
nodes = (
(158,534,l),
(262,534,ls),
(322,534,o),
(344,500,o),
(344,444,cs),
(344,387,o),
(322,350,o),
(262,350,cs),
(158,350,l)
);
}
);
width = 545;
},
{
associatedMasterId = "061FC23D-6DC8-4BE4-BEC8-2F5AB93B127B";
layerId = "18B08313-B661-4016-ABB4-8608F14956CA";
name = "Sep 3 18, 22:29";
shapes = (
{
closed = 1;
nodes = (
(341,238,l),
(482,239,o),
(542,337,o),
(542,446,cs),
(542,554,o),
(482,670,o),
(321,670,cs),
(127,670,l),
(127,238,l)
);
},
{
closed = 1;
nodes = (
(234,0,l),
(234,670,l),
(48,670,l),
(48,0,l)
);
},
{
closed = 1;
nodes = (
(582,0,l),
(381,303,l),
(195,317,l),
(366,0,l)
);
},
{
closed = 1;
nodes = (
(170,534,l),
(274,534,ls),
(324,534,o),
(356,500,o),
(356,444,cs),
(356,387,o),
(324,350,o),
(274,350,cs),
(170,350,l)
);
}
);
width = 569;
},
{
associatedMasterId = "061FC23D-6DC8-4BE4-BEC8-2F5AB93B127B";
layerId = "FDB2DDE2-6125-4B7A-83DE-BCC8FEBFDB37";
name = "Sep 3 18, 22:30";
shapes = (
{
closed = 1;
nodes = (
(341,238,l),
(482,239,o),
(542,337,o),
(542,446,cs),
(542,554,o),
(482,670,o),
(321,670,cs),
(127,670,l),
(127,238,l)
);
},
{
closed = 1;
nodes = (
(234,0,l),
(234,670,l),
(48,670,l),
(48,0,l)
);
},
{
closed = 1;
nodes = (
(170,534,l),
(274,534,ls),
(324,534,o),
(356,500,o),
(356,444,cs),
(356,387,o),
(324,350,o),
(274,350,cs),
(170,350,l)
);
},
{
closed = 1;
nodes = (
(284,337,l),
(234,337,l),
(234,235,l),
(304,235,o),
(326,225,o),
(330,145,cs),
(333,78,o),
(330,13,o),
(360,0,c),
(570,0,l),
(571,17,l),
(539,30,o),
(524,74,o),
(527,136,cs),
(530,197,o),
(514,290,o),
(326,291,c),
(326,297,l)
);
}
);
width = 569;
},
{
associatedMasterId = "061FC23D-6DC8-4BE4-BEC8-2F5AB93B127B";
layerId = "C201EE7C-4EF7-496D-9824-A5D0D4534CEB";
name = "Sep 3 18, 22:41";
shapes = (
{
closed = 1;
nodes = (
(234,0,l),
(234,235,l),
(305,235,o),
(326,224,o),
(330,145,cs),
(333,85,o),
(329,13,o),
(360,0,c),
(590,0,l),
(591,17,l),
(549,37,o),
(548,78,o),
(547,136,cs),
(546,185,o),
(505,283,o),
(385,292,c),
(385,297,l),
(505,304,o),
(542,381,o),
(542,458,cs),
(542,557,o),
(482,670,o),
(321,670,cs),
(48,670,l),
(48,0,l)
);
},
{
closed = 1;
nodes = (
(234,534,l),
(274,534,ls),
(324,534,o),
(356,500,o),
(356,444,cs),
(356,387,o),
(324,350,o),
(274,350,cs),
(234,350,l)
);
}
);
width = 587;
},
{
associatedMasterId = "061FC23D-6DC8-4BE4-BEC8-2F5AB93B127B";
layerId = "AD8948BB-DCBB-421D-9DE6-13E2C02264F8";
name = "Sep 3 18, 22:54";
shapes = (
{
closed = 1;
nodes = (
(234,0,l),
(234,284,l),
(266,284,ls),
(305,284,o),
(329,268,o),
(329,226,cs),
(329,0,l),
(535,0,l),
(536,17,l),
(522,30,o),
(516,64,o),
(516,146,cs),
(516,201,o),
(505,324,o),
(385,332,c),
(385,337,l),
(485,345,o),
(542,412,o),
(542,500,cs),
(542,590,o),
(482,670,o),
(321,670,cs),
(48,670,l),
(48,0,l)
);
},
{
closed = 1;
nodes = (
(234,534,l),
(274,534,ls),
(334,534,o),
(356,509,o),
(356,468,cs),
(356,427,o),
(334,399,o),
(274,399,cs),
(234,399,l)
);
}
);
width = 538;
},
{
associatedMasterId = "061FC23D-6DC8-4BE4-BEC8-2F5AB93B127B";
layerId = "63A75374-115D-421E-BA01-9E8B3C23E4BB";
name = "Sep 3 18, 23:01";
shapes = (
{
closed = 1;
nodes = (
(294,279,o),
(324,210,o),
(344,103,cs),
(353,51,ls),
(359,16,o),
(380,0,o),
(417,0,cs),
(569,0,l),
(544,98,ls),
(504,255,o),
(423,310,o),
(362,309,c),
(226,279,l)
);
},
{
closed = 1;
nodes = (
(341,279,l),
(482,280,o),
(542,368,o),
(542,467,cs),
(542,565,o),
(482,670,o),
(321,670,cs),
(127,670,l),
(127,279,l)
);
},
{
closed = 1;
nodes = (
(234,0,l),
(234,670,l),
(48,670,l),
(48,0,l)
);
},
{
closed = 1;
nodes = (
(170,547,l),
(274,547,ls),
(324,547,o),
(356,516,o),
(356,465,cs),
(356,414,o),
(324,380,o),
(274,380,cs),
(170,380,l)
);
}
);
width = 565;
},
{
associatedMasterId = "061FC23D-6DC8-4BE4-BEC8-2F5AB93B127B";
layerId = "E1EC4AD9-2810-4B60-81C3-FC0C2DABB991";
name = "Oct 21 18, 19:03";
shapes = (
{
closed = 1;
nodes = (
(234,0,l),
(234,279,l),
(326,273,o),
(356,206,o),
(374,103,cs),
(383,51,ls),
(389,16,o),
(410,0,o),
(447,0,cs),
(599,0,l),
(574,98,ls),
(546,206,o),
(520,285,o),
(379,323,c),
(379,328,l),
(522,329,o),
(572,410,o),
(572,491,cs),
(572,580,o),
(512,670,o),
(351,670,cs),
(48,670,l),
(48,0,l)
);
},
{
closed = 1;
nodes = (
(304,547,ls),
(354,547,o),
(386,516,o),
(386,465,cs),
(386,414,o),
(354,380,o),
(304,380,cs),
(234,380,l),
(234,547,l)
);
}
);
width = 595;
},
{
associatedMasterId = "061FC23D-6DC8-4BE4-BEC8-2F5AB93B127B";
layerId = "1AA5F6E2-DF4B-495D-86D2-D5C3C94106FB";
name = "Nov 6 18, 22:24";
shapes = (
{
closed = 1;
nodes = (
(234,0,l),
(234,279,l),
(326,273,o),
(356,206,o),
(374,103,cs),
(383,51,ls),
(389,16,o),
(410,0,o),
(447,0,cs),
(599,0,l),
(574,98,ls),
(546,206,o),
(520,285,o),
(379,323,c),
(379,328,l),
(522,329,o),
(572,410,o),
(572,491,cs),
(572,580,o),
(512,670,o),
(351,670,cs),
(48,670,l),
(48,0,l)
);
},
{
closed = 1;
nodes = (
(295,535,ls),
(339,535,o),
(367,511,o),
(367,474,cs),
(367,436,o),
(339,410,o),
(295,410,cs),
(234,410,l),
(234,535,l)
);
}
);
width = 603;
},
{
annotations = (
{
pos = (305,647);
text = "Too Thick";
type = Text;
width = 118;
},
{
pos = (285,546);
type = Text;
}
);
associatedMasterId = "061FC23D-6DC8-4BE4-BEC8-2F5AB93B127B";
layerId = "FC4A563C-12EE-403C-880D-F5F35CF77FAD";
name = "Feb 3 19, 21:46";
shapes = (
{
closed = 1;
nodes = (
(496,-1,l),
(381,175,ls),
(318,271,o),
(236,286,o),
(168,300,c),
(168,305,l),
(366,301,o),
(467,345,o),
(467,475,cs),
(467,605,o),
(376,670,o),
(168,670,cs),
(48,670,l),
(48,0,l),
(90,0,l),
(90,287,l),
(207,284,o),
(277,238,o),
(328,157,cs),
(397,47,ls),
(420,11,o),
(464,-1,o),
(489,-1,cs)
);
},
{
closed = 1;
nodes = (
(90,632,l),
(168,632,ls),
(296,632,o),
(427,620,o),
(427,475,cs),
(427,330,o),
(286,329,o),
(168,329,cs),
(90,329,l)
);
}
);
width = 500;
},
{
associatedMasterId = "FBD32BA2-3DE3-41DC-83E1-8A694E18FAAC";
layerId = "47594B02-EFB6-46FE-A9D5-90733CD716C9";
name = "Jul 4 19, 00:22";
shapes = (
{
closed = 1;
nodes = (
(244,0,l),
(244,228,l),
(331,222,o),
(356,206,o),
(374,103,cs),
(383,51,ls),
(389,16,o),
(410,0,o),
(447,0,cs),
(613,0,l),
(588,98,ls),
(560,206,o),
(520,265,o),
(359,303,c),
(359,308,l),
(532,309,o),
(582,408,o),
(582,489,cs),
(582,578,o),
(522,670,o),
(361,670,cs),
(48,670,l),
(48,0,l)
);
},
{
closed = 1;
nodes = (
(244,514,l),
(321,514,ls),
(365,514,o),
(387,479,o),
(387,449,cs),
(387,418,o),
(365,384,o),
(321,384,cs),
(244,384,l)
);
}
);
width = 617;
},
{
associatedMasterId = "061FC23D-6DC8-4BE4-BEC8-2F5AB93B127B";
layerId = "283A084F-27D5-4C7E-9723-F6A58685F316";
name = "Jul 4 19, 00:23";
shapes = (
{
closed = 1;
nodes = (
(88,0,l),
(88,288,l),
(265,288,o),
(341,188,o),
(393,123,cs),
(445,58,ls),
(470,26,o),
(501,0,o),
(544,0,cs),
(551,0,l),
(437,141,ls),
(388,201,o),
(316,288,o),
(185,308,c),
(185,312,l),
(397,308,o),
(500,355,o),
(500,490,cs),
(500,625,o),
(397,670,o),
(186,670,cs),
(46,670,l),
(46,0,l)
);
},
{
closed = 1;
nodes = (
(88,630,l),
(186,630,ls),
(373,630,o),
(460,604,o),
(460,490,cs),
(460,376,o),
(373,339,o),
(186,339,cs),
(88,339,l)
);
}
);
width = 555;
},
{
annotations = (
{
pos = (419,74);
text = "Leg is short. Add more to right";
type = Text;
}
);
associatedMasterId = "FBD32BA2-3DE3-41DC-83E1-8A694E18FAAC";
layerId = "5BE04D46-DC61-42CC-97EA-BE23A521AD21";
name = "Jul 4 19, 11:02";
shapes = (
{
closed = 1;
nodes = (
(244,0,l),
(244,228,l),
(351,222,o),
(376,206,o),
(394,103,cs),
(403,51,ls),
(409,16,o),
(430,0,o),
(467,0,cs),
(633,0,l),
(608,98,ls),
(580,206,o),
(580,265,o),
(419,303,c),
(419,308,l),
(592,309,o),
(642,408,o),
(642,489,cs),
(642,578,o),
(582,670,o),
(421,670,cs),
(48,670,l),
(48,0,l)
);
},
{
closed = 1;
nodes = (
(244,514,l),
(381,514,ls),
(425,514,o),
(447,479,o),
(447,449,cs),
(447,418,o),
(425,384,o),
(381,384,cs),
(244,384,l)
);
}
);
width = 646;
}
);
metricLeft = H;
metricRight = O;
unicode = 82;
},
{
glyphname = S;
lastChange = "2019-07-03 22:39:14 +0000";
layers = (
{
layerId = "FBD32BA2-3DE3-41DC-83E1-8A694E18FAAC";
shapes = (
{
closed = 1;
nodes = (
(486,-16,o),
(623,52,o),
(623,186,cs),
(623,292,o),
(542,345,o),
(402,395,cs),
(324,423,ls),
(288,436,o),
(247,457,o),
(247,497,cs),
(247,534,o),
(282,552,o),
(320,552,cs),
(368,552,o),
(398,523,o),
(398,490,cs),
(398,479,o),
(395,467,o),
(393,460,c),
(607,460,l),
(609,474,o),
(611,491,o),
(611,509,cs),
(611,636,o),
(467,686,o),
(322,686,cs),
(162,686,o),
(35,627,o),
(35,498,cs),
(35,383,o),
(129,327,o),
(266,282,cs),
(342,257,ls),
(375,246,o),
(406,226,o),
(406,190,cs),
(406,153,o),
(373,129,o),
(324,129,cs),
(275,129,o),
(236,152,o),
(236,206,cs),
(236,216,o),
(237,225,o),
(239,233,c),
(24,233,l),
(22,222,o),
(20,202,o),
(20,189,cs),
(20,35,o),
(179,-16,o),
(322,-16,cs)
);
}
);
width = 643;
},
{
associatedMasterId = "FBD32BA2-3DE3-41DC-83E1-8A694E18FAAC";
layerId = "B871D088-CF70-4918-9D4D-14173B5A02F8";
name = "Mar 22 18, 14:27";
shapes = (
{
closed = 1;
nodes = (
(16,212,o),
(16,208,o),
(16,199,cs),
(16,52,o),
(135,-16,o),
(275,-16,cs),
(406,-16,o),
(511,43,o),
(511,188,cs),
(511,296,o),
(454,357,o),
(325,385,cs),
(256,400,ls),
(227,406,o),
(187,423,o),
(187,468,cs),
(187,507,o),
(215,532,o),
(258,532,cs),
(311,532,o),
(335,494,o),
(335,449,c),
(500,449,l),
(501,459,o),
(501,463,o),
(501,471,cs),
(501,618,o),
(397,686,o),
(255,686,cs),
(125,686,o),
(17,628,o),
(17,481,cs),
(17,374,o),
(75,314,o),
(204,286,cs),
(272,271,ls),
(302,264,o),
(342,247,o),
(342,202,cs),
(342,163,o),
(312,139,o),
(268,139,cs),
(206,139,o),
(187,183,o),
(187,222,c),
(17,222,l)
);
}
);
width = 527;
},
{
associatedMasterId = "FBD32BA2-3DE3-41DC-83E1-8A694E18FAAC";
layerId = "AF2B480D-87A6-4D51-A4D0-A6C0B5740C04";
name = "Apr 11 18, 09:36";
shapes = (
{
closed = 1;
nodes = (
(25,55,o),
(129,-13,o),
(271,-13,cs),
(401,-13,o),
(509,43,o),
(509,190,cs),
(509,288,o),
(463,343,o),
(354,376,cs),
(264,403,ls),
(234,412,o),
(195,426,o),
(195,468,cs),
(195,507,o),
(223,532,o),
(266,532,cs),
(319,532,o),
(343,494,o),
(343,449,c),
(508,449,l),
(509,459,o),
(509,463,o),
(509,471,cs),
(509,618,o),
(405,686,o),
(263,686,cs),
(133,686,o),
(25,630,o),
(25,483,cs),
(25,385,o),
(71,330,o),
(179,297,cs),
(270,269,ls),
(300,260,o),
(339,246,o),
(339,205,cs),
(339,166,o),
(311,141,o),
(268,141,cs),
(215,141,o),
(191,179,o),
(191,224,c),
(26,224,l),
(25,214,o),
(25,210,o),
(25,202,cs)
);
}
);
width = 545;
},
{
associatedMasterId = "FBD32BA2-3DE3-41DC-83E1-8A694E18FAAC";
layerId = "E268AEEC-1B8A-4B86-BF4E-A9C6E831BDC3";
name = "Apr 12 18, 11:08";
shapes = (
{
closed = 1;
nodes = (
(25,55,o),
(129,-13,o),
(271,-13,cs),
(401,-13,o),
(509,43,o),
(509,190,cs),
(509,288,o),
(465,343,o),
(354,381,cs),
(264,412,ls),
(235,422,o),
(195,438,o),
(195,477,cs),
(195,509,o),
(223,532,o),
(265,532,cs),
(319,532,o),
(343,494,o),
(343,449,c),
(508,449,l),
(509,459,o),
(509,463,o),
(509,471,cs),
(509,618,o),
(405,686,o),
(263,686,cs),
(133,686,o),
(25,630,o),
(25,483,cs),
(25,385,o),
(71,329,o),
(179,292,cs),
(270,261,ls),
(300,251,o),
(339,234,o),
(339,196,cs),
(339,164,o),
(311,141,o),
(269,141,cs),
(215,141,o),
(191,179,o),
(191,224,c),
(26,224,l),
(25,214,o),
(25,210,o),
(25,202,cs)
);
}
);
width = 545;
},
{
associatedMasterId = "FBD32BA2-3DE3-41DC-83E1-8A694E18FAAC";
layerId = "AF6379E2-958B-4778-B8B4-7C562B8BE16F";
name = "Apr 12 18, 14:03";
shapes = (
{
closed = 1;
nodes = (
(26,55,o),
(130,-13,o),
(272,-13,cs),
(402,-13,o),
(510,43,o),
(510,190,cs),
(510,288,o),
(466,343,o),
(355,382,cs),
(266,413,ls),
(243,421,o),
(213,436,o),
(213,472,cs),
(213,502,o),
(235,522,o),
(267,522,cs),
(303,522,o),
(326,496,o),
(326,449,c),
(509,449,l),
(510,459,o),
(510,463,o),
(510,471,cs),
(510,618,o),
(406,686,o),
(264,686,cs),
(134,686,o),
(26,630,o),
(26,483,cs),
(26,385,o),
(72,328,o),
(180,291,cs),
(270,260,ls),
(294,252,o),
(323,236,o),
(323,201,cs),
(323,171,o),
(301,151,o),
(269,151,cs),
(233,151,o),
(210,177,o),
(210,224,c),
(27,224,l),
(26,214,o),
(26,210,o),
(26,202,cs)
);
}
);
width = 536;
},
{
associatedMasterId = "FBD32BA2-3DE3-41DC-83E1-8A694E18FAAC";
layerId = "A5A87F33-42E7-48F1-97F9-5D3D16971A3E";
name = "Apr 22 18, 21:44";
shapes = (
{
closed = 1;
nodes = (
(26,55,o),
(130,-13,o),
(272,-13,cs),
(402,-13,o),
(510,43,o),
(510,190,cs),
(510,288,o),
(466,341,o),
(354,381,cs),
(265,413,ls),
(239,422,o),
(204,438,o),
(204,475,cs),
(204,507,o),
(229,527,o),
(265,527,cs),
(311,527,o),
(335,495,o),
(335,449,c),
(509,449,l),
(510,459,o),
(510,463,o),
(510,471,cs),
(510,618,o),
(406,686,o),
(264,686,cs),
(134,686,o),
(26,630,o),
(26,483,cs),
(26,385,o),
(72,330,o),
(180,292,cs),
(270,260,ls),
(298,250,o),
(331,235,o),
(331,199,cs),
(331,168,o),
(306,146,o),
(269,146,cs),
(224,146,o),
(201,178,o),
(201,224,c),
(27,224,l),
(26,214,o),
(26,210,o),
(26,202,cs)
);
}
);
width = 536;
},
{
associatedMasterId = "FBD32BA2-3DE3-41DC-83E1-8A694E18FAAC";
layerId = "860FE1D4-A172-4A36-83C1-BB50FD450120";
name = "Aug 5 18, 15:01";
shapes = (
{
closed = 1;
nodes = (
(390,-13,o),
(500,43,o),
(500,190,cs),
(500,288,o),
(456,341,o),
(344,381,cs),
(255,413,ls),
(229,422,o),
(194,438,o),
(194,476,cs),
(194,507,o),
(218,527,o),
(258,527,cs),
(300,527,o),
(325,505,o),
(325,459,c),
(500,459,l),
(502,473,o),
(503,489,o),
(503,500,cs),
(503,625,o),
(390,686,o),
(257,686,cs),
(127,686,o),
(16,630,o),
(16,483,cs),
(16,385,o),
(62,330,o),
(170,292,cs),
(260,260,ls),
(288,250,o),
(321,235,o),
(321,199,cs),
(321,168,o),
(296,146,o),
(259,146,cs),
(214,146,o),
(191,178,o),
(191,224,c),
(17,224,l),
(16,214,o),
(16,210,o),
(16,202,cs),
(16,55,o),
(118,-13,o),
(260,-13,cs)
);
}
);
width = 519;
},
{
associatedMasterId = "FBD32BA2-3DE3-41DC-83E1-8A694E18FAAC";
layerId = "B14EA9AD-9773-44D9-B52A-7B02B03C9593";
name = "Aug 5 18, 15:01";
shapes = (
{
closed = 1;
nodes = (
(390,-13,o),
(500,43,o),
(500,190,cs),
(500,288,o),
(456,341,o),
(344,381,cs),
(255,413,ls),
(229,422,o),
(194,438,o),
(194,476,cs),
(194,507,o),
(218,527,o),
(258,527,cs),
(300,527,o),
(325,505,o),
(325,459,c),
(500,459,l),
(502,473,o),
(503,489,o),
(503,500,cs),
(503,625,o),
(390,686,o),
(257,686,cs),
(127,686,o),
(16,630,o),
(16,483,cs),
(16,385,o),
(62,330,o),
(170,292,cs),
(260,260,ls),
(288,250,o),
(321,235,o),
(321,199,cs),
(321,168,o),
(296,146,o),
(259,146,cs),
(214,146,o),
(191,178,o),
(191,224,c),
(17,224,l),
(16,214,o),
(16,210,o),
(16,202,cs),
(16,55,o),
(118,-13,o),
(260,-13,cs)
);
}
);
width = 519;
},
{
associatedMasterId = "FBD32BA2-3DE3-41DC-83E1-8A694E18FAAC";
layerId = "6F62F4D0-030F-4417-BDEC-A2D95209B9A3";
name = "Sep 1 18, 22:00";
shapes = (
{
closed = 1;
nodes = (
(16,212,o),
(16,208,o),
(16,199,cs),
(16,52,o),
(135,-16,o),
(275,-16,cs),
(406,-16,o),
(511,43,o),
(511,188,cs),
(511,296,o),
(454,357,o),
(325,385,cs),
(256,400,ls),
(226,406,o),
(187,423,o),
(187,468,cs),
(187,507,o),
(215,532,o),
(258,532,cs),
(311,532,o),
(335,494,o),
(335,449,c),
(499,449,l),
(500,457,o),
(501,464,o),
(501,483,cs),
(501,619,o),
(397,686,o),
(255,686,cs),
(125,686,o),
(17,628,o),
(17,481,cs),
(17,374,o),
(75,314,o),
(204,286,cs),
(272,271,ls),
(302,264,o),
(342,247,o),
(342,202,cs),
(342,163,o),
(312,139,o),
(268,139,cs),
(206,139,o),
(187,183,o),
(187,222,c),
(17,222,l)
);
}
);
width = 527;
},
{
associatedMasterId = "FBD32BA2-3DE3-41DC-83E1-8A694E18FAAC";
layerId = "C7AB17EF-B056-4004-8F26-2A1CFDF764E3";
name = "Sep 1 18, 22:17";
shapes = (
{
closed = 1;
nodes = (
(16,212,o),
(16,208,o),
(16,199,cs),
(16,52,o),
(135,-16,o),
(275,-16,cs),
(406,-16,o),
(511,43,o),
(511,188,cs),
(511,296,o),
(454,357,o),
(325,385,cs),
(256,400,ls),
(226,406,o),
(187,423,o),
(187,468,cs),
(187,507,o),
(215,532,o),
(258,532,cs),
(311,532,o),
(335,494,o),
(335,449,c),
(499,449,l),
(500,457,o),
(501,464,o),
(501,483,cs),
(501,619,o),
(397,686,o),
(255,686,cs),
(125,686,o),
(17,628,o),
(17,481,cs),
(17,374,o),
(75,314,o),
(204,286,cs),
(272,271,ls),
(302,264,o),
(342,247,o),
(342,202,cs),
(342,163,o),
(312,139,o),
(268,139,cs),
(206,139,o),
(187,183,o),
(187,222,c),
(17,222,l)
);
}
);
width = 527;
},
{
associatedMasterId = "FBD32BA2-3DE3-41DC-83E1-8A694E18FAAC";
backgroundImage = {
imagePath = "../../../Screenshot 2018-10-21 at 18.23.19.png";
};
layerId = "FB1D06CA-5F90-4E5C-AC26-864193E4221E";
name = "Sep 1 18, 22:17";
shapes = (
{
closed = 1;
nodes = (
(353,-16,o),
(454,13,o),
(524,69,o),
(562,151,o),
(562,202,qs),
(562,253,o),
(519,325,o),
(450,374,o),
(363,408,o),
(320,424,qs),
(275,440,o),
(229,474,o),
(229,500,qs),
(229,527,o),
(265,552,o),
(290,552,qs),
(356,552,o),
(356,469,q),
(554,469,l),
(554,508,o),
(527,586,o),
(466,648,o),
(367,686,o),
(294,686,qs),
(243,686,o),
(149,664,o),
(75,618,o),
(30,544,o),
(30,493,qs),
(30,442,o),
(68,373,o),
(132,324,o),
(217,288,o),
(262,269,qs),
(315,249,o),
(363,217,o),
(363,190,qs),
(363,163,o),
(328,132,o),
(298,132,qs),
(260,132,o),
(214,181,o),
(214,227,q),
(16,227,l),
(16,168,o),
(55,77,o),
(126,16,o),
(227,-16,o),
(290,-16,qs)
);
}
);
width = 578;
},
{
associatedMasterId = "FBD32BA2-3DE3-41DC-83E1-8A694E18FAAC";
layerId = "9E2A51E8-72F1-4952-812C-2C0916678D61";
name = "Oct 21 18, 18:22";
shapes = (
{
closed = 1;
nodes = (
(16,212,o),
(16,208,o),
(16,199,cs),
(16,52,o),
(135,-16,o),
(270,-16,cs),
(406,-16,o),
(511,53,o),
(511,194,cs),
(511,306,o),
(449,340,o),
(325,385,cs),
(256,410,ls),
(227,420,o),
(187,436,o),
(187,476,cs),
(187,510,o),
(215,532,o),
(256,532,cs),
(311,532,o),
(335,494,o),
(335,449,c),
(499,449,l),
(500,457,o),
(501,464,o),
(501,483,cs),
(501,619,o),
(397,686,o),
(255,686,cs),
(125,686,o),
(17,628,o),
(17,484,cs),
(17,374,o),
(80,332,o),
(204,286,cs),
(272,261,ls),
(301,250,o),
(342,235,o),
(342,195,cs),
(342,161,o),
(312,139,o),
(268,139,cs),
(206,139,o),
(187,183,o),
(187,222,c),
(17,222,l)
);
}
);
width = 527;
},
{
associatedMasterId = "FBD32BA2-3DE3-41DC-83E1-8A694E18FAAC";
backgroundImage = {
imagePath = "../../../Screenshot 2018-10-21 at 18.23.19.png";
pos = (-20,-49);
scale = (1.1562,1.1562);
};
layerId = "CE04E257-F434-4D2F-98A4-1E5296D8F183";
name = "Oct 21 18, 18:40";
shapes = (
{
closed = 1;
nodes = (
(19,233,l),
(17,222,o),
(16,202,o),
(16,189,cs),
(16,35,o),
(157,-16,o),
(281,-16,cs),
(430,-16,o),
(551,57,o),
(551,201,cs),
(551,307,o),
(479,345,o),
(355,395,cs),
(286,423,ls),
(254,436,o),
(217,457,o),
(217,497,cs),
(217,528,o),
(240,552,o),
(277,552,cs),
(317,552,o),
(343,523,o),
(343,490,cs),
(343,479,o),
(340,467,o),
(338,460,c),
(537,460,l),
(539,474,o),
(541,491,o),
(541,509,cs),
(541,645,o),
(413,686,o),
(284,686,cs),
(142,686,o),
(19,636,o),
(19,498,cs),
(19,380,o),
(112,327,o),
(234,282,cs),
(302,257,ls),
(331,246,o),
(359,226,o),
(359,189,cs),
(359,153,o),
(332,129,o),
(288,129,cs),
(245,129,o),
(216,152,o),
(216,206,cs),
(216,216,o),
(217,225,o),
(219,233,c)
);
}
);
width = 567;
},
{
associatedMasterId = "FBD32BA2-3DE3-41DC-83E1-8A694E18FAAC";
backgroundImage = {
imagePath = "../../../Screenshot 2018-10-21 at 18.23.19.png";
pos = (-20,-49);
scale = (1.1562,1.1562);
};
guides = (
{
angle = 157.9128;
pos = (240,279);
}
);
layerId = "8AE1701B-EEEF-4F38-BE53-6C1C7F2DE7DA";
name = "Nov 4 18, 21:08";
shapes = (
{
closed = 1;
nodes = (
(16,43,o),
(148,-16,o),
(279,-16,cs),
(419,-16,o),
(544,52,o),
(544,190,cs),
(544,296,o),
(470,349,o),
(355,395,cs),
(286,423,ls),
(254,436,o),
(217,457,o),
(217,496,cs),
(217,528,o),
(241,552,o),
(278,552,cs),
(318,552,o),
(343,523,o),
(343,490,cs),
(343,479,o),
(340,467,o),
(338,460,c),
(537,460,l),
(539,474,o),
(541,491,o),
(541,509,cs),
(541,645,o),
(412,686,o),
(281,686,cs),
(141,686,o),
(19,636,o),
(19,498,cs),
(19,392,o),
(90,339,o),
(205,293,cs),
(274,265,ls),
(306,252,o),
(346,231,o),
(346,192,cs),
(346,160,o),
(319,136,o),
(282,136,cs),
(242,136,o),
(213,165,o),
(213,198,cs),
(213,209,o),
(216,221,o),
(218,228,c),
(20,228,l),
(18,214,o),
(16,197,o),
(16,179,cs)
);
}
);
width = 560;
},
{
associatedMasterId = "FBD32BA2-3DE3-41DC-83E1-8A694E18FAAC";
guides = (
{
angle = 157.9128;
pos = (240,279);
}
);
layerId = "1FBCFBE8-7156-4FC9-A833-6D9E4F1144AD";
name = "Nov 4 18, 21:45";
shapes = (
{
closed = 1;
nodes = (
(16,43,o),
(148,-16,o),
(279,-16,cs),
(419,-16,o),
(544,45,o),
(544,183,cs),
(544,289,o),
(470,351,o),
(355,398,cs),
(286,426,ls),
(254,439,o),
(217,457,o),
(217,496,cs),
(217,528,o),
(241,552,o),
(283,552,cs),
(318,552,o),
(354,535,o),
(354,475,c),
(536,475,l),
(531,645,o),
(412,686,o),
(281,686,cs),
(141,686,o),
(29,636,o),
(29,497,cs),
(29,392,o),
(90,340,o),
(205,293,cs),
(274,265,ls),
(306,252,o),
(356,232,o),
(356,189,cs),
(356,157,o),
(327,136,o),
(289,136,cs),
(245,136,o),
(209,165,o),
(209,220,c),
(16,220,l)
);
}
);
width = 560;
},
{
associatedMasterId = "FBD32BA2-3DE3-41DC-83E1-8A694E18FAAC";
guides = (
{
angle = 157.9128;
pos = (244,279);
}
);
layerId = "9E5A0653-74FE-4ACD-B467-866A4C5B9DA8";
name = "Nov 10 18, 20:48";
shapes = (
{
closed = 1;
nodes = (
(30,53,o),
(170,-16,o),
(292,-16,cs),
(418,-16,o),
(548,57,o),
(548,190,cs),
(548,291,o),
(474,351,o),
(359,398,cs),
(290,426,ls),
(258,439,o),
(221,459,o),
(221,493,cs),
(221,521,o),
(245,543,o),
(286,543,cs),
(322,543,o),
(358,526,o),
(358,475,c),
(540,475,l),
(525,645,o),
(385,686,o),
(279,686,cs),
(151,686,o),
(33,626,o),
(33,502,cs),
(33,402,o),
(111,333,o),
(209,293,cs),
(278,265,ls),
(310,252,o),
(360,231,o),
(360,195,cs),
(360,166,o),
(329,146,o),
(292,146,cs),
(247,146,o),
(213,175,o),
(213,220,c),
(20,220,l)
);
}
);
width = 568;
},
{
associatedMasterId = "FBD32BA2-3DE3-41DC-83E1-8A694E18FAAC";
layerId = "9C14E296-D0C7-4226-A335-C744E4CCCDAB";
name = "Nov 10 18, 21:19";
shapes = (
{
closed = 1;
nodes = (
(21,208,l),
(0,70,o),
(96,-16,o),
(252,-16,cs),
(395,-16,o),
(484,46,o),
(484,147,cs),
(484,212,o),
(448,273,o),
(400,327,cs),
(354,378,ls),
(334,401,o),
(285,447,o),
(285,490,cs),
(285,520,o),
(309,544,o),
(346,544,cs),
(382,544,o),
(406,522,o),
(412,487,c),
(529,556,l),
(498,646,o),
(422,686,o),
(315,686,cs),
(196,686,o),
(109,611,o),
(109,500,cs),
(109,418,o),
(157,366,o),
(188,328,cs),
(271,226,ls),
(290,202,o),
(300,183,o),
(300,163,cs),
(300,135,o),
(279,118,o),
(247,118,cs),
(188,118,o),
(172,171,o),
(183,208,c)
);
}
);
width = 535;
},
{
associatedMasterId = "FBD32BA2-3DE3-41DC-83E1-8A694E18FAAC";
layerId = "7646DC0C-76E5-496D-919F-14D03856AC88";
name = "Dec 2 18, 21:54";
shapes = (
{
closed = 1;
nodes = (
(30,53,o),
(170,-16,o),
(292,-16,cs),
(418,-16,o),
(548,57,o),
(548,190,cs),
(548,291,o),
(474,351,o),
(359,398,cs),
(290,426,ls),
(258,439,o),
(221,459,o),
(221,493,cs),
(221,521,o),
(245,543,o),
(286,543,cs),
(322,543,o),
(358,526,o),
(358,475,c),
(540,475,l),
(525,645,o),
(385,686,o),
(279,686,cs),
(151,686,o),
(33,626,o),
(33,502,cs),
(33,402,o),
(111,333,o),
(209,293,cs),
(278,265,ls),
(310,252,o),
(360,231,o),
(360,195,cs),
(360,166,o),
(329,146,o),
(292,146,cs),
(247,146,o),
(213,175,o),
(213,220,c),
(20,220,l)
);
}
);
width = 568;
},
{
associatedMasterId = "FBD32BA2-3DE3-41DC-83E1-8A694E18FAAC";
layerId = "B6D1EC16-0AA5-4653-806A-A78B646BC20B";
name = "Dec 4 18, 01:03";
shapes = (
{
closed = 1;
nodes = (
(23,233,l),
(21,222,o),
(20,202,o),
(20,189,cs),
(20,35,o),
(161,-16,o),
(285,-16,cs),
(434,-16,o),
(555,57,o),
(555,201,cs),
(555,307,o),
(483,345,o),
(359,395,cs),
(290,423,ls),
(258,436,o),
(221,457,o),
(221,497,cs),
(221,528,o),
(244,552,o),
(281,552,cs),
(321,552,o),
(347,523,o),
(347,490,cs),
(347,479,o),
(344,467,o),
(342,460,c),
(541,460,l),
(543,474,o),
(545,491,o),
(545,509,cs),
(545,645,o),
(417,686,o),
(288,686,cs),
(146,686,o),
(23,636,o),
(23,498,cs),
(23,380,o),
(116,327,o),
(238,282,cs),
(306,257,ls),
(335,246,o),
(363,226,o),
(363,189,cs),
(363,153,o),
(336,129,o),
(292,129,cs),
(249,129,o),
(220,152,o),
(220,206,cs),
(220,216,o),
(221,225,o),
(223,233,c)
);
}
);
width = 575;
},
{
layerId = "061FC23D-6DC8-4BE4-BEC8-2F5AB93B127B";
shapes = (
{
closed = 1;
nodes = (
(472,-8,o),
(591,52,o),
(591,163,cs),
(591,266,o),
(492,321,o),
(369,345,cs),
(302,358,ls),
(199,378,o),
(86,418,o),
(86,507,cs),
(86,588,o),
(180,638,o),
(311,638,cs),
(446,638,o),
(547,585,o),
(534,489,cs),
(533,481,o),
(532,475,o),
(531,469,c),
(575,469,l),
(578,481,o),
(581,494,o),
(581,508,cs),
(581,624,o),
(455,678,o),
(311,678,cs),
(167,678,o),
(44,623,o),
(44,507,cs),
(44,398,o),
(151,344,o),
(256,325,cs),
(337,310,ls),
(462,287,o),
(547,241,o),
(547,163,cs),
(547,86,o),
(462,32,o),
(315,32,cs),
(170,32,o),
(70,85,o),
(70,197,cs),
(70,213,o),
(72,230,o),
(74,240,c),
(27,240,l),
(25,229,o),
(24,209,o),
(24,196,cs),
(24,52,o),
(159,-8,o),
(316,-8,cs)
);
}
);
width = 615;
},
{
associatedMasterId = "061FC23D-6DC8-4BE4-BEC8-2F5AB93B127B";
layerId = "D9E81ABA-81C3-47E3-B7B0-62CBD791B32D";
name = "Apr 11 18, 09:36";
shapes = (
{
closed = 1;
nodes = (
(25,55,o),
(129,-13,o),
(271,-13,cs),
(401,-13,o),
(509,43,o),
(509,190,cs),
(509,288,o),
(463,343,o),
(354,376,cs),
(264,403,ls),
(234,412,o),
(195,426,o),
(195,468,cs),
(195,507,o),
(223,532,o),
(266,532,cs),
(319,532,o),
(343,494,o),
(343,449,c),
(508,449,l),
(509,459,o),
(509,463,o),
(509,471,cs),
(509,618,o),
(405,686,o),
(263,686,cs),
(133,686,o),
(25,630,o),
(25,483,cs),
(25,385,o),
(71,330,o),
(179,297,cs),
(270,269,ls),
(300,260,o),
(339,246,o),
(339,205,cs),
(339,166,o),
(311,141,o),
(268,141,cs),
(215,141,o),
(191,179,o),
(191,224,c),
(26,224,l),
(25,214,o),
(25,210,o),
(25,202,cs)
);
}
);
width = 545;
},
{
associatedMasterId = "061FC23D-6DC8-4BE4-BEC8-2F5AB93B127B";
layerId = "A6EC8A3C-F3B0-4C18-AB27-08F308E6413A";
name = "Apr 12 18, 11:08";
shapes = (
{
closed = 1;
nodes = (
(25,55,o),
(129,-13,o),
(271,-13,cs),
(401,-13,o),
(509,43,o),
(509,190,cs),
(509,288,o),
(465,343,o),
(354,381,cs),
(264,412,ls),
(235,422,o),
(195,438,o),
(195,477,cs),
(195,509,o),
(223,532,o),
(265,532,cs),
(319,532,o),
(343,494,o),
(343,449,c),
(508,449,l),
(509,459,o),
(509,463,o),
(509,471,cs),
(509,618,o),
(405,686,o),
(263,686,cs),
(133,686,o),
(25,630,o),
(25,483,cs),
(25,385,o),
(71,329,o),
(179,292,cs),
(270,261,ls),
(300,251,o),
(339,234,o),
(339,196,cs),
(339,164,o),
(311,141,o),
(269,141,cs),
(215,141,o),
(191,179,o),
(191,224,c),
(26,224,l),
(25,214,o),
(25,210,o),
(25,202,cs)
);
}
);
width = 545;
},
{
associatedMasterId = "061FC23D-6DC8-4BE4-BEC8-2F5AB93B127B";
layerId = "4F0ACA20-9C16-4BC8-B7FD-224D19AEBECA";
name = "Apr 12 18, 14:03";
shapes = (
{
closed = 1;
nodes = (
(26,55,o),
(130,-13,o),
(272,-13,cs),
(402,-13,o),
(510,43,o),
(510,190,cs),
(510,288,o),
(466,343,o),
(355,382,cs),
(266,413,ls),
(243,421,o),
(213,436,o),
(213,472,cs),
(213,502,o),
(235,522,o),
(267,522,cs),
(303,522,o),
(326,496,o),
(326,449,c),
(509,449,l),
(510,459,o),
(510,463,o),
(510,471,cs),
(510,618,o),
(406,686,o),
(264,686,cs),
(134,686,o),
(26,630,o),
(26,483,cs),
(26,385,o),
(72,328,o),
(180,291,cs),
(270,260,ls),
(294,252,o),
(323,236,o),
(323,201,cs),
(323,171,o),
(301,151,o),
(269,151,cs),
(233,151,o),
(210,177,o),
(210,224,c),
(27,224,l),
(26,214,o),
(26,210,o),
(26,202,cs)
);
}
);
width = 536;
},
{
associatedMasterId = "061FC23D-6DC8-4BE4-BEC8-2F5AB93B127B";
layerId = "6210CAA9-E977-40B7-9C9B-042D5BE04ADD";
name = "Apr 22 18, 21:44";
shapes = (
{
closed = 1;
nodes = (
(26,55,o),
(130,-13,o),
(272,-13,cs),
(402,-13,o),
(510,43,o),
(510,190,cs),
(510,288,o),
(466,341,o),
(354,381,cs),
(265,413,ls),
(239,422,o),
(204,438,o),
(204,475,cs),
(204,507,o),
(229,527,o),
(265,527,cs),
(311,527,o),
(335,495,o),
(335,449,c),
(509,449,l),
(510,459,o),
(510,463,o),
(510,471,cs),
(510,618,o),
(406,686,o),
(264,686,cs),
(134,686,o),
(26,630,o),
(26,483,cs),
(26,385,o),
(72,330,o),
(180,292,cs),
(270,260,ls),
(298,250,o),
(331,235,o),
(331,199,cs),
(331,168,o),
(306,146,o),
(269,146,cs),
(224,146,o),
(201,178,o),
(201,224,c),
(27,224,l),
(26,214,o),
(26,210,o),
(26,202,cs)
);
}
);
width = 536;
},
{
associatedMasterId = "061FC23D-6DC8-4BE4-BEC8-2F5AB93B127B";
layerId = "B99CA7A1-6535-4370-A5C8-021B0F44896C";
name = "Sep 1 18, 22:00";
shapes = (
{
closed = 1;
nodes = (
(16,212,o),
(16,208,o),
(16,199,cs),
(16,52,o),
(135,-16,o),
(275,-16,cs),
(406,-16,o),
(511,43,o),
(511,188,cs),
(511,296,o),
(454,357,o),
(325,385,cs),
(256,400,ls),
(226,406,o),
(187,423,o),
(187,468,cs),
(187,507,o),
(215,532,o),
(258,532,cs),
(311,532,o),
(335,494,o),
(335,449,c),
(499,449,l),
(500,457,o),
(501,464,o),
(501,483,cs),
(501,619,o),
(397,686,o),
(255,686,cs),
(125,686,o),
(17,628,o),
(17,481,cs),
(17,374,o),
(75,314,o),
(204,286,cs),
(272,271,ls),
(302,264,o),
(342,247,o),
(342,202,cs),
(342,163,o),
(312,139,o),
(268,139,cs),
(206,139,o),
(187,183,o),
(187,222,c),
(17,222,l)
);
}
);
width = 527;
},
{
associatedMasterId = "061FC23D-6DC8-4BE4-BEC8-2F5AB93B127B";
layerId = "CD2957E4-25B1-4EC4-A7D0-7C407940059E";
name = "Sep 1 18, 22:17";
shapes = (
{
closed = 1;
nodes = (
(16,212,o),
(16,208,o),
(16,199,cs),
(16,52,o),
(135,-16,o),
(275,-16,cs),
(406,-16,o),
(511,43,o),
(511,188,cs),
(511,296,o),
(454,357,o),
(325,385,cs),
(256,400,ls),
(226,406,o),
(187,423,o),
(187,468,cs),
(187,507,o),
(215,532,o),
(258,532,cs),
(311,532,o),
(335,494,o),
(335,449,c),
(499,449,l),
(500,457,o),
(501,464,o),
(501,483,cs),
(501,619,o),
(397,686,o),
(255,686,cs),
(125,686,o),
(17,628,o),
(17,481,cs),
(17,374,o),
(75,314,o),
(204,286,cs),
(272,271,ls),
(302,264,o),
(342,247,o),
(342,202,cs),
(342,163,o),
(312,139,o),
(268,139,cs),
(206,139,o),
(187,183,o),
(187,222,c),
(17,222,l)
);
}
);
width = 527;
},
{
associatedMasterId = "061FC23D-6DC8-4BE4-BEC8-2F5AB93B127B";
backgroundImage = {
imagePath = "../../../Screenshot 2018-10-21 at 18.23.19.png";
};
layerId = "5B6C9AFB-E36D-4B63-B922-376E9FFD98FC";
name = "Sep 1 18, 22:17";
shapes = (
{
closed = 1;
nodes = (
(353,-16,o),
(454,13,o),
(524,69,o),
(562,151,o),
(562,202,qs),
(562,253,o),
(519,325,o),
(450,374,o),
(363,408,o),
(320,424,qs),
(275,440,o),
(229,474,o),
(229,500,qs),
(229,527,o),
(265,552,o),
(290,552,qs),
(356,552,o),
(356,469,q),
(554,469,l),
(554,508,o),
(527,586,o),
(466,648,o),
(367,686,o),
(294,686,qs),
(243,686,o),
(149,664,o),
(75,618,o),
(30,544,o),
(30,493,qs),
(30,442,o),
(68,373,o),
(132,324,o),
(217,288,o),
(262,269,qs),
(315,249,o),
(363,217,o),
(363,190,qs),
(363,163,o),
(328,132,o),
(298,132,qs),
(260,132,o),
(214,181,o),
(214,227,q),
(16,227,l),
(16,168,o),
(55,77,o),
(126,16,o),
(227,-16,o),
(290,-16,qs)
);
}
);
width = 578;
},
{
associatedMasterId = "061FC23D-6DC8-4BE4-BEC8-2F5AB93B127B";
layerId = "38B392F3-B4A6-4379-9206-7BB038324533";
name = "Oct 21 18, 18:22";
shapes = (
{
closed = 1;
nodes = (
(16,212,o),
(16,208,o),
(16,199,cs),
(16,52,o),
(135,-16,o),
(270,-16,cs),
(406,-16,o),
(511,53,o),
(511,194,cs),
(511,306,o),
(449,340,o),
(325,385,cs),
(256,410,ls),
(227,420,o),
(187,436,o),
(187,476,cs),
(187,510,o),
(215,532,o),
(256,532,cs),
(311,532,o),
(335,494,o),
(335,449,c),
(499,449,l),
(500,457,o),
(501,464,o),
(501,483,cs),
(501,619,o),
(397,686,o),
(255,686,cs),
(125,686,o),
(17,628,o),
(17,484,cs),
(17,374,o),
(80,332,o),
(204,286,cs),
(272,261,ls),
(301,250,o),
(342,235,o),
(342,195,cs),
(342,161,o),
(312,139,o),
(268,139,cs),
(206,139,o),
(187,183,o),
(187,222,c),
(17,222,l)
);
}
);
width = 527;
},
{
associatedMasterId = "061FC23D-6DC8-4BE4-BEC8-2F5AB93B127B";
backgroundImage = {
imagePath = "../../../Screenshot 2018-10-21 at 18.23.19.png";
pos = (-20,-49);
scale = (1.1562,1.1562);
};
layerId = "17A9BED9-7A96-4F15-86A5-A73AB9DFF60D";
name = "Oct 21 18, 18:40";
shapes = (
{
closed = 1;
nodes = (
(19,233,l),
(17,222,o),
(16,202,o),
(16,189,cs),
(16,35,o),
(157,-16,o),
(281,-16,cs),
(430,-16,o),
(551,57,o),
(551,201,cs),
(551,307,o),
(479,345,o),
(355,395,cs),
(286,423,ls),
(254,436,o),
(217,457,o),
(217,497,cs),
(217,528,o),
(240,552,o),
(277,552,cs),
(317,552,o),
(343,523,o),
(343,490,cs),
(343,479,o),
(340,467,o),
(338,460,c),
(537,460,l),
(539,474,o),
(541,491,o),
(541,509,cs),
(541,645,o),
(413,686,o),
(284,686,cs),
(142,686,o),
(19,636,o),
(19,498,cs),
(19,380,o),
(112,327,o),
(234,282,cs),
(302,257,ls),
(331,246,o),
(359,226,o),
(359,189,cs),
(359,153,o),
(332,129,o),
(288,129,cs),
(245,129,o),
(216,152,o),
(216,206,cs),
(216,216,o),
(217,225,o),
(219,233,c)
);
}
);
width = 567;
},
{
associatedMasterId = "061FC23D-6DC8-4BE4-BEC8-2F5AB93B127B";
backgroundImage = {
imagePath = "../../../Screenshot 2018-10-21 at 18.23.19.png";
pos = (-20,-49);
scale = (1.1562,1.1562);
};
guides = (
{
angle = 157.9128;
pos = (240,279);
}
);
layerId = "A52E956A-9AF8-428A-859D-F641039F1466";
name = "Nov 4 18, 21:08";
shapes = (
{
closed = 1;
nodes = (
(16,43,o),
(148,-16,o),
(279,-16,cs),
(419,-16,o),
(544,52,o),
(544,190,cs),
(544,296,o),
(470,349,o),
(355,395,cs),
(286,423,ls),
(254,436,o),
(217,457,o),
(217,496,cs),
(217,528,o),
(241,552,o),
(278,552,cs),
(318,552,o),
(343,523,o),
(343,490,cs),
(343,479,o),
(340,467,o),
(338,460,c),
(537,460,l),
(539,474,o),
(541,491,o),
(541,509,cs),
(541,645,o),
(412,686,o),
(281,686,cs),
(141,686,o),
(19,636,o),
(19,498,cs),
(19,392,o),
(90,339,o),
(205,293,cs),
(274,265,ls),
(306,252,o),
(346,231,o),
(346,192,cs),
(346,160,o),
(319,136,o),
(282,136,cs),
(242,136,o),
(213,165,o),
(213,198,cs),
(213,209,o),
(216,221,o),
(218,228,c),
(20,228,l),
(18,214,o),
(16,197,o),
(16,179,cs)
);
}
);
width = 560;
},
{
associatedMasterId = "061FC23D-6DC8-4BE4-BEC8-2F5AB93B127B";
guides = (
{
angle = 157.9128;
pos = (240,279);
}
);
layerId = "F60AE740-BE6F-4B23-AB5A-CDB93D279C43";
name = "Nov 4 18, 21:45";
shapes = (
{
closed = 1;
nodes = (
(16,43,o),
(148,-16,o),
(279,-16,cs),
(419,-16,o),
(544,45,o),
(544,183,cs),
(544,289,o),
(470,351,o),
(355,398,cs),
(286,426,ls),
(254,439,o),
(217,457,o),
(217,496,cs),
(217,528,o),
(241,552,o),
(283,552,cs),
(318,552,o),
(354,535,o),
(354,475,c),
(536,475,l),
(531,645,o),
(412,686,o),
(281,686,cs),
(141,686,o),
(29,636,o),
(29,497,cs),
(29,392,o),
(90,340,o),
(205,293,cs),
(274,265,ls),
(306,252,o),
(356,232,o),
(356,189,cs),
(356,157,o),
(327,136,o),
(289,136,cs),
(245,136,o),
(209,165,o),
(209,220,c),
(16,220,l)
);
}
);
width = 560;
},
{
associatedMasterId = "061FC23D-6DC8-4BE4-BEC8-2F5AB93B127B";
guides = (
{
angle = 157.9128;
pos = (244,279);
}
);
layerId = "9A13639E-7185-45FD-B2BE-A2963A0ADCC8";
name = "Nov 10 18, 20:48";
shapes = (
{
closed = 1;
nodes = (
(30,53,o),
(170,-16,o),
(292,-16,cs),
(418,-16,o),
(548,57,o),
(548,190,cs),
(548,291,o),
(474,351,o),
(359,398,cs),
(290,426,ls),
(258,439,o),
(221,459,o),
(221,493,cs),
(221,521,o),
(245,543,o),
(286,543,cs),
(322,543,o),
(358,526,o),
(358,475,c),
(540,475,l),
(525,645,o),
(385,686,o),
(279,686,cs),
(151,686,o),
(33,626,o),
(33,502,cs),
(33,402,o),
(111,333,o),
(209,293,cs),
(278,265,ls),
(310,252,o),
(360,231,o),
(360,195,cs),
(360,166,o),
(329,146,o),
(292,146,cs),
(247,146,o),
(213,175,o),
(213,220,c),
(20,220,l)
);
}
);
width = 568;
},
{
associatedMasterId = "061FC23D-6DC8-4BE4-BEC8-2F5AB93B127B";
layerId = "14AE3CE1-EDE2-4A54-BE07-04CFA802BCD5";
name = "Nov 10 18, 21:19";
shapes = (
{
closed = 1;
nodes = (
(21,208,l),
(0,70,o),
(96,-16,o),
(252,-16,cs),
(395,-16,o),
(484,46,o),
(484,147,cs),
(484,212,o),
(448,273,o),
(400,327,cs),
(354,378,ls),
(334,401,o),
(285,447,o),
(285,490,cs),
(285,520,o),
(309,544,o),
(346,544,cs),
(382,544,o),
(406,522,o),
(412,487,c),
(529,556,l),
(498,646,o),
(422,686,o),
(315,686,cs),
(196,686,o),
(109,611,o),
(109,500,cs),
(109,418,o),
(157,366,o),
(188,328,cs),
(271,226,ls),
(290,202,o),
(300,183,o),
(300,163,cs),
(300,135,o),
(279,118,o),
(247,118,cs),
(188,118,o),
(172,171,o),
(183,208,c)
);
}
);
width = 535;
},
{
associatedMasterId = "061FC23D-6DC8-4BE4-BEC8-2F5AB93B127B";
layerId = "AA4B6696-6D3B-4CFC-B116-6C6A9D8B475A";
name = "Dec 2 18, 21:54";
shapes = (
{
closed = 1;
nodes = (
(30,53,o),
(170,-16,o),
(292,-16,cs),
(418,-16,o),
(548,57,o),
(548,190,cs),
(548,291,o),
(474,351,o),
(359,398,cs),
(290,426,ls),
(258,439,o),
(221,459,o),
(221,493,cs),
(221,521,o),
(245,543,o),
(286,543,cs),
(322,543,o),
(358,526,o),
(358,475,c),
(540,475,l),
(525,645,o),
(385,686,o),
(279,686,cs),
(151,686,o),
(33,626,o),
(33,502,cs),
(33,402,o),
(111,333,o),
(209,293,cs),
(278,265,ls),
(310,252,o),
(360,231,o),
(360,195,cs),
(360,166,o),
(329,146,o),
(292,146,cs),
(247,146,o),
(213,175,o),
(213,220,c),
(20,220,l)
);
}
);
width = 568;
},
{
associatedMasterId = "061FC23D-6DC8-4BE4-BEC8-2F5AB93B127B";
layerId = "7DDAE87C-7818-49F2-9B06-CF5F999EBD88";
name = "Jun 6 19, 01:37";
shapes = (
{
closed = 1;
nodes = (
(436,-8,o),
(545,52,o),
(545,163,cs),
(545,266,o),
(453,321,o),
(339,345,cs),
(277,358,ls),
(179,378,o),
(73,420,o),
(73,507,cs),
(73,588,o),
(165,638,o),
(286,638,cs),
(411,638,o),
(513,585,o),
(502,489,cs),
(501,481,o),
(500,475,o),
(499,469,c),
(540,469,l),
(543,481,o),
(545,494,o),
(545,508,cs),
(545,624,o),
(419,678,o),
(286,678,cs),
(153,678,o),
(29,623,o),
(29,507,cs),
(29,398,o),
(138,344,o),
(235,325,cs),
(310,310,ls),
(425,287,o),
(501,241,o),
(501,163,cs),
(501,86,o),
(426,30,o),
(288,30,cs),
(157,30,o),
(60,85,o),
(60,196,cs),
(60,214,o),
(62,230,o),
(64,240,c),
(23,240,l),
(21,229,o),
(20,209,o),
(20,196,cs),
(20,52,o),
(146,-8,o),
(288,-8,cs)
);
}
);
width = 575;
},
{
associatedMasterId = "FBD32BA2-3DE3-41DC-83E1-8A694E18FAAC";
layerId = "E22FA884-FF8C-46E8-B5E6-C4F124499296";
name = "Jul 4 19, 00:25";
shapes = (
{
closed = 1;
nodes = (
(434,-16,o),
(555,52,o),
(555,186,cs),
(555,292,o),
(483,345,o),
(359,395,cs),
(290,423,ls),
(258,436,o),
(221,457,o),
(221,497,cs),
(221,528,o),
(244,552,o),
(281,552,cs),
(321,552,o),
(347,523,o),
(347,490,cs),
(347,479,o),
(344,467,o),
(342,460,c),
(541,460,l),
(543,474,o),
(545,491,o),
(545,509,cs),
(545,636,o),
(417,686,o),
(288,686,cs),
(146,686,o),
(33,627,o),
(33,498,cs),
(33,383,o),
(116,327,o),
(238,282,cs),
(306,257,ls),
(335,246,o),
(363,226,o),
(363,189,cs),
(363,153,o),
(336,129,o),
(292,129,cs),
(249,129,o),
(220,152,o),
(220,206,cs),
(220,216,o),
(221,225,o),
(223,233,c),
(23,233,l),
(21,222,o),
(20,202,o),
(20,189,cs),
(20,35,o),
(161,-16,o),
(288,-16,cs)
);
}
);
width = 575;
},
{
associatedMasterId = "061FC23D-6DC8-4BE4-BEC8-2F5AB93B127B";
layerId = "872A6231-04CD-4F0B-AB7D-2D45C9E37727";
name = "Jul 4 19, 00:26";
shapes = (
{
closed = 1;
nodes = (
(435,-8,o),
(545,52,o),
(545,163,cs),
(545,266,o),
(453,321,o),
(339,345,cs),
(277,358,ls),
(182,378,o),
(83,418,o),
(83,507,cs),
(83,588,o),
(165,638,o),
(286,638,cs),
(411,638,o),
(504,585,o),
(492,489,cs),
(491,481,o),
(490,475,o),
(489,469,c),
(530,469,l),
(533,481,o),
(535,494,o),
(535,508,cs),
(535,624,o),
(419,678,o),
(286,678,cs),
(153,678,o),
(39,623,o),
(39,507,cs),
(39,398,o),
(138,344,o),
(235,325,cs),
(310,310,ls),
(425,287,o),
(501,241,o),
(501,163,cs),
(501,86,o),
(425,30,o),
(289,30,cs),
(155,30,o),
(60,85,o),
(60,197,cs),
(60,213,o),
(62,230,o),
(64,240,c),
(23,240,l),
(21,229,o),
(20,209,o),
(20,196,cs),
(20,52,o),
(145,-8,o),
(290,-8,cs)
);
}
);
width = 565;
}
);
metricLeft = O;
metricRight = O;
unicode = 83;
},
{
glyphname = T;
kernLeft = V;
kernRight = V;
lastChange = "2019-08-17 17:08:55 +0000";
layers = (
{
layerId = "FBD32BA2-3DE3-41DC-83E1-8A694E18FAAC";
shapes = (
{
closed = 1;
nodes = (
(423,0,l),
(423,670,l),
(227,670,l),
(227,0,l)
);
},
{
closed = 1;
nodes = (
(654,514,l),
(654,670,l),
(-4,670,l),
(-4,514,l)
);
}
);
width = 650;
},
{
layerId = "061FC23D-6DC8-4BE4-BEC8-2F5AB93B127B";
shapes = (
{
closed = 1;
nodes = (
(321,0,l),
(321,670,l),
(277,670,l),
(277,0,l)
);
},
{
closed = 1;
nodes = (
(598,630,l),
(598,670,l),
(0,670,l),
(0,630,l)
);
}
);
width = 598;
}
);
metricLeft = V;
metricRight = V;
unicode = 84;
},
{
color = 2;
glyphname = U;
kernLeft = U;
lastChange = "2019-07-06 20:19:19 +0000";
layers = (
{
anchors = (
{
name = top;
pos = (368,686);
}
);
annotations = (
{
pos = (205,419);
text = "Awkward width";
type = Text;
}
);
layerId = "FBD32BA2-3DE3-41DC-83E1-8A694E18FAAC";
shapes = (
{
closed = 1;
nodes = (
(489,-16,o),
(680,36,o),
(680,262,cs),
(680,670,l),
(476,670,l),
(476,250,ls),
(476,172,o),
(418,140,o),
(364,140,cs),
(310,140,o),
(252,172,o),
(252,250,cs),
(252,670,l),
(48,670,l),
(48,262,ls),
(48,36,o),
(239,-16,o),
(364,-16,cs)
);
}
);
width = 728;
},
{
anchors = (
{
name = top;
pos = (322,670);
}
);
layerId = "061FC23D-6DC8-4BE4-BEC8-2F5AB93B127B";
shapes = (
{
closed = 1;
nodes = (
(487,-16,o),
(598,76,o),
(598,272,cs),
(598,670,l),
(556,670,l),
(556,272,ls),
(556,107,o),
(471,24,o),
(322,24,cs),
(173,24,o),
(88,107,o),
(88,272,cs),
(88,670,l),
(46,670,l),
(46,272,ls),
(46,76,o),
(157,-16,o),
(322,-16,cs)
);
}
);
width = 644;
},
{
anchors = (
{
name = top;
pos = (328,686);
}
);
annotations = (
{
pos = (205,419);
text = "Awkward width";
type = Text;
}
);
associatedMasterId = "FBD32BA2-3DE3-41DC-83E1-8A694E18FAAC";
layerId = "18C8E8E3-833A-45F4-90BF-52E7792BDFC0";
name = "Jul 6 19, 22:03";
shapes = (
{
closed = 1;
nodes = (
(433,-16,o),
(600,36,o),
(600,222,cs),
(600,670,l),
(404,670,l),
(404,210,ls),
(404,172,o),
(371,140,o),
(324,140,cs),
(277,140,o),
(244,172,o),
(244,210,cs),
(244,670,l),
(48,670,l),
(48,222,ls),
(48,36,o),
(215,-16,o),
(324,-16,cs)
);
}
);
width = 648;
}
);
metricLeft = H;
metricRight = H;
unicode = 85;
},
{
glyphname = V;
kernLeft = V;
kernRight = V;
lastChange = "2019-07-06 20:21:16 +0000";
layers = (
{
layerId = "FBD32BA2-3DE3-41DC-83E1-8A694E18FAAC";
shapes = (
{
closed = 1;
nodes = (
(200,670,l),
(358,192,l),
(526,670,l),
(730,670,l),
(469,0,l),
(241,0,l),
(-4,670,l)
);
}
);
width = 726;
},
{
layerId = "061FC23D-6DC8-4BE4-BEC8-2F5AB93B127B";
shapes = (
{
closed = 1;
nodes = (
(47,670,l),
(336,35,l),
(625,670,l),
(672,670,l),
(360,0,l),
(312,0,l),
(0,670,l)
);
}
);
width = 672;
}
);
unicode = 86;
},
{
glyphname = W;
kernLeft = V;
kernRight = V;
lastChange = "2019-07-06 19:57:08 +0000";
layers = (
{
anchors = (
{
name = top;
pos = (520,686);
}
);
layerId = "FBD32BA2-3DE3-41DC-83E1-8A694E18FAAC";
shapes = (
{
closed = 1;
nodes = (
(425,0,l),
(520,374,l),
(621,0,l),
(830,0,l),
(1042,670,l),
(851,670,l),
(727,242,l),
(615,670,l),
(440,670,l),
(333,242,l),
(204,670,l),
(-4,670,l),
(208,0,l)
);
}
);
width = 1038;
},
{
associatedMasterId = "FBD32BA2-3DE3-41DC-83E1-8A694E18FAAC";
layerId = "D04EDEC6-8C57-4079-B0D3-89585A4FCFEE";
name = "Apr 10 18, 00:36";
shapes = (
{
closed = 1;
nodes = (
(311,0,l),
(408,374,l),
(505,0,l),
(671,0,l),
(820,670,l),
(653,670,l),
(584,252,l),
(467,670,l),
(339,670,l),
(242,252,l),
(173,670,l),
(-4,670,l),
(145,0,l)
);
}
);
width = 816;
},
{
associatedMasterId = "FBD32BA2-3DE3-41DC-83E1-8A694E18FAAC";
backgroundImage = {
imagePath = "../.Trash/Screen Shot 2018-04-12 at 11.36.12.png";
pos = (-120,-79);
scale = (7.8891,7.8891);
};
layerId = "55BD973E-0D2A-48C9-81D1-247BE65BB468";
name = "Apr 12 18, 11:25";
shapes = (
{
closed = 1;
nodes = (
(165,0,l),
(374,0,l),
(453,413,l),
(533,0,l),
(742,0,l),
(905,670,l),
(697,670,l),
(635,261,l),
(560,668,l),
(347,668,l),
(272,261,l),
(210,670,l),
(2,670,l)
);
}
);
width = 907;
},
{
anchors = (
{
name = top;
pos = (522,670);
}
);
layerId = "061FC23D-6DC8-4BE4-BEC8-2F5AB93B127B";
shapes = (
{
closed = 1;
nodes = (
(286,0,l),
(522,630,l),
(758,0,l),
(799,0,l),
(1044,670,l),
(1001,670,l),
(779,65,l),
(545,670,l),
(499,670,l),
(265,64,l),
(43,670,l),
(0,670,l),
(245,0,l)
);
}
);
width = 1044;
},
{
associatedMasterId = "061FC23D-6DC8-4BE4-BEC8-2F5AB93B127B";
layerId = "0740FB54-0F48-484F-ABCD-F2F1B0A95D6A";
name = "Apr 10 18, 00:36";
shapes = (
{
closed = 1;
nodes = (
(311,0,l),
(408,374,l),
(505,0,l),
(671,0,l),
(820,670,l),
(653,670,l),
(584,252,l),
(467,670,l),
(339,670,l),
(242,252,l),
(173,670,l),
(-4,670,l),
(145,0,l)
);
}
);
width = 816;
},
{
associatedMasterId = "061FC23D-6DC8-4BE4-BEC8-2F5AB93B127B";
backgroundImage = {
imagePath = "../.Trash/Screen Shot 2018-04-12 at 11.36.12.png";
pos = (-120,-79);
scale = (7.8891,7.8891);
};
layerId = "3EDBD02D-7A2C-4720-9B15-2EA92A7C0F23";
name = "Apr 12 18, 11:25";
shapes = (
{
closed = 1;
nodes = (
(165,0,l),
(374,0,l),
(453,413,l),
(533,0,l),
(742,0,l),
(905,670,l),
(697,670,l),
(635,261,l),
(560,668,l),
(347,668,l),
(272,261,l),
(210,670,l),
(2,670,l)
);
}
);
width = 907;
},
{
anchors = (
{
name = top;
pos = (451,686);
}
);
associatedMasterId = "061FC23D-6DC8-4BE4-BEC8-2F5AB93B127B";
layerId = "413FAABD-E81A-4482-9B7C-B015D1CF2569";
name = "Feb 3 19, 19:12";
shapes = (
{
closed = 1;
nodes = (
(375,0,l),
(451,413,l),
(528,0,l),
(729,0,l),
(906,670,l),
(706,670,l),
(620,261,l),
(554,670,l),
(348,670,l),
(282,261,l),
(197,670,l),
(-4,670,l),
(173,0,l)
);
}
);
width = 902;
},
{
anchors = (
{
name = top;
pos = (451,686);
}
);
associatedMasterId = "FBD32BA2-3DE3-41DC-83E1-8A694E18FAAC";
layerId = "CB46DFD9-E7B6-42EF-A3D6-B84727B2301D";
name = "May 8 19, 15:23";
shapes = (
{
closed = 1;
nodes = (
(375,0,l),
(451,413,l),
(528,0,l),
(729,0,l),
(906,670,l),
(706,670,l),
(620,261,l),
(554,670,l),
(348,670,l),
(282,261,l),
(197,670,l),
(-4,670,l),
(173,0,l)
);
}
);
width = 902;
},
{
anchors = (
{
name = top;
pos = (495,686);
}
);
associatedMasterId = "FBD32BA2-3DE3-41DC-83E1-8A694E18FAAC";
layerId = "A708B0EF-4307-48D9-8A94-CA7FBE053BA9";
name = "Jul 4 19, 00:41";
shapes = (
{
closed = 1;
nodes = (
(311,0,l),
(408,374,l),
(505,0,l),
(691,0,l),
(840,670,l),
(653,670,l),
(584,292,l),
(467,670,l),
(339,670,l),
(242,292,l),
(173,670,l),
(-4,670,l),
(145,0,l)
);
}
);
width = 836;
}
);
metricLeft = V;
metricRight = V;
unicode = 87;
},
{
glyphname = X;
lastChange = "2019-10-25 11:33:11 +0000";
layers = (
{
background = {
shapes = (
{
closed = 0;
nodes = (
(277,670,l)
);
},
{
closed = 0;
nodes = (
(80,670,l)
);
}
);
};
layerId = "FBD32BA2-3DE3-41DC-83E1-8A694E18FAAC";
shapes = (
{
closed = 1;
nodes = (
(164,-1,ls),
(202,-1,o),
(223,16,o),
(230,53,cs),
(240,108,ls),
(256,195,o),
(277,267,o),
(349,267,c),
(421,267,o),
(442,195,o),
(458,108,cs),
(468,53,ls),
(475,16,o),
(496,-1,o),
(534,-1,cs),
(702,-1,l),
(660,164,ls),
(634,267,o),
(542,355,o),
(447,356,c),
(447,362,l),
(541,362,o),
(624,401,o),
(650,505,cs),
(692,670,l),
(524,670,ls),
(486,670,o),
(465,653,o),
(458,616,cs),
(448,561,ls),
(432,474,o),
(421,432,o),
(349,432,c),
(277,432,o),
(266,474,o),
(250,561,cs),
(240,616,ls),
(233,653,o),
(212,670,o),
(174,670,cs),
(6,670,l),
(48,505,ls),
(74,401,o),
(157,362,o),
(251,362,c),
(251,356,l),
(156,355,o),
(64,267,o),
(38,164,cs),
(-4,-1,l)
);
}
);
width = 698;
},
{
associatedMasterId = "FBD32BA2-3DE3-41DC-83E1-8A694E18FAAC";
background = {
shapes = (
{
closed = 0;
nodes = (
(202,670,l)
);
},
{
closed = 0;
nodes = (
(5,670,l)
);
}
);
};
layerId = "FB472EF9-843C-4C8A-B59D-F541BF7E0D5A";
name = "Aug 5 18, 16:14";
shapes = (
{
closed = 1;
nodes = (
(673,0,l),
(238,670,l),
(11,670,l),
(439,0,l)
);
},
{
closed = 1;
nodes = (
(230,0,l),
(351,220,l),
(230,379,l),
(-4,0,l)
);
},
{
closed = 1;
nodes = (
(662,670,l),
(428,670,l),
(317,450,l),
(428,291,l)
);
}
);
width = 669;
},
{
associatedMasterId = "FBD32BA2-3DE3-41DC-83E1-8A694E18FAAC";
background = {
shapes = (
{
closed = 0;
nodes = (
(202,670,l)
);
},
{
closed = 0;
nodes = (
(5,670,l)
);
}
);
};
layerId = "21D47AF1-DF71-4A94-B319-B263D38918BC";
name = "Nov 4 18, 22:10";
shapes = (
{
closed = 1;
nodes = (
(230,0,l),
(336,198,l),
(439,0,l),
(673,0,l),
(455,324,l),
(662,670,l),
(428,670,l),
(336,443,l),
(238,670,l),
(11,670,l),
(214,324,l),
(-4,0,l)
);
}
);
width = 669;
},
{
associatedMasterId = "FBD32BA2-3DE3-41DC-83E1-8A694E18FAAC";
background = {
shapes = (
{
closed = 0;
nodes = (
(241,670,l)
);
},
{
closed = 0;
nodes = (
(44,670,l)
);
}
);
};
layerId = "58D45D23-CEAB-4764-AFD7-EA5F45708F89";
name = "Dec 4 18, 23:56";
shapes = (
{
closed = 1;
nodes = (
(154,-1,ls),
(192,-1,o),
(213,16,o),
(220,53,cs),
(230,108,ls),
(246,195,o),
(267,267,o),
(313,267,c),
(359,267,o),
(380,195,o),
(396,108,cs),
(406,53,ls),
(413,16,o),
(434,-1,o),
(472,-1,cs),
(630,-1,l),
(588,164,ls),
(562,267,o),
(480,355,o),
(385,356,c),
(385,362,l),
(479,362,o),
(552,401,o),
(578,505,cs),
(620,670,l),
(462,670,ls),
(424,670,o),
(403,653,o),
(396,616,cs),
(386,561,ls),
(370,474,o),
(359,432,o),
(313,432,c),
(267,432,o),
(256,474,o),
(240,561,cs),
(230,616,ls),
(223,653,o),
(202,670,o),
(164,670,cs),
(6,670,l),
(48,505,ls),
(74,401,o),
(147,362,o),
(241,362,c),
(241,356,l),
(146,355,o),
(64,267,o),
(38,164,cs),
(-4,-1,l)
);
}
);
width = 626;
},
{
background = {
shapes = (
{
closed = 0;
nodes = (
(376,670,l)
);
},
{
closed = 0;
nodes = (
(179,670,l)
);
}
);
};
layerId = "061FC23D-6DC8-4BE4-BEC8-2F5AB93B127B";
shapes = (
{
closed = 1;
nodes = (
(7,0,ls),
(32,0,o),
(66,10,o),
(89,47,cs),
(208,237,ls),
(262,323,o),
(335,337,o),
(374,337,cs),
(413,337,o),
(486,323,o),
(540,237,cs),
(659,47,ls),
(682,10,o),
(716,0,o),
(741,0,cs),
(748,0,l),
(583,255,ls),
(536,327,o),
(488,355,o),
(421,361,c),
(421,366,l),
(483,370,o),
(531,409,o),
(566,460,cs),
(713,670,l),
(712,670,ls),
(678,670,o),
(654,658,o),
(631,626,cs),
(530,484,ls),
(477,410,o),
(410,388,o),
(374,388,cs),
(338,388,o),
(271,410,o),
(218,484,cs),
(117,626,ls),
(94,658,o),
(70,670,o),
(36,670,cs),
(35,670,l),
(182,460,ls),
(217,409,o),
(265,370,o),
(327,366,c),
(327,361,l),
(260,355,o),
(212,327,o),
(165,255,cs),
(0,0,l)
);
}
);
width = 748;
},
{
associatedMasterId = "061FC23D-6DC8-4BE4-BEC8-2F5AB93B127B";
background = {
shapes = (
{
closed = 0;
nodes = (
(202,670,l)
);
},
{
closed = 0;
nodes = (
(5,670,l)
);
}
);
};
layerId = "5CE6A799-3E0F-4E25-B94D-A128B3B7096D";
name = "Aug 5 18, 16:14";
shapes = (
{
closed = 1;
nodes = (
(673,0,l),
(238,670,l),
(11,670,l),
(439,0,l)
);
},
{
closed = 1;
nodes = (
(230,0,l),
(351,220,l),
(230,379,l),
(-4,0,l)
);
},
{
closed = 1;
nodes = (
(662,670,l),
(428,670,l),
(317,450,l),
(428,291,l)
);
}
);
width = 669;
},
{
associatedMasterId = "061FC23D-6DC8-4BE4-BEC8-2F5AB93B127B";
background = {
shapes = (
{
closed = 0;
nodes = (
(202,670,l)
);
},
{
closed = 0;
nodes = (
(5,670,l)
);
}
);
};
layerId = "A9E277D5-CF9F-4EC5-81E3-FBF59276050D";
name = "Nov 4 18, 22:10";
shapes = (
{
closed = 1;
nodes = (
(230,0,l),
(336,198,l),
(439,0,l),
(673,0,l),
(455,324,l),
(662,670,l),
(428,670,l),
(336,443,l),
(238,670,l),
(11,670,l),
(214,324,l),
(-4,0,l)
);
}
);
width = 669;
},
{
associatedMasterId = "061FC23D-6DC8-4BE4-BEC8-2F5AB93B127B";
background = {
shapes = (
{
closed = 0;
nodes = (
(241,670,l)
);
},
{
closed = 0;
nodes = (
(44,670,l)
);
}
);
};
layerId = "31533F2C-2DCB-4CF9-B78F-4D1FF0329D7D";
name = "Dec 4 18, 23:56";
shapes = (
{
closed = 1;
nodes = (
(154,-1,ls),
(192,-1,o),
(213,16,o),
(220,53,cs),
(230,108,ls),
(246,195,o),
(267,267,o),
(313,267,c),
(359,267,o),
(380,195,o),
(396,108,cs),
(406,53,ls),
(413,16,o),
(434,-1,o),
(472,-1,cs),
(630,-1,l),
(588,164,ls),
(562,267,o),
(480,355,o),
(385,356,c),
(385,362,l),
(479,362,o),
(552,401,o),
(578,505,cs),
(620,670,l),
(462,670,ls),
(424,670,o),
(403,653,o),
(396,616,cs),
(386,561,ls),
(370,474,o),
(359,432,o),
(313,432,c),
(267,432,o),
(256,474,o),
(240,561,cs),
(230,616,ls),
(223,653,o),
(202,670,o),
(164,670,cs),
(6,670,l),
(48,505,ls),
(74,401,o),
(147,362,o),
(241,362,c),
(241,356,l),
(146,355,o),
(64,267,o),
(38,164,cs),
(-4,-1,l)
);
}
);
width = 626;
},
{
associatedMasterId = "061FC23D-6DC8-4BE4-BEC8-2F5AB93B127B";
attr = {
coordinates = (
100
);
};
background = {
shapes = (
{
closed = 0;
nodes = (
(253,670,l)
);
},
{
closed = 0;
nodes = (
(56,670,l)
);
}
);
};
layerId = "F9607CE0-34EC-4725-B5E6-7480C65675EF";
name = "{100}";
shapes = (
{
closed = 1;
nodes = (
(77,-1,ls),
(107,-1,o),
(136,12,o),
(153,49,cs),
(230,187,ls),
(277,271,o),
(322,310,o),
(364,310,c),
(406,310,o),
(451,271,o),
(498,187,cs),
(575,49,ls),
(592,12,o),
(621,-1,o),
(651,-1,cs),
(730,-1,l),
(602,220,ls),
(556,300,o),
(498,355,o),
(421,359,c),
(421,364,l),
(495,367,o),
(548,410,o),
(588,477,cs),
(704,670,l),
(629,670,ls),
(594,670,o),
(571,656,o),
(554,622,cs),
(488,514,ls),
(442,438,o),
(404,405,o),
(364,405,c),
(324,405,o),
(287,438,o),
(240,514,cs),
(174,622,ls),
(157,656,o),
(134,670,o),
(99,670,cs),
(23,670,l),
(140,477,ls),
(180,410,o),
(233,367,o),
(307,364,c),
(307,359,l),
(230,355,o),
(172,300,o),
(126,220,cs),
(-2,-1,l)
);
}
);
width = 729;
},
{
associatedMasterId = "FBD32BA2-3DE3-41DC-83E1-8A694E18FAAC";
background = {
shapes = (
{
closed = 0;
nodes = (
(251,670,l)
);
},
{
closed = 0;
nodes = (
(54,670,l)
);
}
);
};
layerId = "A775D9B8-3E3F-417A-9DE9-EEC261729442";
name = "Jul 4 19, 00:10";
shapes = (
{
closed = 1;
nodes = (
(164,-1,ls),
(202,-1,o),
(223,16,o),
(230,53,cs),
(240,108,ls),
(256,195,o),
(277,267,o),
(323,267,c),
(369,267,o),
(390,195,o),
(406,108,cs),
(416,53,ls),
(423,16,o),
(444,-1,o),
(482,-1,cs),
(650,-1,l),
(608,164,ls),
(582,267,o),
(490,355,o),
(395,356,c),
(395,362,l),
(489,362,o),
(572,401,o),
(598,505,cs),
(640,670,l),
(472,670,ls),
(434,670,o),
(413,653,o),
(406,616,cs),
(396,561,ls),
(380,474,o),
(369,432,o),
(323,432,c),
(277,432,o),
(266,474,o),
(250,561,cs),
(240,616,ls),
(233,653,o),
(212,670,o),
(174,670,cs),
(6,670,l),
(48,505,ls),
(74,401,o),
(157,362,o),
(251,362,c),
(251,356,l),
(156,355,o),
(64,267,o),
(38,164,cs),
(-4,-1,l)
);
}
);
width = 646;
}
);
metricLeft = V;
metricRight = V;
unicode = 88;
},
{
glyphname = Y;
kernLeft = V;
kernRight = V;
lastChange = "2019-08-01 21:40:12 +0000";
layers = (
{
annotations = (
{
pos = (-49.498,658.608);
type = Text;
},
{
pos = (199.694,508.272);
type = Text;
},
{
pos = (826,168);
type = Text;
}
);
layerId = "FBD32BA2-3DE3-41DC-83E1-8A694E18FAAC";
shapes = (
{
closed = 1;
nodes = (
(210,670,l),
(345,369,l),
(487,670,l),
(701,670,l),
(443,209,l),
(443,0,l),
(247,0,l),
(247,209,l),
(-4,670,l)
);
}
);
width = 697;
},
{
associatedMasterId = "FBD32BA2-3DE3-41DC-83E1-8A694E18FAAC";
layerId = "F80C1643-85B6-4F90-B1CF-81B7EFE27770";
name = "Mar 26 18, 13:33";
shapes = (
{
closed = 1;
nodes = (
(372,0,l),
(372,299,l),
(198,299,l),
(198,0,l)
);
},
{
closed = 1;
nodes = (
(44,237,o),
(96,155,o),
(202,155,cs),
(233,155,o),
(261,162,o),
(285,177,c),
(309,162,o),
(337,155,o),
(368,155,cs),
(475,155,o),
(526,237,o),
(526,341,cs),
(526,671,l),
(342,671,l),
(342,416,ls),
(342,342,o),
(323,318,o),
(285,318,cs),
(247,318,o),
(228,342,o),
(228,416,cs),
(228,671,l),
(44,671,l),
(44,341,ls)
);
}
);
width = 557;
},
{
associatedMasterId = "FBD32BA2-3DE3-41DC-83E1-8A694E18FAAC";
layerId = "A21C5719-87FC-4436-BA5F-5227D54C6E69";
name = "Mar 26 18, 13:38";
shapes = (
{
closed = 1;
nodes = (
(324,0,l),
(521,670,l),
(334,670,l),
(242,266,l),
(137,0,l)
);
},
{
closed = 1;
nodes = (
(267,266,l),
(174,670,l),
(-16,670,l),
(112,266,l)
);
}
);
width = 505;
},
{
associatedMasterId = "FBD32BA2-3DE3-41DC-83E1-8A694E18FAAC";
layerId = "6616EBFC-E399-4559-8380-C4A3B4C340E4";
name = "Mar 26 18, 13:41";
shapes = (
{
closed = 1;
nodes = (
(354,0,l),
(561,670,l),
(374,670,l),
(274,234,l),
(215,147,l),
(83,147,l),
(83,0,l),
(167,0,l)
);
},
{
closed = 1;
nodes = (
(318,246,l),
(184,670,l),
(-16,670,l),
(215,147,l)
);
}
);
width = 545;
},
{
associatedMasterId = "FBD32BA2-3DE3-41DC-83E1-8A694E18FAAC";
layerId = "F250F78C-0D89-4235-97AF-74333B642CB5";
name = "Mar 26 18, 13:43";
shapes = (
{
closed = 1;
nodes = (
(277,0,l),
(561,670,l),
(382,670,l),
(297,425,l),
(186,670,l),
(-4,670,l),
(214,266,l),
(104,0,l)
);
}
);
width = 557;
},
{
associatedMasterId = "FBD32BA2-3DE3-41DC-83E1-8A694E18FAAC";
layerId = "B3D4ADA9-354D-48A5-B259-5CFB778B5888";
name = "Mar 26 18, 13:43";
shapes = (
{
closed = 1;
nodes = (
(366,0,l),
(583,670,l),
(396,670,l),
(286,234,l),
(227,147,l),
(95,147,l),
(95,0,l)
);
},
{
closed = 1;
nodes = (
(330,246,l),
(196,670,l),
(-4,670,l),
(227,147,l)
);
}
);
width = 579;
},
{
associatedMasterId = "FBD32BA2-3DE3-41DC-83E1-8A694E18FAAC";
layerId = "8D05A1D2-CBB9-445D-A87D-4B8B679EB343";
name = "Nov 4 18, 21:52";
shapes = (
{
closed = 1;
nodes = (
(300,0,l),
(561,670,l),
(382,670,l),
(305,425,l),
(186,670,l),
(-4,670,l),
(228,266,l),
(127,0,l)
);
}
);
width = 557;
},
{
associatedMasterId = "FBD32BA2-3DE3-41DC-83E1-8A694E18FAAC";
layerId = "BDE1F6A8-C8D1-4F3D-A211-A7D1434C7574";
name = "Nov 4 18, 21:57";
shapes = (
{
closed = 1;
nodes = (
(372,0,l),
(372,299,l),
(198,299,l),
(198,0,l)
);
},
{
closed = 1;
nodes = (
(44,237,o),
(96,155,o),
(202,155,cs),
(233,155,o),
(261,162,o),
(285,177,c),
(309,162,o),
(337,155,o),
(368,155,cs),
(475,155,o),
(526,237,o),
(526,341,cs),
(526,671,l),
(342,671,l),
(342,416,ls),
(342,342,o),
(323,318,o),
(285,318,cs),
(247,318,o),
(228,342,o),
(228,416,cs),
(228,671,l),
(44,671,l),
(44,341,ls)
);
}
);
width = 557;
},
{
associatedMasterId = "FBD32BA2-3DE3-41DC-83E1-8A694E18FAAC";
layerId = "06C235D6-111C-405C-8BA6-2D0497870DE8";
name = "Nov 4 18, 22:03";
shapes = (
{
closed = 1;
nodes = (
(374,0,l),
(374,299,l),
(200,299,l),
(200,0,l)
);
},
{
closed = 1;
nodes = (
(16,303,o),
(60,155,o),
(239,155,cs),
(345,155,ls),
(525,155,o),
(558,303,o),
(558,397,cs),
(558,671,l),
(379,671,l),
(379,397,ls),
(379,323,o),
(337,299,o),
(287,299,cs),
(237,299,o),
(195,323,o),
(195,397,cs),
(195,671,l),
(16,671,l),
(16,397,ls)
);
}
);
width = 574;
},
{
associatedMasterId = "FBD32BA2-3DE3-41DC-83E1-8A694E18FAAC";
layerId = "2E1195CD-8386-41E9-842D-4F345B08F911";
name = "Nov 4 18, 22:15";
shapes = (
{
closed = 1;
nodes = (
(251,0,l),
(438,0,l),
(438,230,l),
(693,670,l),
(472,670,l),
(345,401,l),
(217,670,l),
(-4,670,l),
(251,230,l)
);
}
);
width = 689;
},
{
layerId = "061FC23D-6DC8-4BE4-BEC8-2F5AB93B127B";
shapes = (
{
closed = 1;
nodes = (
(49,670,l),
(339,268,l),
(629,670,l),
(678,670,l),
(360,229,l),
(360,0,l),
(318,0,l),
(318,229,l),
(0,670,l)
);
}
);
width = 678;
},
{
associatedMasterId = "061FC23D-6DC8-4BE4-BEC8-2F5AB93B127B";
layerId = "F81A234C-E693-4490-BD5D-010AE3604D87";
name = "Mar 26 18, 13:33";
shapes = (
{
closed = 1;
nodes = (
(372,0,l),
(372,299,l),
(198,299,l),
(198,0,l)
);
},
{
closed = 1;
nodes = (
(44,237,o),
(96,155,o),
(202,155,cs),
(233,155,o),
(261,162,o),
(285,177,c),
(309,162,o),
(337,155,o),
(368,155,cs),
(475,155,o),
(526,237,o),
(526,341,cs),
(526,671,l),
(342,671,l),
(342,416,ls),
(342,342,o),
(323,318,o),
(285,318,cs),
(247,318,o),
(228,342,o),
(228,416,cs),
(228,671,l),
(44,671,l),
(44,341,ls)
);
}
);
width = 557;
},
{
associatedMasterId = "061FC23D-6DC8-4BE4-BEC8-2F5AB93B127B";
layerId = "0BEAA78D-3584-45DA-88C5-5CF96D8BD153";
name = "Mar 26 18, 13:38";
shapes = (
{
closed = 1;
nodes = (
(324,0,l),
(521,670,l),
(334,670,l),
(242,266,l),
(137,0,l)
);
},
{
closed = 1;
nodes = (
(267,266,l),
(174,670,l),
(-16,670,l),
(112,266,l)
);
}
);
width = 505;
},
{
associatedMasterId = "061FC23D-6DC8-4BE4-BEC8-2F5AB93B127B";
layerId = "630938C3-57FC-4A65-8B33-A60FF6FC9790";
name = "Mar 26 18, 13:41";
shapes = (
{
closed = 1;
nodes = (
(354,0,l),
(561,670,l),
(374,670,l),
(274,234,l),
(215,147,l),
(83,147,l),
(83,0,l),
(167,0,l)
);
},
{
closed = 1;
nodes = (
(318,246,l),
(184,670,l),
(-16,670,l),
(215,147,l)
);
}
);
width = 545;
},
{
associatedMasterId = "061FC23D-6DC8-4BE4-BEC8-2F5AB93B127B";
layerId = "53F7B6D0-7662-4FA4-AB7D-3C1142C88D23";
name = "Mar 26 18, 13:43";
shapes = (
{
closed = 1;
nodes = (
(277,0,l),
(561,670,l),
(382,670,l),
(297,425,l),
(186,670,l),
(-4,670,l),
(214,266,l),
(104,0,l)
);
}
);
width = 557;
},
{
associatedMasterId = "061FC23D-6DC8-4BE4-BEC8-2F5AB93B127B";
layerId = "B6E090F8-DE39-4A0A-A8ED-495139AFDFB1";
name = "Mar 26 18, 13:43";
shapes = (
{
closed = 1;
nodes = (
(366,0,l),
(583,670,l),
(396,670,l),
(286,234,l),
(227,147,l),
(95,147,l),
(95,0,l)
);
},
{
closed = 1;
nodes = (
(330,246,l),
(196,670,l),
(-4,670,l),
(227,147,l)
);
}
);
width = 579;
},
{
associatedMasterId = "061FC23D-6DC8-4BE4-BEC8-2F5AB93B127B";
layerId = "58F31D79-AC83-4FF8-B04A-0DB0DAFD5EAA";
name = "Nov 4 18, 21:52";
shapes = (
{
closed = 1;
nodes = (
(300,0,l),
(561,670,l),
(382,670,l),
(305,425,l),
(186,670,l),
(-4,670,l),
(228,266,l),
(127,0,l)
);
}
);
width = 557;
},
{
associatedMasterId = "061FC23D-6DC8-4BE4-BEC8-2F5AB93B127B";
layerId = "437911E8-9156-48E9-BD3A-433320E8D8BE";
name = "Nov 4 18, 21:57";
shapes = (
{
closed = 1;
nodes = (
(372,0,l),
(372,299,l),
(198,299,l),
(198,0,l)
);
},
{
closed = 1;
nodes = (
(44,237,o),
(96,155,o),
(202,155,cs),
(233,155,o),
(261,162,o),
(285,177,c),
(309,162,o),
(337,155,o),
(368,155,cs),
(475,155,o),
(526,237,o),
(526,341,cs),
(526,671,l),
(342,671,l),
(342,416,ls),
(342,342,o),
(323,318,o),
(285,318,cs),
(247,318,o),
(228,342,o),
(228,416,cs),
(228,671,l),
(44,671,l),
(44,341,ls)
);
}
);
width = 557;
},
{
associatedMasterId = "061FC23D-6DC8-4BE4-BEC8-2F5AB93B127B";
layerId = "FE1AAB5E-9D92-4C1F-8AFE-E84DFBD412AB";
name = "Nov 4 18, 22:03";
shapes = (
{
closed = 1;
nodes = (
(374,0,l),
(374,299,l),
(200,299,l),
(200,0,l)
);
},
{
closed = 1;
nodes = (
(16,303,o),
(60,155,o),
(239,155,cs),
(345,155,ls),
(525,155,o),
(558,303,o),
(558,397,cs),
(558,671,l),
(379,671,l),
(379,397,ls),
(379,323,o),
(337,299,o),
(287,299,cs),
(237,299,o),
(195,323,o),
(195,397,cs),
(195,671,l),
(16,671,l),
(16,397,ls)
);
}
);
width = 574;
},
{
associatedMasterId = "061FC23D-6DC8-4BE4-BEC8-2F5AB93B127B";
layerId = "72F41D51-84C5-4A7D-8219-47466DD43C7A";
name = "Nov 4 18, 22:15";
shapes = (
{
closed = 1;
nodes = (
(251,0,l),
(438,0,l),
(438,230,l),
(693,670,l),
(472,670,l),
(345,401,l),
(217,670,l),
(-4,670,l),
(251,230,l)
);
}
);
width = 689;
},
{
anchors = (
{
name = top;
pos = (344,686);
}
);
associatedMasterId = "FBD32BA2-3DE3-41DC-83E1-8A694E18FAAC";
background = {
shapes = (
{
closed = 0;
nodes = (
(447,362,l)
);
},
{
closed = 0;
nodes = (
(251,362,l)
);
}
);
};
layerId = "48C4BD81-3CC6-4D83-AEF7-C574A814E4BE";
name = "Jun 28 19, 13:34";
shapes = (
{
closed = 1;
nodes = (
(447,242,ls),
(591,242,o),
(624,401,o),
(650,505,cs),
(692,670,l),
(524,670,ls),
(486,670,o),
(460,653,o),
(458,616,cs),
(448,421,ls),
(444,334,o),
(421,292,o),
(349,292,c),
(277,292,o),
(254,334,o),
(250,421,cs),
(240,616,ls),
(238,653,o),
(212,670,o),
(174,670,cs),
(6,670,l),
(48,505,ls),
(74,401,o),
(107,242,o),
(251,242,cs)
);
},
{
closed = 1;
nodes = (
(443,249,l),
(443,0,l),
(247,0,l),
(247,249,l)
);
}
);
width = 697;
},
{
anchors = (
{
name = top;
pos = (335,670);
}
);
associatedMasterId = "061FC23D-6DC8-4BE4-BEC8-2F5AB93B127B";
layerId = "26876D51-0976-462F-A129-D0CDD9031531";
name = "Jul 3 19, 01:06";
shapes = (
{
closed = 1;
nodes = (
(45,670,l),
(335,268,l),
(625,670,l),
(674,670,l),
(356,229,l),
(356,0,l),
(314,0,l),
(314,229,l),
(-4,670,l)
);
}
);
width = 670;
},
{
anchors = (
{
name = top;
pos = (396,686);
}
);
associatedMasterId = "FBD32BA2-3DE3-41DC-83E1-8A694E18FAAC";
layerId = "C7DA0F67-605F-4AF5-BE72-F8EFB3343306";
name = "Jul 3 19, 01:10";
shapes = (
{
closed = 1;
nodes = (
(432,0,l),
(432,379,l),
(236,379,l),
(236,0,l)
);
},
{
closed = 1;
nodes = (
(48,343,o),
(102,275,o),
(242,235,c),
(426,235,l),
(567,275,o),
(620,343,o),
(620,497,cs),
(620,671,l),
(441,671,l),
(441,477,ls),
(441,403,o),
(384,383,o),
(334,383,cs),
(284,383,o),
(227,403,o),
(227,477,cs),
(227,671,l),
(48,671,l),
(48,497,ls)
);
}
);
width = 678;
},
{
anchors = (
{
name = top;
pos = (322,686);
}
);
associatedMasterId = "FBD32BA2-3DE3-41DC-83E1-8A694E18FAAC";
layerId = "96DFC0A4-9422-4B80-9E61-CA40C592A846";
name = "Jul 6 19, 22:33";
shapes = (
{
closed = 1;
nodes = (
(420,0,l),
(420,329,l),
(224,329,l),
(224,0,l)
);
},
{
closed = 1;
nodes = (
(28,293,o),
(65,225,o),
(224,185,c),
(420,185,l),
(580,225,o),
(616,293,o),
(616,447,cs),
(616,671,l),
(443,671,l),
(443,427,ls),
(443,353,o),
(379,333,o),
(322,333,cs),
(265,333,o),
(201,353,o),
(201,427,cs),
(201,671,l),
(28,671,l),
(28,447,ls)
);
}
);
width = 644;
},
{
anchors = (
{
name = top;
pos = (344,686);
}
);
associatedMasterId = "FBD32BA2-3DE3-41DC-83E1-8A694E18FAAC";
layerId = "FCF35A4B-7666-45BA-ACD3-6814396C3DAB";
name = "Aug 1 19, 23:36";
shapes = (
{
closed = 1;
nodes = (
(210,670,l),
(345,369,l),
(487,670,l),
(701,670,l),
(443,209,l),
(443,0,l),
(247,0,l),
(247,209,l),
(-4,670,l)
);
}
);
width = 697;
},
{
anchors = (
{
name = top;
pos = (326,686);
}
);
annotations = (
{
pos = (-49.498,658.608);
type = Text;
},
{
pos = (199.694,508.272);
type = Text;
}
);
associatedMasterId = "FBD32BA2-3DE3-41DC-83E1-8A694E18FAAC";
layerId = "4DE5D209-4FFD-4768-83A9-D6F8FCA23FA0";
name = "Aug 1 19, 23:39";
shapes = (
{
closed = 1;
nodes = (
(86,0,l),
(93,0,o),
(275,0,o),
(332,0,cs),
(464,0,o),
(582,79,o),
(582,239,cs),
(582,670,l),
(398,670,l),
(398,363,l),
(408,351,l),
(408,259,ls),
(408,185,o),
(359,156,o),
(282,156,cs),
(254,156,o),
(115,156,o),
(86,156,c)
);
},
{
closed = 1;
nodes = (
(28,670,l),
(28,416,ls),
(28,292,o),
(107,210,o),
(222,210,cs),
(315,210,o),
(370,262,o),
(404,329,c),
(414,329,l),
(414,518,l),
(398,518,l),
(398,434,o),
(351,373,o),
(294,373,cs),
(253,373,o),
(212,406,o),
(212,478,c),
(212,670,l)
);
}
);
width = 610;
},
{
anchors = (
{
name = top;
pos = (303,670);
}
);
associatedMasterId = "061FC23D-6DC8-4BE4-BEC8-2F5AB93B127B";
layerId = "AFDF8383-E657-43BB-84AA-BA4BB6812ADA";
name = "Aug 1 19, 23:39";
shapes = (
{
closed = 1;
nodes = (
(326,0,l),
(326,269,l),
(282,269,l),
(282,0,l)
);
},
{
closed = 1;
nodes = (
(26,343,o),
(92,236,o),
(282,231,c),
(326,231,l),
(507,236,o),
(573,343,o),
(573,479,cs),
(573,671,l),
(529,671,l),
(529,479,ls),
(529,345,o),
(463,269,o),
(304,269,cs),
(135,269,o),
(70,345,o),
(70,479,cs),
(70,671,l),
(26,671,l),
(26,479,ls)
);
}
);
width = 599;
}
);
metricLeft = V;
metricRight = V;
unicode = 89;
},
{
glyphname = Z;
lastChange = "2019-07-03 22:38:22 +0000";
layers = (
{
layerId = "FBD32BA2-3DE3-41DC-83E1-8A694E18FAAC";
shapes = (
{
closed = 1;
nodes = (
(582,0,l),
(582,162,l),
(290,162,l),
(613,670,l),
(27,670,l),
(27,508,l),
(323,508,l),
(-4,0,l)
);
}
);
width = 609;
},
{
associatedMasterId = "FBD32BA2-3DE3-41DC-83E1-8A694E18FAAC";
layerId = "97841D69-EEED-4E06-9766-70566382870C";
name = "Aug 5 18, 15:29";
shapes = (
{
closed = 1;
nodes = (
(543,0,l),
(543,162,l),
(276,162,l),
(543,537,l),
(543,670,l),
(48,670,l),
(48,508,l),
(305,508,l),
(48,147,l),
(48,0,l)
);
}
);
width = 591;
},
{
associatedMasterId = "FBD32BA2-3DE3-41DC-83E1-8A694E18FAAC";
layerId = "31F1CC2D-E186-4905-B3F8-500A1CA3009C";
name = "Aug 5 18, 15:32";
shapes = (
{
closed = 1;
nodes = (
(521,0,l),
(521,162,l),
(274,162,l),
(551,670,l),
(26,670,l),
(26,508,l),
(263,508,l),
(-4,0,l)
);
}
);
width = 547;
},
{
layerId = "061FC23D-6DC8-4BE4-BEC8-2F5AB93B127B";
shapes = (
{
closed = 1;
nodes = (
(556,0,l),
(556,42,l),
(84,42,l),
(587,670,l),
(31,670,l),
(31,628,l),
(503,628,l),
(0,0,l)
);
}
);
width = 587;
},
{
associatedMasterId = "061FC23D-6DC8-4BE4-BEC8-2F5AB93B127B";
layerId = "DDDFB14A-F3FA-4257-AF4B-84A2F8FE9E31";
name = "Aug 5 18, 15:29";
shapes = (
{
closed = 1;
nodes = (
(543,0,l),
(543,162,l),
(276,162,l),
(543,537,l),
(543,670,l),
(48,670,l),
(48,508,l),
(305,508,l),
(48,147,l),
(48,0,l)
);
}
);
width = 591;
},
{
associatedMasterId = "061FC23D-6DC8-4BE4-BEC8-2F5AB93B127B";
layerId = "7C8A40B4-3C73-4F99-8A2F-9E870FFCFA6A";
name = "Aug 5 18, 15:32";
shapes = (
{
closed = 1;
nodes = (
(521,0,l),
(521,162,l),
(274,162,l),
(551,670,l),
(26,670,l),
(26,508,l),
(263,508,l),
(-4,0,l)
);
}
);
width = 547;
},
{
associatedMasterId = "FBD32BA2-3DE3-41DC-83E1-8A694E18FAAC";
layerId = "4E94A906-21F7-44D2-8569-8ABDF98E2424";
name = "Jul 4 19, 00:38";
shapes = (
{
closed = 1;
nodes = (
(512,0,l),
(512,162,l),
(270,162,l),
(543,670,l),
(27,670,l),
(27,508,l),
(253,508,l),
(-4,0,l)
);
}
);
width = 539;
}
);
metricLeft = V;
metricRight = V;
unicode = 90;
},
{
color = 8;
glyphname = a;
kernLeft = rounded;
kernRight = lowcaseStraight;
lastChange = "2019-06-27 11:28:37 +0000";
layers = (
{
anchors = (
{
name = top;
pos = (322,516);
}
);
layerId = "FBD32BA2-3DE3-41DC-83E1-8A694E18FAAC";
shapes = (
{
closed = 1;
nodes = (
(606,0,l),
(606,500,l),
(432,500,l),
(432,403,l),
(422,391,l),
(422,0,l)
);
},
{
ref = bowl;
}
);
width = 650;
},
{
associatedMasterId = "FBD32BA2-3DE3-41DC-83E1-8A694E18FAAC";
layerId = "1C0CABD6-0DB2-4EE5-8C50-803B113E8F1E";
name = "Apr 28 18, 00:48";
shapes = (
{
closed = 1;
nodes = (
(530,0,l),
(530,500,l),
(356,500,l),
(356,403,l),
(346,391,l),
(346,0,l)
);
},
{
pos = (-16,0);
ref = bowl;
}
);
width = 576;
},
{
associatedMasterId = "FBD32BA2-3DE3-41DC-83E1-8A694E18FAAC";
layerId = "31FF9BA0-1A00-4D62-BB32-D2FF530133C8";
name = "Apr 28 18, 01:00";
shapes = (
{
closed = 1;
nodes = (
(334,305,o),
(251,324,o),
(196,324,cs),
(81,324,o),
(30,242,o),
(30,152,cs),
(30,52,o),
(93,-16,o),
(185,-16,cs),
(254,-16,o),
(318,23,o),
(334,106,c),
(327,161,l),
(312,125,o),
(281,120,o),
(262,120,cs),
(230,120,o),
(210,134,o),
(210,158,cs),
(210,181,o),
(229,194,o),
(262,194,cs),
(283,194,o),
(308,189,o),
(327,161,c),
(361,228,l)
);
},
{
closed = 1;
nodes = (
(238,355,l),
(244,373,o),
(260,384,o),
(285,384,cs),
(310,384,o),
(327,365,o),
(327,335,cs),
(327,0,l),
(510,0,l),
(510,318,ls),
(510,416,o),
(451,516,o),
(277,516,cs),
(134,516,o),
(50,446,o),
(39,355,c)
);
}
);
width = 556;
},
{
associatedMasterId = "FBD32BA2-3DE3-41DC-83E1-8A694E18FAAC";
layerId = "3EFE381C-F3B5-486A-B020-6FFF6419C32A";
name = "Apr 28 18, 01:10";
shapes = (
{
closed = 1;
nodes = (
(332,305,o),
(249,324,o),
(194,324,cs),
(79,324,o),
(28,242,o),
(28,152,cs),
(28,52,o),
(91,-16,o),
(183,-16,cs),
(252,-16,o),
(316,23,o),
(332,106,c),
(325,161,l),
(310,125,o),
(279,120,o),
(260,120,cs),
(228,120,o),
(208,134,o),
(208,158,cs),
(208,181,o),
(227,194,o),
(260,194,cs),
(281,194,o),
(306,189,o),
(325,161,c),
(359,228,l)
);
},
{
closed = 1;
nodes = (
(259,500,l),
(120,500,o),
(56,423,o),
(56,358,c),
(96,378,o),
(145,391,o),
(190,391,cs),
(263,391,o),
(325,359,o),
(325,280,c),
(325,60,ls),
(325,24,o),
(335,10,o),
(349,0,c),
(528,0,l),
(512,15,o),
(508,34,o),
(508,57,cs),
(508,282,ls),
(508,400,o),
(449,500,o),
(275,500,c)
);
}
);
width = 545;
},
{
associatedMasterId = "FBD32BA2-3DE3-41DC-83E1-8A694E18FAAC";
layerId = "8CF12CE8-5651-4155-8F9C-FA5ECD93307A";
name = "Apr 28 18, 01:13";
shapes = (
{
closed = 1;
nodes = (
(332,305,o),
(249,324,o),
(194,324,cs),
(79,324,o),
(28,242,o),
(28,152,cs),
(28,52,o),
(91,-16,o),
(183,-16,cs),
(252,-16,o),
(316,23,o),
(332,106,c),
(325,161,l),
(310,125,o),
(279,120,o),
(260,120,cs),
(228,120,o),
(208,134,o),
(208,158,cs),
(208,181,o),
(227,194,o),
(260,194,cs),
(281,194,o),
(306,189,o),
(325,161,c),
(359,228,l)
);
},
{
closed = 1;
nodes = (
(254,500,l),
(164,500,o),
(103,477,o),
(56,456,c),
(56,420,o),
(56,374,o),
(56,348,c),
(96,368,o),
(144,381,o),
(191,381,cs),
(264,381,o),
(325,349,o),
(325,290,cs),
(325,60,ls),
(325,24,o),
(335,10,o),
(349,0,c),
(528,0,l),
(512,15,o),
(508,34,o),
(508,57,cs),
(508,282,ls),
(508,400,o),
(449,500,o),
(259,500,c)
);
}
);
width = 545;
},
{
associatedMasterId = "FBD32BA2-3DE3-41DC-83E1-8A694E18FAAC";
layerId = "BE8EB99B-D600-4425-8889-11F52245C2E0";
name = "Apr 28 18, 01:17";
shapes = (
{
closed = 1;
nodes = (
(255,516,c),
(159,516,o),
(103,491,o),
(56,460,c),
(56,348,l),
(96,368,o),
(144,381,o),
(191,381,cs),
(264,381,o),
(325,349,o),
(325,290,cs),
(325,60,ls),
(325,24,o),
(335,10,o),
(349,0,c),
(528,0,l),
(512,15,o),
(508,34,o),
(508,57,cs),
(508,298,ls),
(508,440,o),
(421,516,o)
);
},
{
closed = 1;
nodes = (
(332,305,o),
(249,314,o),
(204,314,cs),
(79,314,o),
(28,242,o),
(28,152,cs),
(28,52,o),
(91,-16,o),
(183,-16,cs),
(252,-16,o),
(316,23,o),
(332,106,c),
(325,161,l),
(310,125,o),
(279,120,o),
(260,120,cs),
(228,120,o),
(208,134,o),
(208,158,cs),
(208,181,o),
(227,194,o),
(260,194,cs),
(281,194,o),
(306,189,o),
(325,161,c),
(359,228,l)
);
}
);
width = 545;
},
{
associatedMasterId = "FBD32BA2-3DE3-41DC-83E1-8A694E18FAAC";
layerId = "17C783D3-697A-470B-B450-4B6CC1A5C9CC";
name = "Aug 5 18, 14:39";
shapes = (
{
closed = 1;
nodes = (
(606,0,l),
(606,500,l),
(432,500,l),
(432,403,l),
(422,391,l),
(422,0,l)
);
},
{
ref = bowl;
}
);
width = 652;
},
{
associatedMasterId = "FBD32BA2-3DE3-41DC-83E1-8A694E18FAAC";
layerId = "AC64224B-CBE1-4126-B263-4FF003215124";
name = "Sep 3 18, 22:12";
shapes = (
{
closed = 1;
nodes = (
(606,0,l),
(606,500,l),
(432,500,l),
(432,403,l),
(422,391,l),
(422,0,l)
);
},
{
ref = bowl;
}
);
width = 652;
},
{
anchors = (
{
name = top;
pos = (282,500);
}
);
layerId = "061FC23D-6DC8-4BE4-BEC8-2F5AB93B127B";
shapes = (
{
closed = 1;
nodes = (
(524,0,l),
(524,500,l),
(488,500,l),
(488,375,l),
(484,363,l),
(484,0,l)
);
},
{
pos = (32,0);
ref = bowl;
}
);
width = 590;
},
{
associatedMasterId = "061FC23D-6DC8-4BE4-BEC8-2F5AB93B127B";
layerId = "89298261-9DD3-4721-A495-97646BA5C17D";
name = "Apr 28 18, 00:48";
shapes = (
{
closed = 1;
nodes = (
(530,0,l),
(530,500,l),
(356,500,l),
(356,403,l),
(346,391,l),
(346,0,l)
);
},
{
pos = (-16,0);
ref = bowl;
}
);
width = 576;
},
{
associatedMasterId = "061FC23D-6DC8-4BE4-BEC8-2F5AB93B127B";
layerId = "D78F3F86-65C9-4A7D-A911-6D48F27F81A1";
name = "Apr 28 18, 01:00";
shapes = (
{
closed = 1;
nodes = (
(334,305,o),
(251,324,o),
(196,324,cs),
(81,324,o),
(30,242,o),
(30,152,cs),
(30,52,o),
(93,-16,o),
(185,-16,cs),
(254,-16,o),
(318,23,o),
(334,106,c),
(327,161,l),
(312,125,o),
(281,120,o),
(262,120,cs),
(230,120,o),
(210,134,o),
(210,158,cs),
(210,181,o),
(229,194,o),
(262,194,cs),
(283,194,o),
(308,189,o),
(327,161,c),
(361,228,l)
);
},
{
closed = 1;
nodes = (
(238,355,l),
(244,373,o),
(260,384,o),
(285,384,cs),
(310,384,o),
(327,365,o),
(327,335,cs),
(327,0,l),
(510,0,l),
(510,318,ls),
(510,416,o),
(451,516,o),
(277,516,cs),
(134,516,o),
(50,446,o),
(39,355,c)
);
}
);
width = 556;
},
{
associatedMasterId = "061FC23D-6DC8-4BE4-BEC8-2F5AB93B127B";
layerId = "0C67BF1F-9F96-47C6-BBF0-D932F05683F8";
name = "Apr 28 18, 01:10";
shapes = (
{
closed = 1;
nodes = (
(332,305,o),
(249,324,o),
(194,324,cs),
(79,324,o),
(28,242,o),
(28,152,cs),
(28,52,o),
(91,-16,o),
(183,-16,cs),
(252,-16,o),
(316,23,o),
(332,106,c),
(325,161,l),
(310,125,o),
(279,120,o),
(260,120,cs),
(228,120,o),
(208,134,o),
(208,158,cs),
(208,181,o),
(227,194,o),
(260,194,cs),
(281,194,o),
(306,189,o),
(325,161,c),
(359,228,l)
);
},
{
closed = 1;
nodes = (
(259,500,l),
(120,500,o),
(56,423,o),
(56,358,c),
(96,378,o),
(145,391,o),
(190,391,cs),
(263,391,o),
(325,359,o),
(325,280,c),
(325,60,ls),
(325,24,o),
(335,10,o),
(349,0,c),
(528,0,l),
(512,15,o),
(508,34,o),
(508,57,cs),
(508,282,ls),
(508,400,o),
(449,500,o),
(275,500,c)
);
}
);
width = 545;
},
{
associatedMasterId = "061FC23D-6DC8-4BE4-BEC8-2F5AB93B127B";
layerId = "359D2C50-CFA9-43DF-AE58-323717A4188E";
name = "Apr 28 18, 01:13";
shapes = (
{
closed = 1;
nodes = (
(332,305,o),
(249,324,o),
(194,324,cs),
(79,324,o),
(28,242,o),
(28,152,cs),
(28,52,o),
(91,-16,o),
(183,-16,cs),
(252,-16,o),
(316,23,o),
(332,106,c),
(325,161,l),
(310,125,o),
(279,120,o),
(260,120,cs),
(228,120,o),
(208,134,o),
(208,158,cs),
(208,181,o),
(227,194,o),
(260,194,cs),
(281,194,o),
(306,189,o),
(325,161,c),
(359,228,l)
);
},
{
closed = 1;
nodes = (
(254,500,l),
(164,500,o),
(103,477,o),
(56,456,c),
(56,420,o),
(56,374,o),
(56,348,c),
(96,368,o),
(144,381,o),
(191,381,cs),
(264,381,o),
(325,349,o),
(325,290,cs),
(325,60,ls),
(325,24,o),
(335,10,o),
(349,0,c),
(528,0,l),
(512,15,o),
(508,34,o),
(508,57,cs),
(508,282,ls),
(508,400,o),
(449,500,o),
(259,500,c)
);
}
);
width = 545;
},
{
associatedMasterId = "061FC23D-6DC8-4BE4-BEC8-2F5AB93B127B";
layerId = "E61D63AE-B4C7-41CC-9DBF-540018995F47";
name = "Apr 28 18, 01:17";
shapes = (
{
closed = 1;
nodes = (
(255,516,c),
(159,516,o),
(103,491,o),
(56,460,c),
(56,348,l),
(96,368,o),
(144,381,o),
(191,381,cs),
(264,381,o),
(325,349,o),
(325,290,cs),
(325,60,ls),
(325,24,o),
(335,10,o),
(349,0,c),
(528,0,l),
(512,15,o),
(508,34,o),
(508,57,cs),
(508,298,ls),
(508,440,o),
(421,516,o)
);
},
{
closed = 1;
nodes = (
(332,305,o),
(249,314,o),
(204,314,cs),
(79,314,o),
(28,242,o),
(28,152,cs),
(28,52,o),
(91,-16,o),
(183,-16,cs),
(252,-16,o),
(316,23,o),
(332,106,c),
(325,161,l),
(310,125,o),
(279,120,o),
(260,120,cs),
(228,120,o),
(208,134,o),
(208,158,cs),
(208,181,o),
(227,194,o),
(260,194,cs),
(281,194,o),
(306,189,o),
(325,161,c),
(359,228,l)
);
}
);
width = 545;
},
{
associatedMasterId = "061FC23D-6DC8-4BE4-BEC8-2F5AB93B127B";
layerId = "AF981DA3-5867-49DE-B04C-FA2538BC5042";
name = "Aug 5 18, 14:39";
shapes = (
{
closed = 1;
nodes = (
(606,0,l),
(606,500,l),
(432,500,l),
(432,403,l),
(422,391,l),
(422,0,l)
);
},
{
ref = bowl;
}
);
width = 652;
},
{
associatedMasterId = "061FC23D-6DC8-4BE4-BEC8-2F5AB93B127B";
layerId = "93908AD6-254E-4408-A308-D925A3C42F5A";
name = "Sep 3 18, 22:12";
shapes = (
{
closed = 1;
nodes = (
(606,0,l),
(606,500,l),
(432,500,l),
(432,403,l),
(422,391,l),
(422,0,l)
);
},
{
ref = bowl;
}
);
width = 652;
}
);
metricLeft = o;
metricRight = n;
unicode = 97;
},
{
color = 8;
glyphname = b;
kernLeft = lowcaseStraight;
kernRight = rounded;
lastChange = "2019-02-04 09:08:52 +0000";
layers = (
{
layerId = "FBD32BA2-3DE3-41DC-83E1-8A694E18FAAC";
shapes = (
{
closed = 1;
nodes = (
(218,0,l),
(218,177,l),
(228,189,l),
(228,670,l),
(44,670,l),
(44,0,l)
);
},
{
angle = 180;
pos = (650,500);
ref = bowl;
}
);
width = 650;
},
{
layerId = "061FC23D-6DC8-4BE4-BEC8-2F5AB93B127B";
shapes = (
{
closed = 1;
nodes = (
(104,0,l),
(104,177,l),
(108,189,l),
(108,670,l),
(64,670,l),
(64,0,l)
);
},
{
angle = 180;
pos = (560,500);
ref = bowl;
}
);
width = 592;
}
);
metricLeft = n;
metricRight = o;
unicode = 98;
},
{
color = 1;
glyphname = c;
kernLeft = rounded;
kernRight = rounded;
lastChange = "2020-01-22 10:06:53 +0000";
layers = (
{
background = {
shapes = (
{
closed = 0;
nodes = (
(257,259,l)
);
},
{
closed = 0;
nodes = (
(257,241,l)
);
}
);
};
layerId = "FBD32BA2-3DE3-41DC-83E1-8A694E18FAAC";
shapes = (
{
closed = 1;
nodes = (
(437,-16,o),
(550,69,o),
(563,215,c),
(391,215,l),
(381,157,o),
(341,135,o),
(296,135,cs),
(231,135,o),
(189,182,o),
(189,251,cs),
(189,319,o),
(229,365,o),
(294,365,cs),
(340,365,o),
(383,343,o),
(393,284,c),
(564,284,l),
(552,430,o),
(438,516,o),
(296,516,cs),
(136,516,o),
(24,406,o),
(24,251,cs),
(24,94,o),
(136,-16,o),
(296,-16,cs)
);
}
);
width = 588;
},
{
associatedMasterId = "FBD32BA2-3DE3-41DC-83E1-8A694E18FAAC";
layerId = "6808D74F-25CE-4FCB-893F-094B81AB0E16";
name = "Jul 31 18, 00:05";
shapes = (
{
closed = 1;
nodes = (
(377,-16,o),
(497,40,o),
(514,193,c),
(338,193,l),
(338,183,ls),
(338,124,o),
(310,104,o),
(276,104,cs),
(237,104,o),
(212,134,o),
(212,199,cs),
(212,299,ls),
(212,364,o),
(237,396,o),
(276,396,cs),
(312,396,o),
(339,368,o),
(339,299,cs),
(339,289,l),
(516,289,l),
(507,456,o),
(381,516,o),
(272,516,cs),
(159,516,o),
(28,451,o),
(28,270,cs),
(28,230,ls),
(28,49,o),
(159,-16,o),
(272,-16,cs)
);
}
);
width = 544;
},
{
associatedMasterId = "FBD32BA2-3DE3-41DC-83E1-8A694E18FAAC";
layerId = "90FCFF5D-356B-4298-A6B5-F1510B87E9FB";
name = "Jul 31 18, 00:18";
shapes = (
{
closed = 1;
nodes = (
(567,297,l),
(555,458,o),
(433,516,o),
(296,516,cs),
(152,516,o),
(24,451,o),
(24,270,cs),
(24,230,ls),
(24,49,o),
(152,-16,o),
(296,-16,cs),
(434,-16,o),
(556,43,o),
(567,205,c),
(393,205,l),
(385,129,o),
(342,104,o),
(296,104,cs),
(245,104,o),
(198,134,o),
(198,230,cs),
(198,268,ls),
(198,364,o),
(245,396,o),
(296,396,cs),
(341,396,o),
(384,371,o),
(392,297,c)
);
}
);
width = 591;
},
{
layerId = "061FC23D-6DC8-4BE4-BEC8-2F5AB93B127B";
shapes = (
{
closed = 1;
nodes = (
(430,-8,o),
(531,94,o),
(525,206,c),
(486,206,l),
(483,116,o),
(407,30,o),
(282,30,cs),
(156,30,o),
(72,117,o),
(72,250,cs),
(72,381,o),
(155,470,o),
(282,470,cs),
(415,470,o),
(479,373,o),
(484,288,c),
(523,288,l),
(515,394,o),
(439,508,o),
(282,508,cs),
(132,508,o),
(32,405,o),
(32,251,cs),
(32,97,o),
(132,-8,o),
(282,-8,cs)
);
}
);
width = 557;
},
{
associatedMasterId = "061FC23D-6DC8-4BE4-BEC8-2F5AB93B127B";
layerId = "8E81D11A-329D-4EB2-9CC2-5C9011F71EF2";
name = "Jul 31 18, 00:05";
shapes = (
{
closed = 1;
nodes = (
(377,-16,o),
(497,40,o),
(514,193,c),
(338,193,l),
(338,183,ls),
(338,124,o),
(310,104,o),
(276,104,cs),
(237,104,o),
(212,134,o),
(212,199,cs),
(212,299,ls),
(212,364,o),
(237,396,o),
(276,396,cs),
(312,396,o),
(339,368,o),
(339,299,cs),
(339,289,l),
(516,289,l),
(507,456,o),
(381,516,o),
(272,516,cs),
(159,516,o),
(28,451,o),
(28,270,cs),
(28,230,ls),
(28,49,o),
(159,-16,o),
(272,-16,cs)
);
}
);
width = 544;
},
{
associatedMasterId = "061FC23D-6DC8-4BE4-BEC8-2F5AB93B127B";
layerId = "43949724-63A2-4E58-85D1-E711EC862446";
name = "Jul 31 18, 00:18";
shapes = (
{
closed = 1;
nodes = (
(567,297,l),
(555,458,o),
(433,516,o),
(296,516,cs),
(152,516,o),
(24,451,o),
(24,270,cs),
(24,230,ls),
(24,49,o),
(152,-16,o),
(296,-16,cs),
(434,-16,o),
(556,43,o),
(567,205,c),
(393,205,l),
(385,129,o),
(342,104,o),
(296,104,cs),
(245,104,o),
(198,134,o),
(198,230,cs),
(198,268,ls),
(198,364,o),
(245,396,o),
(296,396,cs),
(341,396,o),
(384,371,o),
(392,297,c)
);
}
);
width = 591;
},
{
associatedMasterId = "FBD32BA2-3DE3-41DC-83E1-8A694E18FAAC";
layerId = "71E75CE7-F1C6-4656-A552-0D7AEA7D9C1C";
name = "Jul 3 19, 01:34";
shapes = (
{
closed = 1;
nodes = (
(437,-16,o),
(540,69,o),
(563,195,c),
(391,195,l),
(374,157,o),
(339,135,o),
(296,135,cs),
(233,135,o),
(189,182,o),
(189,251,cs),
(189,319,o),
(233,365,o),
(296,365,cs),
(340,365,o),
(375,342,o),
(393,304,c),
(564,304,l),
(542,430,o),
(438,516,o),
(296,516,cs),
(136,516,o),
(24,406,o),
(24,251,cs),
(24,94,o),
(136,-16,o),
(296,-16,cs)
);
}
);
width = 588;
},
{
associatedMasterId = "FBD32BA2-3DE3-41DC-83E1-8A694E18FAAC";
layerId = "E01E193D-9335-4FA8-8F83-255816BFA275";
name = "Aug 19 19, 23:01";
shapes = (
{
closed = 1;
nodes = (
(437,-16,o),
(550,69,o),
(563,215,c),
(391,215,l),
(381,157,o),
(341,135,o),
(296,135,cs),
(231,135,o),
(189,182,o),
(189,251,cs),
(189,319,o),
(229,365,o),
(294,365,cs),
(340,365,o),
(383,343,o),
(393,284,c),
(564,284,l),
(552,430,o),
(438,516,o),
(296,516,cs),
(136,516,o),
(24,406,o),
(24,251,cs),
(24,94,o),
(136,-16,o),
(296,-16,cs)
);
}
);
width = 588;
},
{
associatedMasterId = "FBD32BA2-3DE3-41DC-83E1-8A694E18FAAC";
background = {
shapes = (
{
closed = 0;
nodes = (
(196,259,l)
);
},
{
closed = 0;
nodes = (
(196,241,l)
);
}
);
};
layerId = "62142787-1666-422B-8CF9-CCEBC786E132";
name = "Aug 20 19, 10:38";
shapes = (
{
closed = 1;
nodes = (
(24,82,o),
(130,-16,o),
(324,-16,cs),
(436,-16,o),
(502,16,o),
(522,30,c),
(522,198,l),
(492,168,o),
(438,124,o),
(348,124,cs),
(272,124,o),
(196,156,o),
(196,250,cs),
(196,344,o),
(272,376,o),
(348,376,cs),
(438,376,o),
(492,332,o),
(522,302,c),
(522,470,l),
(502,484,o),
(436,516,o),
(324,516,cs),
(130,516,o),
(24,418,o),
(24,250,cs)
);
}
);
width = 546;
},
{
associatedMasterId = "FBD32BA2-3DE3-41DC-83E1-8A694E18FAAC";
background = {
shapes = (
{
closed = 0;
nodes = (
(257,259,l)
);
},
{
closed = 0;
nodes = (
(257,241,l)
);
}
);
};
layerId = "17132E64-34D8-460F-8684-D0585DED0FF6";
name = "Oct 25 19, 13:32";
shapes = (
{
closed = 1;
nodes = (
(498,480,l),
(448,505,o),
(390,515,o),
(328,515,cs),
(166,515,o),
(24,446,o),
(24,249,cs),
(24,52,o),
(166,-17,o),
(332,-17,cs),
(390,-17,o),
(448,-9,o),
(498,14,c),
(498,169,l),
(459,140,o),
(398,126,o),
(343,126,cs),
(248,126,o),
(188,169,o),
(188,249,cs),
(188,329,o),
(248,372,o),
(343,372,cs),
(398,372,o),
(459,357,o),
(498,329,c)
);
}
);
width = 522;
}
);
metricLeft = o;
metricRight = o;
unicode = 99;
},
{
color = 8;
glyphname = d;
kernLeft = rounded;
kernRight = lowcaseStraight;
lastChange = "2019-06-27 11:28:37 +0000";
layers = (
{
layerId = "FBD32BA2-3DE3-41DC-83E1-8A694E18FAAC";
shapes = (
{
closed = 1;
nodes = (
(606,0,l),
(606,670,l),
(422,670,l),
(422,139,l),
(432,127,l),
(432,0,l)
);
},
{
pos = (0,500);
ref = bowl;
scale = (1,-1);
}
);
width = 650;
},
{
layerId = "061FC23D-6DC8-4BE4-BEC8-2F5AB93B127B";
shapes = (
{
closed = 1;
nodes = (
(528,0,l),
(528,670,l),
(484,670,l),
(484,139,l),
(488,127,l),
(488,0,l)
);
},
{
pos = (32,500);
ref = bowl;
scale = (1,-1);
}
);
width = 594;
}
);
metricLeft = o;
metricRight = n;
unicode = 100;
},
{
color = 1;
glyphname = e;
kernLeft = rounded;
kernRight = rounded;
lastChange = "2024-05-14 13:08:35 +0000";
layers = (
{
anchors = (
{
name = top;
pos = (296,516);
}
);
background = {
shapes = (
{
closed = 0;
nodes = (
(563,308,l),
(563,308,l)
);
}
);
};
layerId = "FBD32BA2-3DE3-41DC-83E1-8A694E18FAAC";
shapes = (
{
closed = 1;
nodes = (
(416,-16,o),
(517,35,o),
(555,159,c),
(396,159,l),
(373,117,o),
(333,108,o),
(302,108,cs),
(236,108,o),
(200,150,o),
(190,196,c),
(564,196,l),
(567,214,o),
(568,231,o),
(568,249,cs),
(568,411,o),
(458,516,o),
(296,516,cs),
(136,516,o),
(24,410,o),
(24,252,cs),
(24,98,o),
(126,-16,o),
(299,-16,cs)
);
},
{
closed = 1;
nodes = (
(485,308,l),
(191,308,l),
(201,353,o),
(236,385,o),
(296,385,cs),
(386,385,o),
(408,312,o),
(396,256,c)
);
}
);
width = 588;
},
{
associatedMasterId = "FBD32BA2-3DE3-41DC-83E1-8A694E18FAAC";
layerId = "45925E3B-B1BF-4BAB-9D14-3A578E7E03D8";
name = "Jul 31 18, 00:06";
shapes = (
{
closed = 1;
nodes = (
(387,-16,o),
(497,36,o),
(520,175,c),
(337,175,l),
(337,138,o),
(317,104,o),
(277,104,cs),
(239,104,o),
(212,135,o),
(212,202,cs),
(212,302,ls),
(212,354,o),
(234,396,o),
(276,396,cs),
(314,396,o),
(338,362,o),
(338,298,c),
(198,298,l),
(198,217,l),
(524,217,l),
(524,269,ls),
(524,451,o),
(389,516,o),
(276,516,cs),
(163,516,o),
(28,451,o),
(28,270,cs),
(28,230,ls),
(28,49,o),
(163,-16,o),
(281,-16,cs)
);
}
);
width = 548;
},
{
associatedMasterId = "FBD32BA2-3DE3-41DC-83E1-8A694E18FAAC";
background = {
shapes = (
{
closed = 0;
nodes = (
(338,298,l)
);
},
{
closed = 0;
nodes = (
(524,269,ls)
);
}
);
};
layerId = "080267F0-5127-44A8-9563-54A7F9AD7BD5";
name = "Jul 31 18, 00:16";
shapes = (
{
closed = 1;
nodes = (
(24,57,o),
(152,-16,o),
(296,-16,cs),
(434,-16,o),
(567,66,o),
(567,205,c),
(393,205,l),
(385,129,o),
(342,104,o),
(296,104,cs),
(247,104,o),
(202,131,o),
(198,237,c),
(567,237,l),
(567,408,o),
(490,516,o),
(296,516,cs),
(105,516,o),
(24,406,o),
(24,250,cs)
);
},
{
closed = 1;
nodes = (
(209,371,o),
(251,396,o),
(296,396,cs),
(341,396,o),
(384,371,o),
(392,297,c),
(200,298,l)
);
}
);
width = 587;
},
{
associatedMasterId = "FBD32BA2-3DE3-41DC-83E1-8A694E18FAAC";
background = {
shapes = (
{
closed = 0;
nodes = (
(338,298,l)
);
},
{
closed = 0;
nodes = (
(524,269,ls)
);
}
);
};
layerId = "AD01E59C-FA4B-483E-BA47-2F701DB8132E";
name = "Jul 31 18, 00:19";
shapes = (
{
closed = 1;
nodes = (
(24,57,o),
(152,-16,o),
(296,-16,cs),
(434,-16,o),
(567,66,o),
(567,205,c),
(393,205,l),
(385,129,o),
(342,104,o),
(296,104,cs),
(247,104,o),
(202,131,o),
(198,237,c),
(567,237,l),
(567,408,o),
(490,516,o),
(296,516,cs),
(105,516,o),
(24,406,o),
(24,250,cs)
);
},
{
closed = 1;
nodes = (
(209,371,o),
(251,396,o),
(296,396,cs),
(341,396,o),
(384,371,o),
(392,297,c),
(200,298,l)
);
}
);
width = 587;
},
{
associatedMasterId = "FBD32BA2-3DE3-41DC-83E1-8A694E18FAAC";
background = {
shapes = (
{
closed = 0;
nodes = (
(338,298,l)
);
},
{
closed = 0;
nodes = (
(524,269,ls)
);
}
);
};
layerId = "6757FB46-DD23-4ADB-8A0B-428568468A7A";
name = "Aug 5 18, 14:40";
shapes = (
{
closed = 1;
nodes = (
(568,253,l),
(567,407,o),
(455,516,o),
(296,516,cs),
(136,516,o),
(24,406,o),
(24,251,cs),
(24,94,o),
(136,-16,o),
(296,-16,cs),
(434,-16,o),
(536,66,o),
(562,189,c),
(390,184,l),
(370,152,o),
(337,133,o),
(296,133,cs),
(232,133,o),
(186,180,o),
(186,251,cs),
(186,321,o),
(232,367,o),
(296,367,cs),
(360,367,o),
(405,321,o),
(406,253,c)
);
},
{
closed = 1;
nodes = (
(118,228,l),
(568,228,l),
(568,253,l),
(496,287,l),
(118,287,l)
);
}
);
width = 588;
},
{
associatedMasterId = "FBD32BA2-3DE3-41DC-83E1-8A694E18FAAC";
background = {
shapes = (
{
closed = 0;
nodes = (
(338,298,l)
);
},
{
closed = 0;
nodes = (
(524,269,ls)
);
}
);
};
layerId = "A228109B-1490-47DB-867C-119D5D5DD865";
name = "Nov 4 18, 20:51";
shapes = (
{
closed = 1;
nodes = (
(568,253,l),
(567,407,o),
(455,516,o),
(296,516,cs),
(136,516,o),
(24,406,o),
(24,251,cs),
(24,94,o),
(136,-16,o),
(298,-16,cs),
(434,-16,o),
(536,61,o),
(562,184,c),
(390,184,l),
(370,142,o),
(337,123,o),
(296,123,cs),
(232,123,o),
(186,170,o),
(186,251,cs),
(186,331,o),
(232,377,o),
(296,377,cs),
(360,377,o),
(405,331,o),
(406,253,c)
);
},
{
closed = 1;
nodes = (
(118,228,l),
(568,228,l),
(568,253,l),
(496,287,l),
(118,287,l)
);
}
);
width = 588;
},
{
anchors = (
{
name = top;
pos = (282,516);
}
);
background = {
shapes = (
{
closed = 0;
nodes = (
(346,298,l)
);
},
{
closed = 0;
nodes = (
(532,269,ls)
);
}
);
};
layerId = "061FC23D-6DC8-4BE4-BEC8-2F5AB93B127B";
shapes = (
{
closed = 1;
nodes = (
(401,-8,o),
(493,59,o),
(524,163,c),
(482,163,l),
(463,112,o),
(408,30,o),
(282,30,cs),
(157,30,o),
(73,110,o),
(72,232,c),
(532,232,l),
(533,240,o),
(534,250,o),
(534,264,cs),
(534,405,o),
(432,508,o),
(282,508,cs),
(132,508,o),
(32,405,o),
(32,251,cs),
(32,97,o),
(132,-8,o),
(282,-8,cs)
);
},
{
closed = 1;
nodes = (
(510,270,l),
(72,270,l),
(73,392,o),
(160,470,o),
(282,470,cs),
(406,470,o),
(493,392,o),
(493,256,c)
);
}
);
width = 560;
},
{
associatedMasterId = "061FC23D-6DC8-4BE4-BEC8-2F5AB93B127B";
layerId = "7A6BBA05-0F1D-42C4-90A8-FE997630677B";
name = "Jul 31 18, 00:06";
shapes = (
{
closed = 1;
nodes = (
(387,-16,o),
(497,36,o),
(520,175,c),
(337,175,l),
(337,138,o),
(317,104,o),
(277,104,cs),
(239,104,o),
(212,135,o),
(212,202,cs),
(212,302,ls),
(212,354,o),
(234,396,o),
(276,396,cs),
(314,396,o),
(338,362,o),
(338,298,c),
(198,298,l),
(198,217,l),
(524,217,l),
(524,269,ls),
(524,451,o),
(389,516,o),
(276,516,cs),
(163,516,o),
(28,451,o),
(28,270,cs),
(28,230,ls),
(28,49,o),
(163,-16,o),
(281,-16,cs)
);
}
);
width = 548;
},
{
associatedMasterId = "061FC23D-6DC8-4BE4-BEC8-2F5AB93B127B";
background = {
shapes = (
{
closed = 0;
nodes = (
(338,298,l)
);
},
{
closed = 0;
nodes = (
(524,269,ls)
);
}
);
};
layerId = "DD1C2A05-3771-42D9-B2A5-B5F984CC59B0";
name = "Jul 31 18, 00:16";
shapes = (
{
closed = 1;
nodes = (
(24,57,o),
(152,-16,o),
(296,-16,cs),
(434,-16,o),
(567,66,o),
(567,205,c),
(393,205,l),
(385,129,o),
(342,104,o),
(296,104,cs),
(247,104,o),
(202,131,o),
(198,237,c),
(567,237,l),
(567,408,o),
(490,516,o),
(296,516,cs),
(105,516,o),
(24,406,o),
(24,250,cs)
);
},
{
closed = 1;
nodes = (
(209,371,o),
(251,396,o),
(296,396,cs),
(341,396,o),
(384,371,o),
(392,297,c),
(200,298,l)
);
}
);
width = 587;
},
{
associatedMasterId = "061FC23D-6DC8-4BE4-BEC8-2F5AB93B127B";
background = {
shapes = (
{
closed = 0;
nodes = (
(338,298,l)
);
},
{
closed = 0;
nodes = (
(524,269,ls)
);
}
);
};
layerId = "6EA8E27B-A4A6-4349-8757-7E8A57AF3FE5";
name = "Jul 31 18, 00:19";
shapes = (
{
closed = 1;
nodes = (
(24,57,o),
(152,-16,o),
(296,-16,cs),
(434,-16,o),
(567,66,o),
(567,205,c),
(393,205,l),
(385,129,o),
(342,104,o),
(296,104,cs),
(247,104,o),
(202,131,o),
(198,237,c),
(567,237,l),
(567,408,o),
(490,516,o),
(296,516,cs),
(105,516,o),
(24,406,o),
(24,250,cs)
);
},
{
closed = 1;
nodes = (
(209,371,o),
(251,396,o),
(296,396,cs),
(341,396,o),
(384,371,o),
(392,297,c),
(200,298,l)
);
}
);
width = 587;
},
{
associatedMasterId = "061FC23D-6DC8-4BE4-BEC8-2F5AB93B127B";
background = {
shapes = (
{
closed = 0;
nodes = (
(338,298,l)
);
},
{
closed = 0;
nodes = (
(524,269,ls)
);
}
);
};
layerId = "767A0E89-E2CB-4501-95DB-19BDCFCDEE3C";
name = "Aug 5 18, 14:40";
shapes = (
{
closed = 1;
nodes = (
(568,253,l),
(567,407,o),
(455,516,o),
(296,516,cs),
(136,516,o),
(24,406,o),
(24,251,cs),
(24,94,o),
(136,-16,o),
(296,-16,cs),
(434,-16,o),
(536,66,o),
(562,189,c),
(390,184,l),
(370,152,o),
(337,133,o),
(296,133,cs),
(232,133,o),
(186,180,o),
(186,251,cs),
(186,321,o),
(232,367,o),
(296,367,cs),
(360,367,o),
(405,321,o),
(406,253,c)
);
},
{
closed = 1;
nodes = (
(118,228,l),
(568,228,l),
(568,253,l),
(496,287,l),
(118,287,l)
);
}
);
width = 588;
},
{
associatedMasterId = "061FC23D-6DC8-4BE4-BEC8-2F5AB93B127B";
background = {
shapes = (
{
closed = 0;
nodes = (
(338,298,l)
);
},
{
closed = 0;
nodes = (
(524,269,ls)
);
}
);
};
layerId = "13B8C72E-EFE7-40FF-84A1-8D61D3FA3D3A";
name = "Nov 4 18, 20:51";
shapes = (
{
closed = 1;
nodes = (
(568,253,l),
(567,407,o),
(455,516,o),
(296,516,cs),
(136,516,o),
(24,406,o),
(24,251,cs),
(24,94,o),
(136,-16,o),
(298,-16,cs),
(434,-16,o),
(536,61,o),
(562,184,c),
(390,184,l),
(370,142,o),
(337,123,o),
(296,123,cs),
(232,123,o),
(186,170,o),
(186,251,cs),
(186,331,o),
(232,377,o),
(296,377,cs),
(360,377,o),
(405,331,o),
(406,253,c)
);
},
{
closed = 1;
nodes = (
(118,228,l),
(568,228,l),
(568,253,l),
(496,287,l),
(118,287,l)
);
}
);
width = 588;
},
{
anchors = (
{
name = top;
pos = (287,516);
}
);
associatedMasterId = "061FC23D-6DC8-4BE4-BEC8-2F5AB93B127B";
attr = {
coordinates = (
100
);
};
background = {
shapes = (
{
closed = 0;
nodes = (
(346,298,l)
);
},
{
closed = 0;
nodes = (
(532,269,ls)
);
}
);
};
layerId = "B17B82CD-FADB-4796-87FB-D62897C148EE";
name = "{100}";
shapes = (
{
closed = 1;
nodes = (
(407,-11,o),
(500,50,o),
(533,161,c),
(446,161,l),
(426,114,o),
(379,60,o),
(290,60,cs),
(187,60,o),
(122,125,o),
(117,218,c),
(544,218,l),
(545,232,o),
(546,245,o),
(546,258,cs),
(546,407,o),
(442,511,o),
(287,511,cs),
(134,511,o),
(29,407,o),
(29,251,cs),
(29,97,o),
(130,-11,o),
(289,-11,cs)
);
},
{
closed = 1;
nodes = (
(500,285,l),
(118,285,l),
(122,377,o),
(189,437,o),
(287,437,cs),
(398,437,o),
(460,361,o),
(456,256,c)
);
}
);
width = 571;
},
{
anchors = (
{
name = top;
pos = (296,516);
}
);
associatedMasterId = "FBD32BA2-3DE3-41DC-83E1-8A694E18FAAC";
background = {
shapes = (
{
closed = 0;
nodes = (
(338,298,l)
);
},
{
closed = 0;
nodes = (
(524,269,ls)
);
}
);
};
layerId = "E6D12A76-F26F-4DDB-B117-1CC6FEA79525";
name = "Feb 3 19, 23:11";
shapes = (
{
closed = 1;
nodes = (
(386,169,l),
(370,139,o),
(334,123,o),
(297,123,cs),
(234,123,o),
(186,170,o),
(186,251,cs),
(186,331,o),
(232,377,o),
(296,377,cs),
(359,377,o),
(404,331,o),
(406,253,c),
(568,253,l),
(567,407,o),
(455,516,o),
(296,516,cs),
(136,516,o),
(24,406,o),
(24,251,cs),
(24,94,o),
(136,-16,o),
(298,-16,cs),
(428,-16,o),
(527,55,o),
(558,169,c)
);
},
{
closed = 1;
nodes = (
(568,218,l),
(568,263,l),
(496,297,l),
(118,297,l),
(118,218,l)
);
}
);
width = 588;
},
{
anchors = (
{
name = top;
pos = (296,516);
}
);
associatedMasterId = "FBD32BA2-3DE3-41DC-83E1-8A694E18FAAC";
background = {
shapes = (
{
closed = 0;
nodes = (
(338,298,l)
);
},
{
closed = 0;
nodes = (
(524,269,ls)
);
}
);
};
layerId = "B99CE7F9-A4D9-43CC-866D-A2F561CD0DD2";
name = "Feb 3 19, 23:14";
shapes = (
{
closed = 1;
nodes = (
(364,169,l),
(358,129,o),
(334,103,o),
(298,103,cs),
(250,103,o),
(221,150,o),
(221,251,cs),
(221,351,o),
(247,397,o),
(297,397,cs),
(347,397,o),
(372,351,o),
(374,273,c),
(568,253,l),
(567,407,o),
(455,516,o),
(296,516,cs),
(136,516,o),
(24,406,o),
(24,251,cs),
(24,94,o),
(136,-16,o),
(298,-16,cs),
(428,-16,o),
(547,55,o),
(558,169,c)
);
},
{
closed = 1;
nodes = (
(568,218,l),
(568,263,l),
(496,297,l),
(118,297,l),
(118,218,l)
);
}
);
width = 588;
},
{
anchors = (
{
name = top;
pos = (296,516);
}
);
associatedMasterId = "FBD32BA2-3DE3-41DC-83E1-8A694E18FAAC";
background = {
shapes = (
{
closed = 0;
nodes = (
(338,298,l)
);
},
{
closed = 0;
nodes = (
(524,269,ls)
);
}
);
};
backgroundImage = {
imagePath = "../../../Screenshot 2019-06-06 at 00.58.25.png";
locked = 1;
pos = (10,-62);
scale = (3.7287,3.7287);
};
layerId = "8F6AD795-AF44-4922-8F9B-C2AF1F267BC2";
name = "Jun 6 19, 01:01";
shapes = (
{
closed = 1;
nodes = (
(386,159,l),
(370,129,o),
(344,113,o),
(297,113,cs),
(224,113,o),
(187,170,o),
(187,241,cs),
(187,279,ls),
(187,344,o),
(229,390,o),
(294,390,cs),
(367,390,o),
(404,341,o),
(406,253,c),
(568,253,l),
(567,407,o),
(455,516,o),
(296,516,cs),
(136,516,o),
(24,406,o),
(24,251,cs),
(24,94,o),
(136,-16,o),
(298,-16,cs),
(428,-16,o),
(527,45,o),
(558,159,c)
);
},
{
closed = 1;
nodes = (
(568,209,l),
(568,263,l),
(496,306,l),
(118,306,l),
(118,209,l)
);
}
);
width = 588;
},
{
anchors = (
{
name = top;
pos = (296,516);
}
);
associatedMasterId = "FBD32BA2-3DE3-41DC-83E1-8A694E18FAAC";
background = {
shapes = (
{
closed = 0;
nodes = (
(338,298,l)
);
},
{
closed = 0;
nodes = (
(524,269,ls)
);
}
);
};
layerId = "D8E304BF-3B94-47B5-83B0-61A7F12D9FAC";
name = "Aug 19 19, 22:46";
shapes = (
{
closed = 1;
nodes = (
(396,159,l),
(373,117,o),
(333,108,o),
(302,108,cs),
(223,108,o),
(187,168,o),
(187,223,cs),
(187,276,ls),
(187,338,o),
(223,385,o),
(296,385,cs),
(369,385,o),
(397,338,o),
(399,289,c),
(564,196,l),
(567,214,o),
(568,231,o),
(568,249,cs),
(568,430,o),
(440,516,o),
(296,516,cs),
(136,516,o),
(24,410,o),
(24,252,cs),
(24,98,o),
(126,-16,o),
(299,-16,cs),
(416,-16,o),
(517,35,o),
(555,159,c)
);
},
{
closed = 1;
nodes = (
(564,196,l),
(553,308,l),
(148,308,l),
(118,196,l)
);
}
);
width = 588;
},
{
anchors = (
{
name = top;
pos = (296,516);
}
);
associatedMasterId = "FBD32BA2-3DE3-41DC-83E1-8A694E18FAAC";
background = {
shapes = (
{
closed = 0;
nodes = (
(338,298,l)
);
},
{
closed = 0;
nodes = (
(524,269,ls)
);
}
);
};
layerId = "52856BA1-AB5D-4841-9C03-24686E20762B";
name = "Oct 25 19, 13:32";
shapes = (
{
closed = 1;
nodes = (
(544,184,l),
(471,136,o),
(416,114,o),
(344,114,cs),
(242,114,o),
(187,158,o),
(187,218,cs),
(187,292,ls),
(187,348,o),
(226,395,o),
(298,395,cs),
(372,395,o),
(407,346,o),
(409,297,c),
(565,209,l),
(567,224,o),
(568,241,o),
(568,256,cs),
(568,430,o),
(440,516,o),
(296,516,cs),
(136,516,o),
(24,410,o),
(24,252,cs),
(24,98,o),
(136,-16,o),
(329,-16,cs),
(423,-16,o),
(496,10,o),
(544,47,c)
);
},
{
closed = 1;
nodes = (
(565,209,l),
(553,315,l),
(148,315,l),
(118,209,l)
);
}
);
width = 588;
}
);
metricLeft = o;
metricRight = "=o-4";
unicode = 101;
},
{
glyphname = f;
lastChange = "2019-07-02 23:16:39 +0000";
layers = (
{
layerId = "FBD32BA2-3DE3-41DC-83E1-8A694E18FAAC";
shapes = (
{
closed = 1;
nodes = (
(228,0,l),
(228,500,l),
(44,500,l),
(44,0,l)
);
},
{
closed = 1;
nodes = (
(314,384,l),
(314,500,l),
(0,500,l),
(0,384,l)
);
},
{
pos = (-43,670);
ref = tail;
scale = (1,-1);
}
);
width = 327;
},
{
associatedMasterId = "FBD32BA2-3DE3-41DC-83E1-8A694E18FAAC";
layerId = "B987CFCB-7B48-46E5-A370-B999C4F215E9";
name = "Mar 21 18, 13:04";
shapes = (
{
closed = 1;
nodes = (
(234,0,l),
(234,510,l),
(78,509,l),
(78,0,l)
);
},
{
closed = 1;
nodes = (
(234,510,l),
(234,576,o),
(265,591,o),
(309,591,cs),
(321,591,o),
(339,590,o),
(353,587,c),
(353,676,l),
(329,680,o),
(297,684,o),
(257,684,cs),
(161,684,o),
(76,661,o),
(78,509,c)
);
},
{
closed = 1;
nodes = (
(30,422,l),
(344,422,l),
(344,500,l),
(30,500,l)
);
}
);
width = 353;
},
{
layerId = "061FC23D-6DC8-4BE4-BEC8-2F5AB93B127B";
shapes = (
{
closed = 1;
nodes = (
(112,0,l),
(112,550,l),
(72,550,l),
(72,0,l)
);
},
{
closed = 1;
nodes = (
(218,462,l),
(218,500,l),
(4,500,l),
(4,462,l)
);
},
{
pos = (-72,678);
ref = tail;
scale = (1,-1);
}
);
width = 222;
},
{
associatedMasterId = "061FC23D-6DC8-4BE4-BEC8-2F5AB93B127B";
layerId = "3B41B5CD-C688-4AD1-881C-AE2D99E4B4A7";
name = "Mar 21 18, 13:04";
shapes = (
{
closed = 1;
nodes = (
(234,0,l),
(234,510,l),
(78,509,l),
(78,0,l)
);
},
{
closed = 1;
nodes = (
(234,510,l),
(234,576,o),
(265,591,o),
(309,591,cs),
(321,591,o),
(339,590,o),
(353,587,c),
(353,676,l),
(329,680,o),
(297,684,o),
(257,684,cs),
(161,684,o),
(76,661,o),
(78,509,c)
);
},
{
closed = 1;
nodes = (
(30,422,l),
(344,422,l),
(344,500,l),
(30,500,l)
);
}
);
width = 353;
},
{
associatedMasterId = "FBD32BA2-3DE3-41DC-83E1-8A694E18FAAC";
layerId = "E4535D09-053B-4FB5-AFAD-75DDA7B95132";
name = "Jan 26 19, 18:54";
shapes = (
{
closed = 1;
nodes = (
(264,0,l),
(264,500,l),
(80,500,l),
(80,0,l)
);
},
{
closed = 1;
nodes = (
(330,374,l),
(330,500,l),
(16,500,l),
(16,374,l)
);
},
{
closed = 1;
nodes = (
(264,500,l),
(264,510,l),
(264,553,o),
(276,571,o),
(308,571,cs),
(317,571,o),
(331,570,o),
(343,567,c),
(343,690,l),
(327,694,o),
(304,697,o),
(269,697,cs),
(158,697,o),
(80,643,o),
(80,530,cs),
(80,500,l)
);
}
);
width = 349;
},
{
associatedMasterId = "FBD32BA2-3DE3-41DC-83E1-8A694E18FAAC";
layerId = "2F5F03A4-3011-43A6-857A-33373B99E278";
name = "Jun 6 19, 01:41";
shapes = (
{
closed = 1;
nodes = (
(228,0,l),
(228,500,l),
(44,500,l),
(44,0,l)
);
},
{
closed = 1;
nodes = (
(304,384,l),
(304,500,l),
(0,500,l),
(0,384,l)
);
},
{
pos = (-43,670);
ref = tail;
scale = (1,-1);
}
);
width = 307;
},
{
associatedMasterId = "FBD32BA2-3DE3-41DC-83E1-8A694E18FAAC";
layerId = "0E513FD2-A9B8-4229-AB92-752DAA7D6D86";
name = "Jun 6 19, 01:56";
shapes = (
{
closed = 1;
nodes = (
(274,0,l),
(274,500,l),
(90,500,l),
(90,0,l)
);
},
{
closed = 1;
nodes = (
(334,385,l),
(334,500,l),
(30,500,l),
(30,385,l)
);
},
{
closed = 1;
nodes = (
(238,500,l),
(238,532,o),
(261,556,o),
(308,556,cs),
(364,556,l),
(364,670,l),
(311,670,ls),
(171,670,o),
(89,623,o),
(90,500,c)
);
}
);
width = 374;
},
{
associatedMasterId = "FBD32BA2-3DE3-41DC-83E1-8A694E18FAAC";
layerId = "595A8DA5-4C56-4F23-B394-7A4F37D13863";
name = "Jul 3 19, 01:14";
shapes = (
{
closed = 1;
nodes = (
(228,0,l),
(228,500,l),
(44,500,l),
(44,0,l)
);
},
{
closed = 1;
nodes = (
(304,384,l),
(304,500,l),
(0,500,l),
(0,384,l)
);
},
{
pos = (-43,670);
ref = tail;
scale = (1,-1);
}
);
width = 307;
}
);
unicode = 102;
},
{
color = 8;
glyphname = g;
kernLeft = rounded;
kernRight = lowcaseStraight;
lastChange = "2019-06-27 11:28:37 +0000";
layers = (
{
layerId = "FBD32BA2-3DE3-41DC-83E1-8A694E18FAAC";
shapes = (
{
closed = 1;
nodes = (
(250,-180,l),
(257,-180,o),
(289,-180,o),
(346,-180,cs),
(478,-180,o),
(597,-101,o),
(597,59,cs),
(597,500,l),
(422,500,l),
(422,119,l),
(422,107,l),
(422,59,ls),
(422,-14,o),
(363,-52,o),
(286,-52,cs),
(258,-52,o),
(279,-52,o),
(250,-52,c)
);
},
{
ref = bowl;
}
);
width = 641;
},
{
associatedMasterId = "FBD32BA2-3DE3-41DC-83E1-8A694E18FAAC";
layerId = "9EA80E8D-5CDE-4079-B49B-DE18ED0FF05C";
name = "Apr 12 18, 13:55";
shapes = (
{
closed = 1;
nodes = (
(366,-84,o),
(356,-129,o),
(288,-129,cs),
(222,-129,o),
(211,-87,o),
(211,-48,c),
(46,-48,l),
(46,-115,o),
(87,-230,o),
(287,-230,cs),
(490,-230,o),
(542,-129,o),
(542,0,c),
(542,500,l),
(376,500,l),
(376,403,l),
(366,391,l),
(366,0,l)
);
},
{
pos = (4,0);
ref = bowl;
}
);
width = 588;
},
{
associatedMasterId = "FBD32BA2-3DE3-41DC-83E1-8A694E18FAAC";
layerId = "6678E753-1D69-47E2-B353-50CF312C5B98";
name = "Apr 22 18, 22:20";
shapes = (
{
closed = 1;
nodes = (
(346,-81,o),
(322,-110,o),
(281,-110,cs),
(242,-110,o),
(221,-84,o),
(221,-48,c),
(37,-48,l),
(37,-115,o),
(65,-230,o),
(279,-230,cs),
(468,-230,o),
(530,-139,o),
(530,0,c),
(530,500,l),
(356,500,l),
(356,403,l),
(346,391,l),
(346,-20,l)
);
},
{
pos = (-16,0);
ref = bowl;
}
);
width = 576;
},
{
associatedMasterId = "FBD32BA2-3DE3-41DC-83E1-8A694E18FAAC";
layerId = "389B263A-00C0-4228-9CAA-42D283BDA907";
name = "Jul 31 18, 00:29";
shapes = (
{
closed = 1;
nodes = (
(547,-230,o),
(606,-140,o),
(606,-1,cs),
(606,499,l),
(432,499,l),
(432,402,l),
(422,390,l),
(422,-21,ls),
(422,-82,o),
(405,-111,o),
(364,-111,cs),
(326,-111,o),
(306,-85,o),
(306,-48,c),
(127,-48,l),
(127,-116,o),
(154,-230,o),
(362,-230,cs)
);
},
{
ref = bowl;
}
);
width = 652;
},
{
associatedMasterId = "FBD32BA2-3DE3-41DC-83E1-8A694E18FAAC";
layerId = "0A5519BB-5B84-4AF9-A3C9-F8FB0F9C989D";
name = "Nov 4 18, 22:41";
shapes = (
{
closed = 1;
nodes = (
(538,-230,o),
(606,-130,o),
(606,9,cs),
(606,499,l),
(434,499,l),
(434,402,l),
(422,390,l),
(422,-21,ls),
(422,-79,o),
(376,-111,o),
(316,-111,cs),
(251,-111,o),
(216,-75,o),
(216,-38,c),
(31,-38,l),
(31,-106,o),
(67,-230,o),
(316,-230,cs)
);
},
{
ref = bowl;
}
);
width = 652;
},
{
layerId = "061FC23D-6DC8-4BE4-BEC8-2F5AB93B127B";
shapes = (
{
closed = 1;
nodes = (
(203,-156,l),
(229,-164,o),
(258,-168,o),
(290,-168,cs),
(421,-168,o),
(524,-98,o),
(524,60,cs),
(524,500,l),
(488,500,l),
(488,381,l),
(484,369,l),
(484,60,ls),
(484,-67,o),
(400,-130,o),
(290,-130,cs),
(257,-130,o),
(228,-124,o),
(203,-114,c)
);
},
{
pos = (32,0);
ref = bowl;
}
);
width = 590;
},
{
associatedMasterId = "061FC23D-6DC8-4BE4-BEC8-2F5AB93B127B";
layerId = "7FC05721-DA5E-472F-AAEA-21EE95EFC5B5";
name = "Apr 12 18, 13:55";
shapes = (
{
closed = 1;
nodes = (
(366,-84,o),
(356,-129,o),
(288,-129,cs),
(222,-129,o),
(211,-87,o),
(211,-48,c),
(46,-48,l),
(46,-115,o),
(87,-230,o),
(287,-230,cs),
(490,-230,o),
(542,-129,o),
(542,0,c),
(542,500,l),
(376,500,l),
(376,403,l),
(366,391,l),
(366,0,l)
);
},
{
pos = (4,0);
ref = bowl;
}
);
width = 588;
},
{
associatedMasterId = "061FC23D-6DC8-4BE4-BEC8-2F5AB93B127B";
layerId = "95BE095D-6331-4D1A-8344-FB66C9B88B17";
name = "Apr 22 18, 22:20";
shapes = (
{
closed = 1;
nodes = (
(346,-81,o),
(322,-110,o),
(281,-110,cs),
(242,-110,o),
(221,-84,o),
(221,-48,c),
(37,-48,l),
(37,-115,o),
(65,-230,o),
(279,-230,cs),
(468,-230,o),
(530,-139,o),
(530,0,c),
(530,500,l),
(356,500,l),
(356,403,l),
(346,391,l),
(346,-20,l)
);
},
{
pos = (-16,0);
ref = bowl;
}
);
width = 576;
},
{
associatedMasterId = "061FC23D-6DC8-4BE4-BEC8-2F5AB93B127B";
layerId = "5E1E479D-DE92-4D9A-A8E2-1EA67F9E3F0A";
name = "Jul 31 18, 00:29";
shapes = (
{
closed = 1;
nodes = (
(547,-230,o),
(606,-140,o),
(606,-1,cs),
(606,499,l),
(432,499,l),
(432,402,l),
(422,390,l),
(422,-21,ls),
(422,-82,o),
(405,-111,o),
(364,-111,cs),
(326,-111,o),
(306,-85,o),
(306,-48,c),
(127,-48,l),
(127,-116,o),
(154,-230,o),
(362,-230,cs)
);
},
{
ref = bowl;
}
);
width = 652;
},
{
associatedMasterId = "061FC23D-6DC8-4BE4-BEC8-2F5AB93B127B";
layerId = "4EC45DB9-D7D2-4FD2-BC75-23D92E643E9B";
name = "Nov 4 18, 22:41";
shapes = (
{
closed = 1;
nodes = (
(538,-230,o),
(606,-130,o),
(606,9,cs),
(606,499,l),
(434,499,l),
(434,402,l),
(422,390,l),
(422,-21,ls),
(422,-79,o),
(376,-111,o),
(316,-111,cs),
(251,-111,o),
(216,-75,o),
(216,-38,c),
(31,-38,l),
(31,-106,o),
(67,-230,o),
(316,-230,cs)
);
},
{
ref = bowl;
}
);
width = 652;
},
{
associatedMasterId = "FBD32BA2-3DE3-41DC-83E1-8A694E18FAAC";
layerId = "DD00B6E0-6489-4CCA-BD84-75E5994120A8";
name = "Jan 28 19, 13:47";
shapes = (
{
closed = 1;
nodes = (
(526,-230,o),
(606,-130,o),
(606,9,cs),
(606,500,l),
(432,500,l),
(432,402,l),
(422,390,l),
(422,-21,ls),
(422,-74,o),
(376,-101,o),
(316,-101,cs),
(251,-101,o),
(214,-68,o),
(214,-38,c),
(29,-38,l),
(39,-106,o),
(95,-230,o),
(324,-230,cs)
);
},
{
ref = bowl;
}
);
width = 652;
},
{
associatedMasterId = "061FC23D-6DC8-4BE4-BEC8-2F5AB93B127B";
layerId = "44B848FA-4116-415B-AE43-8312E5150F33";
name = "Jan 28 19, 13:47";
shapes = (
{
closed = 1;
nodes = (
(413,-230,o),
(516,-160,o),
(516,0,cs),
(516,500,l),
(480,500,l),
(480,381,l),
(476,369,l),
(476,0,ls),
(476,-129,o),
(392,-192,o),
(282,-192,cs),
(161,-192,o),
(91,-115,o),
(91,-38,c),
(51,-38,l),
(51,-146,o),
(138,-230,o),
(282,-230,cs)
);
},
{
pos = (24,0);
ref = bowl;
}
);
width = 562;
},
{
associatedMasterId = "FBD32BA2-3DE3-41DC-83E1-8A694E18FAAC";
layerId = "0BBB7834-1044-4D2C-BE9F-0324F596BE50";
name = "Feb 3 19, 22:40";
shapes = (
{
closed = 1;
nodes = (
(264,-220,l),
(283,-222,o),
(303,-223,o),
(324,-223,cs),
(526,-223,o),
(606,-123,o),
(606,16,cs),
(606,500,l),
(432,500,l),
(432,402,l),
(422,390,l),
(422,-14,ls),
(422,-67,o),
(376,-94,o),
(316,-94,cs),
(296,-94,o),
(279,-91,o),
(264,-86,c)
);
},
{
ref = bowl;
}
);
width = 652;
},
{
associatedMasterId = "FBD32BA2-3DE3-41DC-83E1-8A694E18FAAC";
layerId = "68BFB8AB-A915-47B8-B337-0D596DF7C5D5";
name = "Feb 3 19, 22:42";
shapes = (
{
closed = 1;
nodes = (
(264,-220,l),
(283,-222,o),
(303,-223,o),
(324,-223,cs),
(526,-223,o),
(606,-123,o),
(606,16,cs),
(606,500,l),
(432,500,l),
(432,402,l),
(422,390,l),
(422,16,ls),
(422,-37,o),
(376,-94,o),
(306,-94,c),
(300,-94,o),
(287,-94,o),
(264,-94,c)
);
},
{
ref = bowl;
}
);
width = 652;
}
);
metricLeft = o;
metricRight = n;
unicode = 103;
},
{
color = 0;
glyphname = h;
kernLeft = lowcaseStraight;
kernRight = shoulder;
lastChange = "2019-06-27 11:28:26 +0000";
layers = (
{
layerId = "FBD32BA2-3DE3-41DC-83E1-8A694E18FAAC";
shapes = (
{
closed = 1;
nodes = (
(228,0,l),
(228,381,l),
(218,393,l),
(218,670,l),
(44,670,l),
(44,0,l)
);
},
{
pos = (12,0);
ref = _shoulder;
}
);
width = 622;
},
{
layerId = "061FC23D-6DC8-4BE4-BEC8-2F5AB93B127B";
shapes = (
{
closed = 1;
nodes = (
(104,0,l),
(104,325,l),
(100,341,l),
(100,670,l),
(64,670,l),
(64,0,l)
);
},
{
pos = (100,0);
ref = _shoulder;
}
);
width = 566;
}
);
metricLeft = n;
metricRight = n;
unicode = 104;
},
{
glyphname = idotless;
lastChange = "2019-06-27 11:28:37 +0000";
layers = (
{
anchors = (
{
name = top;
pos = (133,500);
}
);
layerId = "FBD32BA2-3DE3-41DC-83E1-8A694E18FAAC";
shapes = (
{
closed = 1;
nodes = (
(222,0,l),
(222,500,l),
(44,500,l),
(44,0,l)
);
}
);
width = 266;
},
{
anchors = (
{
name = top;
pos = (84,500);
}
);
layerId = "061FC23D-6DC8-4BE4-BEC8-2F5AB93B127B";
shapes = (
{
closed = 1;
nodes = (
(104,0,l),
(104,500,l),
(64,500,l),
(64,0,l)
);
}
);
width = 170;
}
);
metricLeft = n;
metricRight = n;
unicode = 305;
},
{
glyphname = jdotless;
lastChange = "2019-07-02 23:17:43 +0000";
layers = (
{
anchors = (
{
name = top;
pos = (153,500);
}
);
layerId = "FBD32BA2-3DE3-41DC-83E1-8A694E18FAAC";
shapes = (
{
closed = 1;
nodes = (
(245,-13,l),
(245,500,l),
(61,500,l),
(61,-13,l)
);
},
{
pos = (332,-183);
ref = tail;
scale = (-1,1);
}
);
width = 289;
},
{
anchors = (
{
name = top;
pos = (66,500);
}
);
layerId = "061FC23D-6DC8-4BE4-BEC8-2F5AB93B127B";
shapes = (
{
closed = 1;
nodes = (
(86,-35,l),
(86,500,l),
(46,500,l),
(46,-35,l)
);
},
{
pos = (230,-160);
ref = tail;
scale = (-1,1);
}
);
width = 152;
},
{
anchors = (
{
name = top;
pos = (153,516);
}
);
associatedMasterId = "FBD32BA2-3DE3-41DC-83E1-8A694E18FAAC";
layerId = "785EA2A7-B352-4E0D-B20A-8E0AC20E24D8";
name = "Jan 26 19, 18:48";
shapes = (
{
closed = 1;
nodes = (
(167,-214,o),
(245,-180,o),
(245,-67,cs),
(245,0,l),
(61,0,l),
(61,-47,l),
(61,-70,o),
(49,-88,o),
(17,-88,cs),
(8,-88,o),
(-6,-87,o),
(-18,-84,c),
(-18,-207,l),
(-2,-211,o),
(21,-214,o),
(56,-214,cs)
);
},
{
closed = 1;
nodes = (
(245,0,l),
(245,500,l),
(61,500,l),
(61,0,l)
);
}
);
width = 287;
}
);
metricRight = n;
unicode = 567;
},
{
glyphname = k;
kernLeft = lowcaseStraight;
lastChange = "2019-07-02 22:27:25 +0000";
layers = (
{
layerId = "FBD32BA2-3DE3-41DC-83E1-8A694E18FAAC";
shapes = (
{
closed = 1;
nodes = (
(559,-1,l),
(537,105,ls),
(517,199,o),
(440,265,o),
(324,266,c),
(324,272,l),
(428,272,o),
(495,322,o),
(515,397,cs),
(543,501,l),
(406,501,ls),
(377,501,o),
(344,491,o),
(333,444,cs),
(323,400,ls),
(312,350,o),
(291,328,o),
(237,328,cs),
(206,328,l),
(206,191,l),
(237,191,ls),
(284,191,o),
(327,171,o),
(344,100,cs),
(355,53,ls),
(363,17,o),
(383,-1,o),
(421,-1,cs)
);
},
{
closed = 1;
nodes = (
(228,0,l),
(228,670,l),
(44,670,l),
(44,0,l)
);
}
);
width = 559;
},
{
associatedMasterId = "FBD32BA2-3DE3-41DC-83E1-8A694E18FAAC";
layerId = "B4EA175F-2E48-4080-9CE3-35BBAEF41C86";
name = "Oct 21 18, 18:09";
shapes = (
{
closed = 1;
nodes = (
(569,0,l),
(389,273,l),
(547,500,l),
(343,500,l),
(189,234,l),
(230,234,l),
(373,0,l)
);
},
{
closed = 1;
nodes = (
(228,0,l),
(228,670,l),
(44,670,l),
(44,0,l)
);
}
);
width = 569;
},
{
associatedMasterId = "FBD32BA2-3DE3-41DC-83E1-8A694E18FAAC";
layerId = "1E24C061-9A3B-47D2-B442-931A5525AE20";
name = "Nov 6 18, 22:34";
shapes = (
{
closed = 1;
nodes = (
(539,-1,l),
(517,105,ls),
(497,199,o),
(420,265,o),
(304,266,c),
(304,272,l),
(408,272,o),
(465,322,o),
(485,397,cs),
(513,501,l),
(386,501,ls),
(357,501,o),
(324,491,o),
(313,444,c),
(303,400,ls),
(292,350,o),
(271,328,o),
(217,328,c),
(217,191,l),
(264,191,o),
(307,171,o),
(324,100,cs),
(335,53,l),
(342,16,o),
(363,-1,o),
(401,-1,cs)
);
},
{
closed = 1;
nodes = (
(228,0,l),
(228,670,l),
(44,670,l),
(44,0,l)
);
}
);
width = 539;
},
{
layerId = "061FC23D-6DC8-4BE4-BEC8-2F5AB93B127B";
shapes = (
{
closed = 1;
nodes = (
(528,-1,l),
(405,190,ls),
(370,244,o),
(324,265,o),
(274,269,c),
(274,273,l),
(320,276,o),
(366,305,o),
(392,343,cs),
(502,500,l),
(501,500,ls),
(463,500,o),
(445,491,o),
(428,467,cs),
(353,361,ls),
(321,315,o),
(270,289,o),
(138,289,cs),
(100,289,l),
(100,251,l),
(147,251,ls),
(286,251,o),
(338,218,o),
(364,177,cs),
(453,35,ls),
(471,7,o),
(495,-1,o),
(523,-1,cs)
);
},
{
closed = 1;
nodes = (
(104,0,l),
(104,670,l),
(64,670,l),
(64,0,l)
);
}
);
width = 532;
},
{
associatedMasterId = "FBD32BA2-3DE3-41DC-83E1-8A694E18FAAC";
layerId = "53469A38-594D-47E4-8680-790636ECD650";
name = "Jan 13 19, 00:14";
shapes = (
{
closed = 1;
nodes = (
(539,-1,l),
(517,105,ls),
(497,199,o),
(420,265,o),
(304,266,c),
(304,272,l),
(408,272,o),
(475,322,o),
(495,397,cs),
(523,501,l),
(386,501,ls),
(357,501,o),
(324,491,o),
(313,444,c),
(303,400,ls),
(292,350,o),
(271,328,o),
(217,328,c),
(217,191,l),
(264,191,o),
(307,171,o),
(324,100,cs),
(335,53,l),
(342,16,o),
(363,-1,o),
(401,-1,cs)
);
},
{
closed = 1;
nodes = (
(228,0,l),
(228,670,l),
(44,670,l),
(44,0,l)
);
}
);
width = 539;
},
{
associatedMasterId = "061FC23D-6DC8-4BE4-BEC8-2F5AB93B127B";
layerId = "F97E8CB4-A744-4D45-B2D7-B76DBF47BD2E";
name = "Jan 13 19, 00:32";
shapes = (
{
closed = 1;
nodes = (
(398,-1,l),
(304,216,ls),
(289,250,o),
(255,269,o),
(225,269,c),
(225,273,l),
(255,273,o),
(282,287,o),
(297,319,cs),
(382,500,l),
(381,500,ls),
(344,500,o),
(324,488,o),
(314,467,cs),
(246,327,ls),
(232,298,o),
(204,289,o),
(178,289,cs),
(80,289,l),
(80,251,l),
(177,251,ls),
(213,251,o),
(242,240,o),
(255,209,cs),
(329,35,ls),
(343,3,o),
(365,-1,o),
(393,-1,cs)
);
},
{
closed = 1;
nodes = (
(84,0,l),
(84,670,l),
(44,670,l),
(44,0,l)
);
}
);
width = 398;
},
{
associatedMasterId = "061FC23D-6DC8-4BE4-BEC8-2F5AB93B127B";
layerId = "64C73725-6C1E-4643-B41C-F25C81E4B125";
name = "Jan 14 19, 22:39";
shapes = (
{
closed = 1;
nodes = (
(408,-1,l),
(260,223,ls),
(239,254,o),
(204,269,o),
(164,269,c),
(164,273,l),
(204,273,o),
(236,290,o),
(256,319,cs),
(382,500,l),
(381,500,ls),
(343,500,o),
(325,493,o),
(307,467,cs),
(208,327,ls),
(190,301,o),
(160,289,o),
(128,289,cs),
(80,289,l),
(80,251,l),
(137,251,ls),
(176,251,o),
(200,236,o),
(218,209,cs),
(333,35,ls),
(351,8,o),
(375,-1,o),
(403,-1,cs)
);
},
{
closed = 1;
nodes = (
(84,0,l),
(84,670,l),
(44,670,l),
(44,0,l)
);
}
);
width = 408;
},
{
associatedMasterId = "061FC23D-6DC8-4BE4-BEC8-2F5AB93B127B";
layerId = "05DD800A-0610-4F73-9C2A-B63C904D4A03";
name = "Jan 14 19, 22:46";
shapes = (
{
closed = 1;
nodes = (
(408,-1,l),
(285,190,ls),
(250,244,o),
(214,265,o),
(164,269,c),
(164,273,l),
(210,276,o),
(246,305,o),
(272,343,cs),
(382,500,l),
(381,500,ls),
(343,500,o),
(325,493,o),
(307,467,cs),
(233,361,ls),
(201,315,o),
(160,289,o),
(108,289,cs),
(80,289,l),
(80,251,l),
(117,251,ls),
(176,251,o),
(218,218,o),
(244,177,cs),
(333,35,ls),
(351,7,o),
(375,-1,o),
(403,-1,cs)
);
},
{
closed = 1;
nodes = (
(84,0,l),
(84,670,l),
(44,670,l),
(44,0,l)
);
}
);
width = 408;
},
{
associatedMasterId = "061FC23D-6DC8-4BE4-BEC8-2F5AB93B127B";
layerId = "FD3A87E3-A4FF-42C9-8DF1-410D06BC327F";
name = "Jan 19 19, 15:52";
shapes = (
{
closed = 1;
nodes = (
(408,-1,l),
(342,135,ls),
(293,236,o),
(204,265,o),
(144,269,c),
(144,273,l),
(204,279,o),
(269,312,o),
(319,395,cs),
(382,500,l),
(381,500,ls),
(343,500,o),
(320,495,o),
(305,467,cs),
(278,415,ls),
(219,302,o),
(160,289,o),
(88,289,cs),
(80,289,l),
(80,251,l),
(97,251,ls),
(196,251,o),
(265,203,o),
(299,119,cs),
(333,35,ls),
(346,3,o),
(375,-1,o),
(403,-1,cs)
);
},
{
closed = 1;
nodes = (
(84,0,l),
(84,670,l),
(44,670,l),
(44,0,l)
);
}
);
width = 408;
},
{
associatedMasterId = "061FC23D-6DC8-4BE4-BEC8-2F5AB93B127B";
attr = {
coordinates = (
100
);
};
layerId = "6D9BE529-365A-4F2D-938A-5E2789980DEA";
name = "{100}";
shapes = (
{
closed = 1;
nodes = (
(503,-1,l),
(419,157,ls),
(383,224,o),
(338,265,o),
(262,268,c),
(262,273,l),
(331,274,o),
(379,312,o),
(402,364,cs),
(481,500,l),
(428,500,ls),
(393,500,o),
(374,489,o),
(355,458,cs),
(305,376,ls),
(277,330,o),
(247,304,o),
(176,304,cs),
(141,304,l),
(141,228,l),
(182,228,ls),
(254,228,o),
(291,197,o),
(319,147,cs),
(378,42,ls),
(395,12,o),
(415,-1,o),
(447,-1,cs)
);
},
{
closed = 1;
nodes = (
(152,0,l),
(152,670,l),
(56,670,l),
(56,0,l)
);
}
);
width = 505;
},
{
associatedMasterId = "061FC23D-6DC8-4BE4-BEC8-2F5AB93B127B";
layerId = "D0F4CB66-3EE8-44FA-A632-571ECA70BD8D";
name = "Jul 3 19, 00:26";
shapes = (
{
closed = 1;
nodes = (
(468,-1,l),
(345,190,ls),
(310,244,o),
(274,265,o),
(224,269,c),
(224,273,l),
(270,276,o),
(306,305,o),
(332,343,cs),
(442,500,l),
(441,500,ls),
(403,500,o),
(385,491,o),
(368,467,cs),
(293,361,ls),
(261,315,o),
(220,289,o),
(138,289,cs),
(100,289,l),
(100,251,l),
(147,251,ls),
(236,251,o),
(278,218,o),
(304,177,cs),
(393,35,ls),
(411,7,o),
(435,-1,o),
(463,-1,cs)
);
},
{
closed = 1;
nodes = (
(104,0,l),
(104,670,l),
(64,670,l),
(64,0,l)
);
}
);
width = 472;
}
);
metricLeft = n;
metricRight = v;
unicode = 107;
},
{
color = 0;
glyphname = l;
kernLeft = lowcaseStraight;
kernRight = lowcaseStraight;
lastChange = "2019-06-27 11:28:37 +0000";
layers = (
{
layerId = "FBD32BA2-3DE3-41DC-83E1-8A694E18FAAC";
shapes = (
{
closed = 1;
nodes = (
(228,0,l),
(228,670,l),
(44,670,l),
(44,0,l)
);
}
);
width = 272;
},
{
layerId = "061FC23D-6DC8-4BE4-BEC8-2F5AB93B127B";
shapes = (
{
closed = 1;
nodes = (
(104,0,l),
(104,670,l),
(64,670,l),
(64,0,l)
);
}
);
width = 170;
}
);
metricLeft = n;
metricRight = n;
unicode = 108;
},
{
color = 0;
glyphname = m;
kernLeft = lowcaseStraight;
kernRight = shoulder;
lastChange = "2019-07-02 22:25:40 +0000";
layers = (
{
background = {
shapes = (
{
closed = 1;
nodes = (
(844,0,l),
(844,330,ls),
(844,434,o),
(797,516,o),
(677,516,cs),
(610,516,o),
(543,487,o),
(514,409,c),
(514,300,l),
(524,300,l),
(524,364,o),
(549,415,o),
(618,415,cs),
(652,415,o),
(688,400,o),
(688,310,c),
(688,0,l)
);
},
{
closed = 1;
nodes = (
(204,0,l),
(204,391,l),
(194,403,l),
(194,500,l),
(48,500,l),
(48,0,l)
);
},
{
closed = 1;
nodes = (
(524,0,l),
(524,330,ls),
(524,434,o),
(477,516,o),
(357,516,cs),
(290,516,o),
(223,487,o),
(194,409,c),
(194,300,l),
(204,300,l),
(204,364,o),
(229,415,o),
(298,415,cs),
(332,415,o),
(368,400,o),
(368,310,c),
(368,0,l)
);
}
);
};
layerId = "FBD32BA2-3DE3-41DC-83E1-8A694E18FAAC";
shapes = (
{
closed = 1;
nodes = (
(228,0,l),
(228,381,l),
(218,393,l),
(218,500,l),
(44,500,l),
(44,0,l)
);
},
{
closed = 1;
nodes = (
(558,0,l),
(558,310,ls),
(558,434,o),
(509,516,o),
(394,516,cs),
(301,516,o),
(256,464,o),
(222,397,c),
(212,397,l),
(212,228,l),
(228,228,l),
(228,312,o),
(259,373,o),
(313,373,cs),
(353,373,o),
(374,340,o),
(374,268,c),
(374,0,l)
);
},
{
closed = 1;
nodes = (
(888,0,l),
(888,310,ls),
(888,434,o),
(839,516,o),
(724,516,cs),
(631,516,o),
(586,464,o),
(552,397,c),
(542,397,l),
(542,228,l),
(558,228,l),
(558,312,o),
(589,373,o),
(643,373,cs),
(683,373,o),
(704,340,o),
(704,268,c),
(704,0,l)
);
}
);
width = 932;
},
{
associatedMasterId = "FBD32BA2-3DE3-41DC-83E1-8A694E18FAAC";
background = {
shapes = (
{
closed = 1;
nodes = (
(836,0,l),
(836,330,ls),
(836,434,o),
(789,516,o),
(669,516,cs),
(602,516,o),
(535,487,o),
(506,409,c),
(506,300,l),
(516,300,l),
(516,364,o),
(541,415,o),
(610,415,cs),
(644,415,o),
(680,400,o),
(680,310,c),
(680,0,l)
);
},
{
closed = 1;
nodes = (
(196,0,l),
(196,391,l),
(186,403,l),
(186,500,l),
(40,500,l),
(40,0,l)
);
},
{
closed = 1;
nodes = (
(516,0,l),
(516,330,ls),
(516,434,o),
(469,516,o),
(349,516,cs),
(282,516,o),
(215,487,o),
(186,409,c),
(186,300,l),
(196,300,l),
(196,364,o),
(221,415,o),
(290,415,cs),
(324,415,o),
(360,400,o),
(360,310,c),
(360,0,l)
);
}
);
};
layerId = "D65CD861-A782-4085-A1FA-D3D251F51529";
name = "Apr 12 18, 13:52";
shapes = (
{
closed = 1;
nodes = (
(520,0,l),
(520,330,ls),
(520,434,o),
(473,516,o),
(356,516,cs),
(286,516,o),
(229,487,o),
(200,409,c),
(190,300,l),
(220,300,l),
(220,364,o),
(241,415,o),
(293,415,cs),
(324,415,o),
(344,397,o),
(344,310,c),
(344,0,l)
);
},
{
closed = 1;
nodes = (
(820,0,l),
(820,330,ls),
(820,434,o),
(773,516,o),
(656,516,cs),
(586,516,o),
(529,487,o),
(500,409,c),
(490,300,l),
(520,300,l),
(520,364,o),
(541,415,o),
(593,415,cs),
(624,415,o),
(644,397,o),
(644,310,c),
(644,0,l)
);
},
{
closed = 1;
nodes = (
(220,0,l),
(220,381,l),
(210,393,l),
(210,500,l),
(36,500,l),
(36,0,l)
);
}
);
width = 866;
},
{
background = {
shapes = (
{
closed = 1;
nodes = (
(976,0,l),
(976,330,ls),
(976,434,o),
(929,516,o),
(809,516,cs),
(742,516,o),
(675,487,o),
(646,409,c),
(646,300,l),
(656,300,l),
(656,364,o),
(681,415,o),
(750,415,cs),
(784,415,o),
(820,400,o),
(820,310,c),
(820,0,l)
);
},
{
closed = 1;
nodes = (
(336,0,l),
(336,391,l),
(326,403,l),
(326,500,l),
(180,500,l),
(180,0,l)
);
},
{
closed = 1;
nodes = (
(656,0,l),
(656,330,ls),
(656,434,o),
(609,516,o),
(489,516,cs),
(422,516,o),
(355,487,o),
(326,409,c),
(326,300,l),
(336,300,l),
(336,364,o),
(361,415,o),
(430,415,cs),
(464,415,o),
(500,400,o),
(500,310,c),
(500,0,l)
);
}
);
};
layerId = "061FC23D-6DC8-4BE4-BEC8-2F5AB93B127B";
shapes = (
{
closed = 1;
nodes = (
(104,0,l),
(104,325,l),
(100,341,l),
(100,500,l),
(64,500,l),
(64,0,l)
);
},
{
closed = 1;
nodes = (
(500,0,l),
(500,290,ls),
(500,434,o),
(421,508,o),
(306,508,cs),
(199,508,o),
(135,444,o),
(104,371,c),
(100,371,l),
(100,228,l),
(104,228,l),
(104,362,o),
(188,470,o),
(303,470,cs),
(389,470,o),
(460,410,o),
(460,295,cs),
(460,0,l)
);
},
{
closed = 1;
nodes = (
(890,0,l),
(890,290,ls),
(890,434,o),
(811,508,o),
(696,508,cs),
(589,508,o),
(525,444,o),
(494,371,c),
(490,371,l),
(490,228,l),
(494,228,l),
(494,362,o),
(578,470,o),
(693,470,cs),
(779,470,o),
(850,410,o),
(850,295,cs),
(850,0,l)
);
}
);
width = 956;
},
{
associatedMasterId = "061FC23D-6DC8-4BE4-BEC8-2F5AB93B127B";
background = {
shapes = (
{
closed = 1;
nodes = (
(836,0,l),
(836,330,ls),
(836,434,o),
(789,516,o),
(669,516,cs),
(602,516,o),
(535,487,o),
(506,409,c),
(506,300,l),
(516,300,l),
(516,364,o),
(541,415,o),
(610,415,cs),
(644,415,o),
(680,400,o),
(680,310,c),
(680,0,l)
);
},
{
closed = 1;
nodes = (
(196,0,l),
(196,391,l),
(186,403,l),
(186,500,l),
(40,500,l),
(40,0,l)
);
},
{
closed = 1;
nodes = (
(516,0,l),
(516,330,ls),
(516,434,o),
(469,516,o),
(349,516,cs),
(282,516,o),
(215,487,o),
(186,409,c),
(186,300,l),
(196,300,l),
(196,364,o),
(221,415,o),
(290,415,cs),
(324,415,o),
(360,400,o),
(360,310,c),
(360,0,l)
);
}
);
};
layerId = "F7DD645F-9A98-48A1-AC20-E1550B2B6A2E";
name = "Apr 12 18, 13:52";
shapes = (
{
closed = 1;
nodes = (
(520,0,l),
(520,330,ls),
(520,434,o),
(473,516,o),
(356,516,cs),
(286,516,o),
(229,487,o),
(200,409,c),
(190,300,l),
(220,300,l),
(220,364,o),
(241,415,o),
(293,415,cs),
(324,415,o),
(344,397,o),
(344,310,c),
(344,0,l)
);
},
{
closed = 1;
nodes = (
(820,0,l),
(820,330,ls),
(820,434,o),
(773,516,o),
(656,516,cs),
(586,516,o),
(529,487,o),
(500,409,c),
(490,300,l),
(520,300,l),
(520,364,o),
(541,415,o),
(593,415,cs),
(624,415,o),
(644,397,o),
(644,310,c),
(644,0,l)
);
},
{
closed = 1;
nodes = (
(220,0,l),
(220,381,l),
(210,393,l),
(210,500,l),
(36,500,l),
(36,0,l)
);
}
);
width = 866;
},
{
associatedMasterId = "FBD32BA2-3DE3-41DC-83E1-8A694E18FAAC";
background = {
shapes = (
{
closed = 1;
nodes = (
(844,0,l),
(844,330,ls),
(844,434,o),
(797,516,o),
(677,516,cs),
(610,516,o),
(543,487,o),
(514,409,c),
(514,300,l),
(524,300,l),
(524,364,o),
(549,415,o),
(618,415,cs),
(652,415,o),
(688,400,o),
(688,310,c),
(688,0,l)
);
},
{
closed = 1;
nodes = (
(204,0,l),
(204,391,l),
(194,403,l),
(194,500,l),
(48,500,l),
(48,0,l)
);
},
{
closed = 1;
nodes = (
(524,0,l),
(524,330,ls),
(524,434,o),
(477,516,o),
(357,516,cs),
(290,516,o),
(223,487,o),
(194,409,c),
(194,300,l),
(204,300,l),
(204,364,o),
(229,415,o),
(298,415,cs),
(332,415,o),
(368,400,o),
(368,310,c),
(368,0,l)
);
}
);
};
layerId = "96EE7475-44B5-40EE-ABF8-D392071A1D26";
name = "Jul 3 19, 00:21";
shapes = (
{
closed = 1;
nodes = (
(228,0,l),
(228,381,l),
(218,393,l),
(218,500,l),
(44,500,l),
(44,0,l)
);
},
{
pos = (12,0);
ref = _shoulder;
},
{
pos = (316,0);
ref = _shoulder;
}
);
width = 926;
}
);
metricLeft = n;
metricRight = n;
unicode = 109;
},
{
color = 0;
glyphname = n;
kernLeft = lowcaseStraight;
kernRight = shoulder;
lastChange = "2019-06-27 11:28:24 +0000";
layers = (
{
layerId = "FBD32BA2-3DE3-41DC-83E1-8A694E18FAAC";
shapes = (
{
closed = 1;
nodes = (
(228,0,l),
(228,381,l),
(218,393,l),
(218,500,l),
(44,500,l),
(44,0,l)
);
},
{
pos = (12,0);
ref = _shoulder;
}
);
width = 622;
},
{
layerId = "061FC23D-6DC8-4BE4-BEC8-2F5AB93B127B";
shapes = (
{
closed = 1;
nodes = (
(104,0,l),
(104,325,l),
(100,341,l),
(100,500,l),
(64,500,l),
(64,0,l)
);
},
{
pos = (100,0);
ref = _shoulder;
}
);
width = 566;
}
);
unicode = 110;
},
{
color = 1;
glyphname = o;
kernLeft = rounded;
kernRight = rounded;
lastChange = "2019-02-05 08:15:24 +0000";
layers = (
{
anchors = (
{
name = top;
pos = (296,516);
}
);
layerId = "FBD32BA2-3DE3-41DC-83E1-8A694E18FAAC";
shapes = (
{
closed = 1;
nodes = (
(456,-16,o),
(568,94,o),
(568,251,cs),
(568,406,o),
(456,516,o),
(296,516,cs),
(136,516,o),
(24,408,o),
(24,251,cs),
(24,94,o),
(136,-16,o),
(296,-16,cs)
);
},
{
closed = 1;
nodes = (
(233,135,o),
(189,182,o),
(189,251,cs),
(189,319,o),
(233,365,o),
(296,365,cs),
(359,365,o),
(403,318,o),
(403,251,cs),
(403,182,o),
(359,135,o),
(296,135,cs)
);
}
);
width = 592;
},
{
associatedMasterId = "FBD32BA2-3DE3-41DC-83E1-8A694E18FAAC";
layerId = "9F6753E2-4BB9-42A9-BA87-485E20705953";
name = "Jul 31 18, 00:03";
shapes = (
{
closed = 1;
nodes = (
(389,-16,o),
(524,49,o),
(524,230,cs),
(524,270,ls),
(524,451,o),
(389,516,o),
(276,516,cs),
(163,516,o),
(28,451,o),
(28,270,cs),
(28,230,ls),
(28,49,o),
(163,-16,o),
(276,-16,cs)
);
},
{
closed = 1;
nodes = (
(237,104,o),
(212,134,o),
(212,199,cs),
(212,299,ls),
(212,364,o),
(237,396,o),
(276,396,cs),
(315,396,o),
(340,364,o),
(340,299,cs),
(340,199,ls),
(340,134,o),
(315,104,o),
(276,104,cs)
);
}
);
width = 552;
},
{
anchors = (
{
name = top;
pos = (282,500);
}
);
layerId = "061FC23D-6DC8-4BE4-BEC8-2F5AB93B127B";
shapes = (
{
closed = 1;
nodes = (
(432,-8,o),
(532,97,o),
(532,251,cs),
(532,403,o),
(432,508,o),
(282,508,cs),
(132,508,o),
(32,405,o),
(32,251,cs),
(32,97,o),
(132,-8,o),
(282,-8,cs)
);
},
{
closed = 1;
nodes = (
(156,30,o),
(72,117,o),
(72,250,cs),
(72,381,o),
(155,470,o),
(282,470,cs),
(408,470,o),
(492,381,o),
(492,250,cs),
(492,119,o),
(408,30,o),
(282,30,cs)
);
}
);
width = 564;
},
{
associatedMasterId = "061FC23D-6DC8-4BE4-BEC8-2F5AB93B127B";
layerId = "6A941305-8B6C-4E98-AD29-76992471F1A9";
name = "Jul 31 18, 00:03";
shapes = (
{
closed = 1;
nodes = (
(389,-16,o),
(524,49,o),
(524,230,cs),
(524,270,ls),
(524,451,o),
(389,516,o),
(276,516,cs),
(163,516,o),
(28,451,o),
(28,270,cs),
(28,230,ls),
(28,49,o),
(163,-16,o),
(276,-16,cs)
);
},
{
closed = 1;
nodes = (
(237,104,o),
(212,134,o),
(212,199,cs),
(212,299,ls),
(212,364,o),
(237,396,o),
(276,396,cs),
(315,396,o),
(340,364,o),
(340,299,cs),
(340,199,ls),
(340,134,o),
(315,104,o),
(276,104,cs)
);
}
);
width = 552;
}
);
unicode = 111;
},
{
color = 8;
glyphname = p;
kernLeft = lowcaseStraight;
kernRight = rounded;
lastChange = "2019-04-01 09:37:40 +0000";
layers = (
{
layerId = "FBD32BA2-3DE3-41DC-83E1-8A694E18FAAC";
shapes = (
{
closed = 1;
nodes = (
(228,-180,l),
(228,337,l),
(218,349,l),
(218,500,l),
(44,500,l),
(44,-180,l)
);
},
{
pos = (650,0);
ref = bowl;
scale = (-1,1);
}
);
width = 650;
},
{
layerId = "061FC23D-6DC8-4BE4-BEC8-2F5AB93B127B";
shapes = (
{
closed = 1;
nodes = (
(104,-160,l),
(104,337,l),
(100,349,l),
(100,500,l),
(64,500,l),
(64,-160,l)
);
},
{
pos = (556,0);
ref = bowl;
scale = (-1,1);
}
);
width = 588;
}
);
metricLeft = n;
metricRight = o;
unicode = 112;
},
{
color = 8;
glyphname = q;
kernLeft = rounded;
kernRight = lowcaseStraight;
lastChange = "2019-06-27 11:28:37 +0000";
layers = (
{
layerId = "FBD32BA2-3DE3-41DC-83E1-8A694E18FAAC";
shapes = (
{
closed = 1;
nodes = (
(606,-180,l),
(606,500,l),
(432,500,l),
(432,329,l),
(422,317,l),
(422,-180,l)
);
},
{
ref = bowl;
}
);
width = 650;
},
{
layerId = "061FC23D-6DC8-4BE4-BEC8-2F5AB93B127B";
shapes = (
{
closed = 1;
nodes = (
(524,-160,l),
(524,500,l),
(488,500,l),
(488,329,l),
(484,317,l),
(484,-160,l)
);
},
{
pos = (32,0);
ref = bowl;
}
);
width = 590;
}
);
metricLeft = o;
metricRight = n;
unicode = 113;
},
{
color = 0;
glyphname = r;
kernLeft = lowcaseStraight;
lastChange = "2019-06-27 11:22:43 +0000";
layers = (
{
layerId = "FBD32BA2-3DE3-41DC-83E1-8A694E18FAAC";
shapes = (
{
closed = 1;
nodes = (
(228,228,l),
(228,292,o),
(254,334,o),
(328,334,cs),
(417,334,l),
(417,500,l),
(377,500,o),
(375,500,o),
(373,500,cs),
(311,500,o),
(249,471,o),
(222,393,c),
(204,393,l),
(204,228,l)
);
},
{
closed = 1;
nodes = (
(228,0,l),
(228,371,l),
(218,383,l),
(218,500,l),
(44,500,l),
(44,0,l)
);
}
);
width = 424;
},
{
associatedMasterId = "FBD32BA2-3DE3-41DC-83E1-8A694E18FAAC";
layerId = "CCD589EB-0034-46DA-B46A-608BF5338BA1";
name = "Apr 9 18, 23:53";
shapes = (
{
closed = 1;
nodes = (
(216,0,l),
(216,391,l),
(206,403,l),
(206,500,l),
(40,500,l),
(40,0,l)
);
},
{
closed = 1;
nodes = (
(216,325,o),
(238,367,o),
(312,367,cs),
(401,367,l),
(401,508,l),
(362,508,o),
(360,508,o),
(357,508,cs),
(295,508,o),
(233,479,o),
(206,401,c),
(206,261,l),
(216,261,l)
);
}
);
width = 395;
},
{
associatedMasterId = "FBD32BA2-3DE3-41DC-83E1-8A694E18FAAC";
layerId = "F6A67924-8567-464B-85A0-9728344DD24E";
name = "Jul 31 18, 00:22";
shapes = (
{
closed = 1;
nodes = (
(228,0,l),
(228,371,l),
(218,383,l),
(218,500,l),
(44,500,l),
(44,0,l)
);
},
{
closed = 1;
nodes = (
(228,238,l),
(228,302,o),
(254,344,o),
(328,344,cs),
(417,344,l),
(417,500,l),
(378,500,o),
(376,500,o),
(373,500,cs),
(311,500,o),
(249,471,o),
(222,393,c),
(204,393,l),
(204,238,l)
);
}
);
width = 421;
},
{
associatedMasterId = "FBD32BA2-3DE3-41DC-83E1-8A694E18FAAC";
layerId = "C72B92F0-3695-4CDE-AA0A-BA1A5E38C8AE";
name = "Aug 5 18, 12:49";
shapes = (
{
closed = 1;
nodes = (
(228,0,l),
(228,371,l),
(218,383,l),
(218,500,l),
(44,500,l),
(44,0,l)
);
},
{
closed = 1;
nodes = (
(356,516,l),
(287,506,o),
(244,475,o),
(222,413,c),
(204,413,l),
(204,258,l),
(228,258,l),
(228,322,o),
(254,364,o),
(328,364,cs),
(356,364,l)
);
}
);
width = 356;
},
{
associatedMasterId = "FBD32BA2-3DE3-41DC-83E1-8A694E18FAAC";
layerId = "BB0B804B-2D47-440F-AB5E-9A4669D8757A";
name = "Aug 5 18, 15:25";
shapes = (
{
closed = 1;
nodes = (
(228,0,l),
(228,371,l),
(218,383,l),
(218,500,l),
(44,500,l),
(44,0,l)
);
},
{
closed = 1;
nodes = (
(228,238,l),
(228,302,o),
(254,344,o),
(328,344,cs),
(417,344,l),
(417,500,l),
(378,500,o),
(376,500,o),
(373,500,cs),
(311,500,o),
(249,471,o),
(222,393,c),
(204,393,l),
(204,238,l)
);
}
);
width = 417;
},
{
associatedMasterId = "FBD32BA2-3DE3-41DC-83E1-8A694E18FAAC";
layerId = "C85BCFE5-A321-4468-83BA-AB3301BC1123";
name = "Oct 21 18, 18:16";
shapes = (
{
closed = 1;
nodes = (
(228,0,l),
(228,371,l),
(218,383,l),
(218,500,l),
(44,500,l),
(44,0,l)
);
},
{
closed = 1;
nodes = (
(397,344,l),
(417,344,l),
(417,500,l),
(409,500,o),
(402,500,o),
(397,500,c)
);
},
{
closed = 1;
nodes = (
(397,500,l),
(377,500,o),
(375,500,o),
(373,500,cs),
(311,500,o),
(249,471,o),
(222,393,c),
(204,393,l),
(204,238,l),
(228,238,l),
(228,302,o),
(254,344,o),
(328,344,cs),
(397,344,l)
);
}
);
width = 417;
},
{
layerId = "061FC23D-6DC8-4BE4-BEC8-2F5AB93B127B";
shapes = (
{
closed = 1;
nodes = (
(104,338,l),
(104,402,o),
(142,460,o),
(250,460,cs),
(273,460,l),
(273,500,l),
(253,500,o),
(251,500,o),
(249,500,cs),
(187,500,o),
(131,481,o),
(104,423,c),
(82,423,l),
(82,338,l)
);
},
{
closed = 1;
nodes = (
(104,0,l),
(104,345,l),
(100,361,l),
(100,500,l),
(64,500,l),
(64,0,l)
);
}
);
width = 277;
},
{
associatedMasterId = "061FC23D-6DC8-4BE4-BEC8-2F5AB93B127B";
layerId = "0CBEB137-53E0-4DDB-BE56-9A61480987CC";
name = "Apr 9 18, 23:53";
shapes = (
{
closed = 1;
nodes = (
(216,0,l),
(216,391,l),
(206,403,l),
(206,500,l),
(40,500,l),
(40,0,l)
);
},
{
closed = 1;
nodes = (
(216,325,o),
(238,367,o),
(312,367,cs),
(401,367,l),
(401,508,l),
(362,508,o),
(360,508,o),
(357,508,cs),
(295,508,o),
(233,479,o),
(206,401,c),
(206,261,l),
(216,261,l)
);
}
);
width = 395;
},
{
associatedMasterId = "061FC23D-6DC8-4BE4-BEC8-2F5AB93B127B";
layerId = "DA192F1A-7C2D-4151-BEF5-51D57C4A8068";
name = "Jul 31 18, 00:22";
shapes = (
{
closed = 1;
nodes = (
(228,0,l),
(228,371,l),
(218,383,l),
(218,500,l),
(44,500,l),
(44,0,l)
);
},
{
closed = 1;
nodes = (
(228,238,l),
(228,302,o),
(254,344,o),
(328,344,cs),
(417,344,l),
(417,500,l),
(378,500,o),
(376,500,o),
(373,500,cs),
(311,500,o),
(249,471,o),
(222,393,c),
(204,393,l),
(204,238,l)
);
}
);
width = 421;
},
{
associatedMasterId = "061FC23D-6DC8-4BE4-BEC8-2F5AB93B127B";
layerId = "24019D0F-252A-4C6B-8698-09D32BE0D52C";
name = "Aug 5 18, 12:49";
shapes = (
{
closed = 1;
nodes = (
(228,0,l),
(228,371,l),
(218,383,l),
(218,500,l),
(44,500,l),
(44,0,l)
);
},
{
closed = 1;
nodes = (
(356,516,l),
(287,506,o),
(244,475,o),
(222,413,c),
(204,413,l),
(204,258,l),
(228,258,l),
(228,322,o),
(254,364,o),
(328,364,cs),
(356,364,l)
);
}
);
width = 356;
},
{
associatedMasterId = "061FC23D-6DC8-4BE4-BEC8-2F5AB93B127B";
layerId = "C6E6C14E-2A0C-481E-BA74-9B5DF31EC228";
name = "Aug 5 18, 15:25";
shapes = (
{
closed = 1;
nodes = (
(228,0,l),
(228,371,l),
(218,383,l),
(218,500,l),
(44,500,l),
(44,0,l)
);
},
{
closed = 1;
nodes = (
(228,238,l),
(228,302,o),
(254,344,o),
(328,344,cs),
(417,344,l),
(417,500,l),
(378,500,o),
(376,500,o),
(373,500,cs),
(311,500,o),
(249,471,o),
(222,393,c),
(204,393,l),
(204,238,l)
);
}
);
width = 417;
},
{
associatedMasterId = "061FC23D-6DC8-4BE4-BEC8-2F5AB93B127B";
layerId = "4FFCB47D-2C40-49E9-B667-CE69254E3F19";
name = "Oct 21 18, 18:16";
shapes = (
{
closed = 1;
nodes = (
(228,0,l),
(228,371,l),
(218,383,l),
(218,500,l),
(44,500,l),
(44,0,l)
);
},
{
closed = 1;
nodes = (
(397,344,l),
(417,344,l),
(417,500,l),
(409,500,o),
(402,500,o),
(397,500,c)
);
},
{
closed = 1;
nodes = (
(397,500,l),
(377,500,o),
(375,500,o),
(373,500,cs),
(311,500,o),
(249,471,o),
(222,393,c),
(204,393,l),
(204,238,l),
(228,238,l),
(228,302,o),
(254,344,o),
(328,344,cs),
(397,344,l)
);
}
);
width = 417;
}
);
metricLeft = n;
unicode = 114;
},
